<?xml version="1.0" encoding="utf-8" standalone="no"?>
<!DOCTYPE svg PUBLIC "-//W3C//DTD SVG 1.1//EN"
  "http://www.w3.org/Graphics/SVG/1.1/DTD/svg11.dtd">
<svg xmlns:xlink="http://www.w3.org/1999/xlink" width="864pt" height="216pt" viewBox="0 0 864 216" xmlns="http://www.w3.org/2000/svg" version="1.1">
 <metadata>
  <rdf:RDF xmlns:dc="http://purl.org/dc/elements/1.1/" xmlns:cc="http://creativecommons.org/ns#" xmlns:rdf="http://www.w3.org/1999/02/22-rdf-syntax-ns#">
   <cc:Work>
    <dc:type rdf:resource="http://purl.org/dc/dcmitype/StillImage"/>
    <dc:date>2022-09-25T09:52:56.566787</dc:date>
    <dc:format>image/svg+xml</dc:format>
    <dc:creator>
     <cc:Agent>
      <dc:title>Matplotlib v3.6.0, https://matplotlib.org/</dc:title>
     </cc:Agent>
    </dc:creator>
   </cc:Work>
  </rdf:RDF>
 </metadata>
 <defs>
  <style type="text/css">*{stroke-linejoin: round; stroke-linecap: butt}</style>
 </defs>
 <g id="figure_1">
  <g id="patch_1">
   <path d="M 0 216 
L 864 216 
L 864 0 
L 0 0 
z
" style="fill: #ffffff"/>
  </g>
  <g id="axes_1">
   <g id="patch_2">
    <path d="M 50.137685 174.04 
L 274.361872 174.04 
L 274.361872 28.32 
L 50.137685 28.32 
z
" style="fill: #ffffff"/>
   </g>
   <g id="matplotlib.axis_1">
    <g id="xtick_1">
     <g id="line2d_1">
      <defs>
       <path id="mf244755234" d="M 0 0 
L 0 3.5 
" style="stroke: #000000; stroke-width: 0.8"/>
      </defs>
      <g>
       <use xlink:href="#mf244755234" x="60.329693" y="174.04" style="stroke: #000000; stroke-width: 0.8"/>
      </g>
     </g>
     <g id="text_1">
      <!-- 0 -->
      <g transform="translate(57.148443 188.638438) scale(0.1 -0.1)">
       <defs>
        <path id="DejaVuSans-30" d="M 2034 4250 
Q 1547 4250 1301 3770 
Q 1056 3291 1056 2328 
Q 1056 1369 1301 889 
Q 1547 409 2034 409 
Q 2525 409 2770 889 
Q 3016 1369 3016 2328 
Q 3016 3291 2770 3770 
Q 2525 4250 2034 4250 
z
M 2034 4750 
Q 2819 4750 3233 4129 
Q 3647 3509 3647 2328 
Q 3647 1150 3233 529 
Q 2819 -91 2034 -91 
Q 1250 -91 836 529 
Q 422 1150 422 2328 
Q 422 3509 836 4129 
Q 1250 4750 2034 4750 
z
" transform="scale(0.015625)"/>
       </defs>
       <use xlink:href="#DejaVuSans-30"/>
      </g>
     </g>
    </g>
    <g id="xtick_2">
     <g id="line2d_2">
      <g>
       <use xlink:href="#mf244755234" x="111.289736" y="174.04" style="stroke: #000000; stroke-width: 0.8"/>
      </g>
     </g>
     <g id="text_2">
      <!-- 3002 -->
      <g transform="translate(98.564736 188.638438) scale(0.1 -0.1)">
       <defs>
        <path id="DejaVuSans-33" d="M 2597 2516 
Q 3050 2419 3304 2112 
Q 3559 1806 3559 1356 
Q 3559 666 3084 287 
Q 2609 -91 1734 -91 
Q 1441 -91 1130 -33 
Q 819 25 488 141 
L 488 750 
Q 750 597 1062 519 
Q 1375 441 1716 441 
Q 2309 441 2620 675 
Q 2931 909 2931 1356 
Q 2931 1769 2642 2001 
Q 2353 2234 1838 2234 
L 1294 2234 
L 1294 2753 
L 1863 2753 
Q 2328 2753 2575 2939 
Q 2822 3125 2822 3475 
Q 2822 3834 2567 4026 
Q 2313 4219 1838 4219 
Q 1578 4219 1281 4162 
Q 984 4106 628 3988 
L 628 4550 
Q 988 4650 1302 4700 
Q 1616 4750 1894 4750 
Q 2613 4750 3031 4423 
Q 3450 4097 3450 3541 
Q 3450 3153 3228 2886 
Q 3006 2619 2597 2516 
z
" transform="scale(0.015625)"/>
        <path id="DejaVuSans-32" d="M 1228 531 
L 3431 531 
L 3431 0 
L 469 0 
L 469 531 
Q 828 903 1448 1529 
Q 2069 2156 2228 2338 
Q 2531 2678 2651 2914 
Q 2772 3150 2772 3378 
Q 2772 3750 2511 3984 
Q 2250 4219 1831 4219 
Q 1534 4219 1204 4116 
Q 875 4013 500 3803 
L 500 4441 
Q 881 4594 1212 4672 
Q 1544 4750 1819 4750 
Q 2544 4750 2975 4387 
Q 3406 4025 3406 3419 
Q 3406 3131 3298 2873 
Q 3191 2616 2906 2266 
Q 2828 2175 2409 1742 
Q 1991 1309 1228 531 
z
" transform="scale(0.015625)"/>
       </defs>
       <use xlink:href="#DejaVuSans-33"/>
       <use xlink:href="#DejaVuSans-30" x="63.623047"/>
       <use xlink:href="#DejaVuSans-30" x="127.246094"/>
       <use xlink:href="#DejaVuSans-32" x="190.869141"/>
      </g>
     </g>
    </g>
    <g id="xtick_3">
     <g id="line2d_3">
      <g>
       <use xlink:href="#mf244755234" x="162.249778" y="174.04" style="stroke: #000000; stroke-width: 0.8"/>
      </g>
     </g>
     <g id="text_3">
      <!-- 6005 -->
      <g transform="translate(149.524778 188.638438) scale(0.1 -0.1)">
       <defs>
        <path id="DejaVuSans-36" d="M 2113 2584 
Q 1688 2584 1439 2293 
Q 1191 2003 1191 1497 
Q 1191 994 1439 701 
Q 1688 409 2113 409 
Q 2538 409 2786 701 
Q 3034 994 3034 1497 
Q 3034 2003 2786 2293 
Q 2538 2584 2113 2584 
z
M 3366 4563 
L 3366 3988 
Q 3128 4100 2886 4159 
Q 2644 4219 2406 4219 
Q 1781 4219 1451 3797 
Q 1122 3375 1075 2522 
Q 1259 2794 1537 2939 
Q 1816 3084 2150 3084 
Q 2853 3084 3261 2657 
Q 3669 2231 3669 1497 
Q 3669 778 3244 343 
Q 2819 -91 2113 -91 
Q 1303 -91 875 529 
Q 447 1150 447 2328 
Q 447 3434 972 4092 
Q 1497 4750 2381 4750 
Q 2619 4750 2861 4703 
Q 3103 4656 3366 4563 
z
" transform="scale(0.015625)"/>
        <path id="DejaVuSans-35" d="M 691 4666 
L 3169 4666 
L 3169 4134 
L 1269 4134 
L 1269 2991 
Q 1406 3038 1543 3061 
Q 1681 3084 1819 3084 
Q 2600 3084 3056 2656 
Q 3513 2228 3513 1497 
Q 3513 744 3044 326 
Q 2575 -91 1722 -91 
Q 1428 -91 1123 -41 
Q 819 9 494 109 
L 494 744 
Q 775 591 1075 516 
Q 1375 441 1709 441 
Q 2250 441 2565 725 
Q 2881 1009 2881 1497 
Q 2881 1984 2565 2268 
Q 2250 2553 1709 2553 
Q 1456 2553 1204 2497 
Q 953 2441 691 2322 
L 691 4666 
z
" transform="scale(0.015625)"/>
       </defs>
       <use xlink:href="#DejaVuSans-36"/>
       <use xlink:href="#DejaVuSans-30" x="63.623047"/>
       <use xlink:href="#DejaVuSans-30" x="127.246094"/>
       <use xlink:href="#DejaVuSans-35" x="190.869141"/>
      </g>
     </g>
    </g>
    <g id="xtick_4">
     <g id="line2d_4">
      <g>
       <use xlink:href="#mf244755234" x="213.209821" y="174.04" style="stroke: #000000; stroke-width: 0.8"/>
      </g>
     </g>
     <g id="text_4">
      <!-- 9008 -->
      <g transform="translate(200.484821 188.638438) scale(0.1 -0.1)">
       <defs>
        <path id="DejaVuSans-39" d="M 703 97 
L 703 672 
Q 941 559 1184 500 
Q 1428 441 1663 441 
Q 2288 441 2617 861 
Q 2947 1281 2994 2138 
Q 2813 1869 2534 1725 
Q 2256 1581 1919 1581 
Q 1219 1581 811 2004 
Q 403 2428 403 3163 
Q 403 3881 828 4315 
Q 1253 4750 1959 4750 
Q 2769 4750 3195 4129 
Q 3622 3509 3622 2328 
Q 3622 1225 3098 567 
Q 2575 -91 1691 -91 
Q 1453 -91 1209 -44 
Q 966 3 703 97 
z
M 1959 2075 
Q 2384 2075 2632 2365 
Q 2881 2656 2881 3163 
Q 2881 3666 2632 3958 
Q 2384 4250 1959 4250 
Q 1534 4250 1286 3958 
Q 1038 3666 1038 3163 
Q 1038 2656 1286 2365 
Q 1534 2075 1959 2075 
z
" transform="scale(0.015625)"/>
        <path id="DejaVuSans-38" d="M 2034 2216 
Q 1584 2216 1326 1975 
Q 1069 1734 1069 1313 
Q 1069 891 1326 650 
Q 1584 409 2034 409 
Q 2484 409 2743 651 
Q 3003 894 3003 1313 
Q 3003 1734 2745 1975 
Q 2488 2216 2034 2216 
z
M 1403 2484 
Q 997 2584 770 2862 
Q 544 3141 544 3541 
Q 544 4100 942 4425 
Q 1341 4750 2034 4750 
Q 2731 4750 3128 4425 
Q 3525 4100 3525 3541 
Q 3525 3141 3298 2862 
Q 3072 2584 2669 2484 
Q 3125 2378 3379 2068 
Q 3634 1759 3634 1313 
Q 3634 634 3220 271 
Q 2806 -91 2034 -91 
Q 1263 -91 848 271 
Q 434 634 434 1313 
Q 434 1759 690 2068 
Q 947 2378 1403 2484 
z
M 1172 3481 
Q 1172 3119 1398 2916 
Q 1625 2713 2034 2713 
Q 2441 2713 2670 2916 
Q 2900 3119 2900 3481 
Q 2900 3844 2670 4047 
Q 2441 4250 2034 4250 
Q 1625 4250 1398 4047 
Q 1172 3844 1172 3481 
z
" transform="scale(0.015625)"/>
       </defs>
       <use xlink:href="#DejaVuSans-39"/>
       <use xlink:href="#DejaVuSans-30" x="63.623047"/>
       <use xlink:href="#DejaVuSans-30" x="127.246094"/>
       <use xlink:href="#DejaVuSans-38" x="190.869141"/>
      </g>
     </g>
    </g>
    <g id="xtick_5">
     <g id="line2d_5">
      <g>
       <use xlink:href="#mf244755234" x="264.169863" y="174.04" style="stroke: #000000; stroke-width: 0.8"/>
      </g>
     </g>
     <g id="text_5">
      <!-- 12010 -->
      <g transform="translate(248.263613 188.638438) scale(0.1 -0.1)">
       <defs>
        <path id="DejaVuSans-31" d="M 794 531 
L 1825 531 
L 1825 4091 
L 703 3866 
L 703 4441 
L 1819 4666 
L 2450 4666 
L 2450 531 
L 3481 531 
L 3481 0 
L 794 0 
L 794 531 
z
" transform="scale(0.015625)"/>
       </defs>
       <use xlink:href="#DejaVuSans-31"/>
       <use xlink:href="#DejaVuSans-32" x="63.623047"/>
       <use xlink:href="#DejaVuSans-30" x="127.246094"/>
       <use xlink:href="#DejaVuSans-31" x="190.869141"/>
       <use xlink:href="#DejaVuSans-30" x="254.492188"/>
      </g>
     </g>
    </g>
    <g id="text_6">
     <!-- Time (s) -->
     <g transform="translate(141.920872 202.316563) scale(0.1 -0.1)">
      <defs>
       <path id="DejaVuSans-54" d="M -19 4666 
L 3928 4666 
L 3928 4134 
L 2272 4134 
L 2272 0 
L 1638 0 
L 1638 4134 
L -19 4134 
L -19 4666 
z
" transform="scale(0.015625)"/>
       <path id="DejaVuSans-69" d="M 603 3500 
L 1178 3500 
L 1178 0 
L 603 0 
L 603 3500 
z
M 603 4863 
L 1178 4863 
L 1178 4134 
L 603 4134 
L 603 4863 
z
" transform="scale(0.015625)"/>
       <path id="DejaVuSans-6d" d="M 3328 2828 
Q 3544 3216 3844 3400 
Q 4144 3584 4550 3584 
Q 5097 3584 5394 3201 
Q 5691 2819 5691 2113 
L 5691 0 
L 5113 0 
L 5113 2094 
Q 5113 2597 4934 2840 
Q 4756 3084 4391 3084 
Q 3944 3084 3684 2787 
Q 3425 2491 3425 1978 
L 3425 0 
L 2847 0 
L 2847 2094 
Q 2847 2600 2669 2842 
Q 2491 3084 2119 3084 
Q 1678 3084 1418 2786 
Q 1159 2488 1159 1978 
L 1159 0 
L 581 0 
L 581 3500 
L 1159 3500 
L 1159 2956 
Q 1356 3278 1631 3431 
Q 1906 3584 2284 3584 
Q 2666 3584 2933 3390 
Q 3200 3197 3328 2828 
z
" transform="scale(0.015625)"/>
       <path id="DejaVuSans-65" d="M 3597 1894 
L 3597 1613 
L 953 1613 
Q 991 1019 1311 708 
Q 1631 397 2203 397 
Q 2534 397 2845 478 
Q 3156 559 3463 722 
L 3463 178 
Q 3153 47 2828 -22 
Q 2503 -91 2169 -91 
Q 1331 -91 842 396 
Q 353 884 353 1716 
Q 353 2575 817 3079 
Q 1281 3584 2069 3584 
Q 2775 3584 3186 3129 
Q 3597 2675 3597 1894 
z
M 3022 2063 
Q 3016 2534 2758 2815 
Q 2500 3097 2075 3097 
Q 1594 3097 1305 2825 
Q 1016 2553 972 2059 
L 3022 2063 
z
" transform="scale(0.015625)"/>
       <path id="DejaVuSans-20" transform="scale(0.015625)"/>
       <path id="DejaVuSans-28" d="M 1984 4856 
Q 1566 4138 1362 3434 
Q 1159 2731 1159 2009 
Q 1159 1288 1364 580 
Q 1569 -128 1984 -844 
L 1484 -844 
Q 1016 -109 783 600 
Q 550 1309 550 2009 
Q 550 2706 781 3412 
Q 1013 4119 1484 4856 
L 1984 4856 
z
" transform="scale(0.015625)"/>
       <path id="DejaVuSans-73" d="M 2834 3397 
L 2834 2853 
Q 2591 2978 2328 3040 
Q 2066 3103 1784 3103 
Q 1356 3103 1142 2972 
Q 928 2841 928 2578 
Q 928 2378 1081 2264 
Q 1234 2150 1697 2047 
L 1894 2003 
Q 2506 1872 2764 1633 
Q 3022 1394 3022 966 
Q 3022 478 2636 193 
Q 2250 -91 1575 -91 
Q 1294 -91 989 -36 
Q 684 19 347 128 
L 347 722 
Q 666 556 975 473 
Q 1284 391 1588 391 
Q 1994 391 2212 530 
Q 2431 669 2431 922 
Q 2431 1156 2273 1281 
Q 2116 1406 1581 1522 
L 1381 1569 
Q 847 1681 609 1914 
Q 372 2147 372 2553 
Q 372 3047 722 3315 
Q 1072 3584 1716 3584 
Q 2034 3584 2315 3537 
Q 2597 3491 2834 3397 
z
" transform="scale(0.015625)"/>
       <path id="DejaVuSans-29" d="M 513 4856 
L 1013 4856 
Q 1481 4119 1714 3412 
Q 1947 2706 1947 2009 
Q 1947 1309 1714 600 
Q 1481 -109 1013 -844 
L 513 -844 
Q 928 -128 1133 580 
Q 1338 1288 1338 2009 
Q 1338 2731 1133 3434 
Q 928 4138 513 4856 
z
" transform="scale(0.015625)"/>
      </defs>
      <use xlink:href="#DejaVuSans-54"/>
      <use xlink:href="#DejaVuSans-69" x="57.958984"/>
      <use xlink:href="#DejaVuSans-6d" x="85.742188"/>
      <use xlink:href="#DejaVuSans-65" x="183.154297"/>
      <use xlink:href="#DejaVuSans-20" x="244.677734"/>
      <use xlink:href="#DejaVuSans-28" x="276.464844"/>
      <use xlink:href="#DejaVuSans-73" x="315.478516"/>
      <use xlink:href="#DejaVuSans-29" x="367.578125"/>
     </g>
    </g>
   </g>
   <g id="matplotlib.axis_2">
    <g id="ytick_1">
     <g id="line2d_6">
      <path d="M 50.137685 166.823028 
L 274.361872 166.823028 
" clip-path="url(#pb87917c8cd)" style="fill: none; stroke: #b0b0b0; stroke-width: 0.8; stroke-linecap: square"/>
     </g>
     <g id="line2d_7">
      <defs>
       <path id="m2c0949700d" d="M 0 0 
L -3.5 0 
" style="stroke: #000000; stroke-width: 0.8"/>
      </defs>
      <g>
       <use xlink:href="#m2c0949700d" x="50.137685" y="166.823028" style="stroke: #000000; stroke-width: 0.8"/>
      </g>
     </g>
     <g id="text_7">
      <!-- $\mathdefault{10^{1}}$ -->
      <g transform="translate(25.537685 170.622247) scale(0.1 -0.1)">
       <use xlink:href="#DejaVuSans-31" transform="translate(0 0.684375)"/>
       <use xlink:href="#DejaVuSans-30" transform="translate(63.623047 0.684375)"/>
       <use xlink:href="#DejaVuSans-31" transform="translate(128.203125 38.965625) scale(0.7)"/>
      </g>
     </g>
    </g>
    <g id="ytick_2">
     <g id="line2d_8">
      <path d="M 50.137685 140.852511 
L 274.361872 140.852511 
" clip-path="url(#pb87917c8cd)" style="fill: none; stroke: #b0b0b0; stroke-width: 0.8; stroke-linecap: square"/>
     </g>
     <g id="line2d_9">
      <g>
       <use xlink:href="#m2c0949700d" x="50.137685" y="140.852511" style="stroke: #000000; stroke-width: 0.8"/>
      </g>
     </g>
     <g id="text_8">
      <!-- $\mathdefault{10^{2}}$ -->
      <g transform="translate(25.537685 144.65173) scale(0.1 -0.1)">
       <use xlink:href="#DejaVuSans-31" transform="translate(0 0.765625)"/>
       <use xlink:href="#DejaVuSans-30" transform="translate(63.623047 0.765625)"/>
       <use xlink:href="#DejaVuSans-32" transform="translate(128.203125 39.046875) scale(0.7)"/>
      </g>
     </g>
    </g>
    <g id="ytick_3">
     <g id="line2d_10">
      <path d="M 50.137685 114.881994 
L 274.361872 114.881994 
" clip-path="url(#pb87917c8cd)" style="fill: none; stroke: #b0b0b0; stroke-width: 0.8; stroke-linecap: square"/>
     </g>
     <g id="line2d_11">
      <g>
       <use xlink:href="#m2c0949700d" x="50.137685" y="114.881994" style="stroke: #000000; stroke-width: 0.8"/>
      </g>
     </g>
     <g id="text_9">
      <!-- $\mathdefault{10^{3}}$ -->
      <g transform="translate(25.537685 118.681213) scale(0.1 -0.1)">
       <use xlink:href="#DejaVuSans-31" transform="translate(0 0.765625)"/>
       <use xlink:href="#DejaVuSans-30" transform="translate(63.623047 0.765625)"/>
       <use xlink:href="#DejaVuSans-33" transform="translate(128.203125 39.046875) scale(0.7)"/>
      </g>
     </g>
    </g>
    <g id="ytick_4">
     <g id="line2d_12">
      <path d="M 50.137685 88.911477 
L 274.361872 88.911477 
" clip-path="url(#pb87917c8cd)" style="fill: none; stroke: #b0b0b0; stroke-width: 0.8; stroke-linecap: square"/>
     </g>
     <g id="line2d_13">
      <g>
       <use xlink:href="#m2c0949700d" x="50.137685" y="88.911477" style="stroke: #000000; stroke-width: 0.8"/>
      </g>
     </g>
     <g id="text_10">
      <!-- $\mathdefault{10^{4}}$ -->
      <g transform="translate(25.537685 92.710696) scale(0.1 -0.1)">
       <defs>
        <path id="DejaVuSans-34" d="M 2419 4116 
L 825 1625 
L 2419 1625 
L 2419 4116 
z
M 2253 4666 
L 3047 4666 
L 3047 1625 
L 3713 1625 
L 3713 1100 
L 3047 1100 
L 3047 0 
L 2419 0 
L 2419 1100 
L 313 1100 
L 313 1709 
L 2253 4666 
z
" transform="scale(0.015625)"/>
       </defs>
       <use xlink:href="#DejaVuSans-31" transform="translate(0 0.684375)"/>
       <use xlink:href="#DejaVuSans-30" transform="translate(63.623047 0.684375)"/>
       <use xlink:href="#DejaVuSans-34" transform="translate(128.203125 38.965625) scale(0.7)"/>
      </g>
     </g>
    </g>
    <g id="ytick_5">
     <g id="line2d_14">
      <path d="M 50.137685 62.940961 
L 274.361872 62.940961 
" clip-path="url(#pb87917c8cd)" style="fill: none; stroke: #b0b0b0; stroke-width: 0.8; stroke-linecap: square"/>
     </g>
     <g id="line2d_15">
      <g>
       <use xlink:href="#m2c0949700d" x="50.137685" y="62.940961" style="stroke: #000000; stroke-width: 0.8"/>
      </g>
     </g>
     <g id="text_11">
      <!-- $\mathdefault{10^{5}}$ -->
      <g transform="translate(25.537685 66.740179) scale(0.1 -0.1)">
       <use xlink:href="#DejaVuSans-31" transform="translate(0 0.684375)"/>
       <use xlink:href="#DejaVuSans-30" transform="translate(63.623047 0.684375)"/>
       <use xlink:href="#DejaVuSans-35" transform="translate(128.203125 38.965625) scale(0.7)"/>
      </g>
     </g>
    </g>
    <g id="ytick_6">
     <g id="line2d_16">
      <path d="M 50.137685 36.970444 
L 274.361872 36.970444 
" clip-path="url(#pb87917c8cd)" style="fill: none; stroke: #b0b0b0; stroke-width: 0.8; stroke-linecap: square"/>
     </g>
     <g id="line2d_17">
      <g>
       <use xlink:href="#m2c0949700d" x="50.137685" y="36.970444" style="stroke: #000000; stroke-width: 0.8"/>
      </g>
     </g>
     <g id="text_12">
      <!-- $\mathdefault{10^{6}}$ -->
      <g transform="translate(25.537685 40.769662) scale(0.1 -0.1)">
       <use xlink:href="#DejaVuSans-31" transform="translate(0 0.765625)"/>
       <use xlink:href="#DejaVuSans-30" transform="translate(63.623047 0.765625)"/>
       <use xlink:href="#DejaVuSans-36" transform="translate(128.203125 39.046875) scale(0.7)"/>
      </g>
     </g>
    </g>
    <g id="ytick_7">
     <g id="line2d_18">
      <defs>
       <path id="m31fcdfec6a" d="M 0 0 
L -2 0 
" style="stroke: #000000; stroke-width: 0.6"/>
      </defs>
      <g>
       <use xlink:href="#m31fcdfec6a" x="50.137685" y="172.584555" style="stroke: #000000; stroke-width: 0.6"/>
      </g>
     </g>
    </g>
    <g id="ytick_8">
     <g id="line2d_19">
      <g>
       <use xlink:href="#m31fcdfec6a" x="50.137685" y="170.845912" style="stroke: #000000; stroke-width: 0.6"/>
      </g>
     </g>
    </g>
    <g id="ytick_9">
     <g id="line2d_20">
      <g>
       <use xlink:href="#m31fcdfec6a" x="50.137685" y="169.339831" style="stroke: #000000; stroke-width: 0.6"/>
      </g>
     </g>
    </g>
    <g id="ytick_10">
     <g id="line2d_21">
      <g>
       <use xlink:href="#m31fcdfec6a" x="50.137685" y="168.011374" style="stroke: #000000; stroke-width: 0.6"/>
      </g>
     </g>
    </g>
    <g id="ytick_11">
     <g id="line2d_22">
      <g>
       <use xlink:href="#m31fcdfec6a" x="50.137685" y="159.005124" style="stroke: #000000; stroke-width: 0.6"/>
      </g>
     </g>
    </g>
    <g id="ytick_12">
     <g id="line2d_23">
      <g>
       <use xlink:href="#m31fcdfec6a" x="50.137685" y="154.431943" style="stroke: #000000; stroke-width: 0.6"/>
      </g>
     </g>
    </g>
    <g id="ytick_13">
     <g id="line2d_24">
      <g>
       <use xlink:href="#m31fcdfec6a" x="50.137685" y="151.187219" style="stroke: #000000; stroke-width: 0.6"/>
      </g>
     </g>
    </g>
    <g id="ytick_14">
     <g id="line2d_25">
      <g>
       <use xlink:href="#m31fcdfec6a" x="50.137685" y="148.670416" style="stroke: #000000; stroke-width: 0.6"/>
      </g>
     </g>
    </g>
    <g id="ytick_15">
     <g id="line2d_26">
      <g>
       <use xlink:href="#m31fcdfec6a" x="50.137685" y="146.614038" style="stroke: #000000; stroke-width: 0.6"/>
      </g>
     </g>
    </g>
    <g id="ytick_16">
     <g id="line2d_27">
      <g>
       <use xlink:href="#m31fcdfec6a" x="50.137685" y="144.875395" style="stroke: #000000; stroke-width: 0.6"/>
      </g>
     </g>
    </g>
    <g id="ytick_17">
     <g id="line2d_28">
      <g>
       <use xlink:href="#m31fcdfec6a" x="50.137685" y="143.369314" style="stroke: #000000; stroke-width: 0.6"/>
      </g>
     </g>
    </g>
    <g id="ytick_18">
     <g id="line2d_29">
      <g>
       <use xlink:href="#m31fcdfec6a" x="50.137685" y="142.040857" style="stroke: #000000; stroke-width: 0.6"/>
      </g>
     </g>
    </g>
    <g id="ytick_19">
     <g id="line2d_30">
      <g>
       <use xlink:href="#m31fcdfec6a" x="50.137685" y="133.034607" style="stroke: #000000; stroke-width: 0.6"/>
      </g>
     </g>
    </g>
    <g id="ytick_20">
     <g id="line2d_31">
      <g>
       <use xlink:href="#m31fcdfec6a" x="50.137685" y="128.461426" style="stroke: #000000; stroke-width: 0.6"/>
      </g>
     </g>
    </g>
    <g id="ytick_21">
     <g id="line2d_32">
      <g>
       <use xlink:href="#m31fcdfec6a" x="50.137685" y="125.216702" style="stroke: #000000; stroke-width: 0.6"/>
      </g>
     </g>
    </g>
    <g id="ytick_22">
     <g id="line2d_33">
      <g>
       <use xlink:href="#m31fcdfec6a" x="50.137685" y="122.699899" style="stroke: #000000; stroke-width: 0.6"/>
      </g>
     </g>
    </g>
    <g id="ytick_23">
     <g id="line2d_34">
      <g>
       <use xlink:href="#m31fcdfec6a" x="50.137685" y="120.643521" style="stroke: #000000; stroke-width: 0.6"/>
      </g>
     </g>
    </g>
    <g id="ytick_24">
     <g id="line2d_35">
      <g>
       <use xlink:href="#m31fcdfec6a" x="50.137685" y="118.904878" style="stroke: #000000; stroke-width: 0.6"/>
      </g>
     </g>
    </g>
    <g id="ytick_25">
     <g id="line2d_36">
      <g>
       <use xlink:href="#m31fcdfec6a" x="50.137685" y="117.398797" style="stroke: #000000; stroke-width: 0.6"/>
      </g>
     </g>
    </g>
    <g id="ytick_26">
     <g id="line2d_37">
      <g>
       <use xlink:href="#m31fcdfec6a" x="50.137685" y="116.07034" style="stroke: #000000; stroke-width: 0.6"/>
      </g>
     </g>
    </g>
    <g id="ytick_27">
     <g id="line2d_38">
      <g>
       <use xlink:href="#m31fcdfec6a" x="50.137685" y="107.06409" style="stroke: #000000; stroke-width: 0.6"/>
      </g>
     </g>
    </g>
    <g id="ytick_28">
     <g id="line2d_39">
      <g>
       <use xlink:href="#m31fcdfec6a" x="50.137685" y="102.490909" style="stroke: #000000; stroke-width: 0.6"/>
      </g>
     </g>
    </g>
    <g id="ytick_29">
     <g id="line2d_40">
      <g>
       <use xlink:href="#m31fcdfec6a" x="50.137685" y="99.246185" style="stroke: #000000; stroke-width: 0.6"/>
      </g>
     </g>
    </g>
    <g id="ytick_30">
     <g id="line2d_41">
      <g>
       <use xlink:href="#m31fcdfec6a" x="50.137685" y="96.729382" style="stroke: #000000; stroke-width: 0.6"/>
      </g>
     </g>
    </g>
    <g id="ytick_31">
     <g id="line2d_42">
      <g>
       <use xlink:href="#m31fcdfec6a" x="50.137685" y="94.673004" style="stroke: #000000; stroke-width: 0.6"/>
      </g>
     </g>
    </g>
    <g id="ytick_32">
     <g id="line2d_43">
      <g>
       <use xlink:href="#m31fcdfec6a" x="50.137685" y="92.934361" style="stroke: #000000; stroke-width: 0.6"/>
      </g>
     </g>
    </g>
    <g id="ytick_33">
     <g id="line2d_44">
      <g>
       <use xlink:href="#m31fcdfec6a" x="50.137685" y="91.428281" style="stroke: #000000; stroke-width: 0.6"/>
      </g>
     </g>
    </g>
    <g id="ytick_34">
     <g id="line2d_45">
      <g>
       <use xlink:href="#m31fcdfec6a" x="50.137685" y="90.099823" style="stroke: #000000; stroke-width: 0.6"/>
      </g>
     </g>
    </g>
    <g id="ytick_35">
     <g id="line2d_46">
      <g>
       <use xlink:href="#m31fcdfec6a" x="50.137685" y="81.093573" style="stroke: #000000; stroke-width: 0.6"/>
      </g>
     </g>
    </g>
    <g id="ytick_36">
     <g id="line2d_47">
      <g>
       <use xlink:href="#m31fcdfec6a" x="50.137685" y="76.520392" style="stroke: #000000; stroke-width: 0.6"/>
      </g>
     </g>
    </g>
    <g id="ytick_37">
     <g id="line2d_48">
      <g>
       <use xlink:href="#m31fcdfec6a" x="50.137685" y="73.275668" style="stroke: #000000; stroke-width: 0.6"/>
      </g>
     </g>
    </g>
    <g id="ytick_38">
     <g id="line2d_49">
      <g>
       <use xlink:href="#m31fcdfec6a" x="50.137685" y="70.758865" style="stroke: #000000; stroke-width: 0.6"/>
      </g>
     </g>
    </g>
    <g id="ytick_39">
     <g id="line2d_50">
      <g>
       <use xlink:href="#m31fcdfec6a" x="50.137685" y="68.702487" style="stroke: #000000; stroke-width: 0.6"/>
      </g>
     </g>
    </g>
    <g id="ytick_40">
     <g id="line2d_51">
      <g>
       <use xlink:href="#m31fcdfec6a" x="50.137685" y="66.963845" style="stroke: #000000; stroke-width: 0.6"/>
      </g>
     </g>
    </g>
    <g id="ytick_41">
     <g id="line2d_52">
      <g>
       <use xlink:href="#m31fcdfec6a" x="50.137685" y="65.457764" style="stroke: #000000; stroke-width: 0.6"/>
      </g>
     </g>
    </g>
    <g id="ytick_42">
     <g id="line2d_53">
      <g>
       <use xlink:href="#m31fcdfec6a" x="50.137685" y="64.129306" style="stroke: #000000; stroke-width: 0.6"/>
      </g>
     </g>
    </g>
    <g id="ytick_43">
     <g id="line2d_54">
      <g>
       <use xlink:href="#m31fcdfec6a" x="50.137685" y="55.123056" style="stroke: #000000; stroke-width: 0.6"/>
      </g>
     </g>
    </g>
    <g id="ytick_44">
     <g id="line2d_55">
      <g>
       <use xlink:href="#m31fcdfec6a" x="50.137685" y="50.549875" style="stroke: #000000; stroke-width: 0.6"/>
      </g>
     </g>
    </g>
    <g id="ytick_45">
     <g id="line2d_56">
      <g>
       <use xlink:href="#m31fcdfec6a" x="50.137685" y="47.305151" style="stroke: #000000; stroke-width: 0.6"/>
      </g>
     </g>
    </g>
    <g id="ytick_46">
     <g id="line2d_57">
      <g>
       <use xlink:href="#m31fcdfec6a" x="50.137685" y="44.788348" style="stroke: #000000; stroke-width: 0.6"/>
      </g>
     </g>
    </g>
    <g id="ytick_47">
     <g id="line2d_58">
      <g>
       <use xlink:href="#m31fcdfec6a" x="50.137685" y="42.73197" style="stroke: #000000; stroke-width: 0.6"/>
      </g>
     </g>
    </g>
    <g id="ytick_48">
     <g id="line2d_59">
      <g>
       <use xlink:href="#m31fcdfec6a" x="50.137685" y="40.993328" style="stroke: #000000; stroke-width: 0.6"/>
      </g>
     </g>
    </g>
    <g id="ytick_49">
     <g id="line2d_60">
      <g>
       <use xlink:href="#m31fcdfec6a" x="50.137685" y="39.487247" style="stroke: #000000; stroke-width: 0.6"/>
      </g>
     </g>
    </g>
    <g id="ytick_50">
     <g id="line2d_61">
      <g>
       <use xlink:href="#m31fcdfec6a" x="50.137685" y="38.158789" style="stroke: #000000; stroke-width: 0.6"/>
      </g>
     </g>
    </g>
    <g id="ytick_51">
     <g id="line2d_62">
      <g>
       <use xlink:href="#m31fcdfec6a" x="50.137685" y="29.152539" style="stroke: #000000; stroke-width: 0.6"/>
      </g>
     </g>
    </g>
    <g id="text_13">
     <!-- cum #msg -->
     <g transform="translate(19.457997 128.396406) rotate(-90) scale(0.1 -0.1)">
      <defs>
       <path id="DejaVuSans-63" d="M 3122 3366 
L 3122 2828 
Q 2878 2963 2633 3030 
Q 2388 3097 2138 3097 
Q 1578 3097 1268 2742 
Q 959 2388 959 1747 
Q 959 1106 1268 751 
Q 1578 397 2138 397 
Q 2388 397 2633 464 
Q 2878 531 3122 666 
L 3122 134 
Q 2881 22 2623 -34 
Q 2366 -91 2075 -91 
Q 1284 -91 818 406 
Q 353 903 353 1747 
Q 353 2603 823 3093 
Q 1294 3584 2113 3584 
Q 2378 3584 2631 3529 
Q 2884 3475 3122 3366 
z
" transform="scale(0.015625)"/>
       <path id="DejaVuSans-75" d="M 544 1381 
L 544 3500 
L 1119 3500 
L 1119 1403 
Q 1119 906 1312 657 
Q 1506 409 1894 409 
Q 2359 409 2629 706 
Q 2900 1003 2900 1516 
L 2900 3500 
L 3475 3500 
L 3475 0 
L 2900 0 
L 2900 538 
Q 2691 219 2414 64 
Q 2138 -91 1772 -91 
Q 1169 -91 856 284 
Q 544 659 544 1381 
z
M 1991 3584 
L 1991 3584 
z
" transform="scale(0.015625)"/>
       <path id="DejaVuSans-23" d="M 3272 2816 
L 2363 2816 
L 2100 1772 
L 3016 1772 
L 3272 2816 
z
M 2803 4594 
L 2478 3297 
L 3391 3297 
L 3719 4594 
L 4219 4594 
L 3897 3297 
L 4872 3297 
L 4872 2816 
L 3775 2816 
L 3519 1772 
L 4513 1772 
L 4513 1294 
L 3397 1294 
L 3072 0 
L 2572 0 
L 2894 1294 
L 1978 1294 
L 1656 0 
L 1153 0 
L 1478 1294 
L 494 1294 
L 494 1772 
L 1594 1772 
L 1856 2816 
L 850 2816 
L 850 3297 
L 1978 3297 
L 2297 4594 
L 2803 4594 
z
" transform="scale(0.015625)"/>
       <path id="DejaVuSans-67" d="M 2906 1791 
Q 2906 2416 2648 2759 
Q 2391 3103 1925 3103 
Q 1463 3103 1205 2759 
Q 947 2416 947 1791 
Q 947 1169 1205 825 
Q 1463 481 1925 481 
Q 2391 481 2648 825 
Q 2906 1169 2906 1791 
z
M 3481 434 
Q 3481 -459 3084 -895 
Q 2688 -1331 1869 -1331 
Q 1566 -1331 1297 -1286 
Q 1028 -1241 775 -1147 
L 775 -588 
Q 1028 -725 1275 -790 
Q 1522 -856 1778 -856 
Q 2344 -856 2625 -561 
Q 2906 -266 2906 331 
L 2906 616 
Q 2728 306 2450 153 
Q 2172 0 1784 0 
Q 1141 0 747 490 
Q 353 981 353 1791 
Q 353 2603 747 3093 
Q 1141 3584 1784 3584 
Q 2172 3584 2450 3431 
Q 2728 3278 2906 2969 
L 2906 3500 
L 3481 3500 
L 3481 434 
z
" transform="scale(0.015625)"/>
      </defs>
      <use xlink:href="#DejaVuSans-63"/>
      <use xlink:href="#DejaVuSans-75" x="54.980469"/>
      <use xlink:href="#DejaVuSans-6d" x="118.359375"/>
      <use xlink:href="#DejaVuSans-20" x="215.771484"/>
      <use xlink:href="#DejaVuSans-23" x="247.558594"/>
      <use xlink:href="#DejaVuSans-6d" x="331.347656"/>
      <use xlink:href="#DejaVuSans-73" x="428.759766"/>
      <use xlink:href="#DejaVuSans-67" x="480.859375"/>
     </g>
    </g>
   </g>
   <g id="line2d_63">
    <path d="M 60.3313 217 
L 60.331304 167.416364 
L 60.332914 159.598459 
L 60.334524 155.025278 
L 60.336134 151.780554 
L 60.337745 149.263751 
L 60.339355 147.207373 
L 60.340965 145.468731 
L 60.342575 143.96265 
L 60.344186 142.634192 
L 60.345796 141.445847 
L 60.347406 140.370857 
L 60.349017 139.389469 
L 60.350627 138.486679 
L 60.352237 137.650826 
L 60.353847 136.872666 
L 60.355458 136.144745 
L 60.357068 135.460969 
L 60.358678 134.816288 
L 60.360289 134.206472 
L 60.361899 133.627942 
L 60.363509 133.077645 
L 60.365119 132.552953 
L 60.36673 132.051588 
L 60.36834 131.571564 
L 60.36995 131.111139 
L 60.37156 130.668774 
L 60.373171 130.243107 
L 60.374781 129.832922 
L 60.376391 129.437132 
L 60.378002 129.054761 
L 60.379612 128.68493 
L 60.381222 128.326841 
L 60.382832 127.979772 
L 60.384443 127.643065 
L 60.386053 127.316118 
L 60.387663 126.998383 
L 60.389273 126.689354 
L 60.390884 126.388567 
L 60.392494 126.095593 
L 60.394104 125.810038 
L 60.395715 125.531533 
L 60.397325 125.259741 
L 60.398935 124.994344 
L 60.400545 124.735048 
L 60.402156 124.48158 
L 60.403766 124.233683 
L 60.405376 123.991118 
L 60.406986 123.75366 
L 60.408597 123.521098 
L 60.410207 123.293234 
L 60.411817 123.069884 
L 60.413428 122.85087 
L 60.415038 122.636028 
L 60.416648 122.425202 
L 60.418258 122.218245 
L 60.419869 122.015017 
L 60.421479 121.815386 
L 60.423089 121.619227 
L 60.4247 121.426422 
L 60.42631 121.236857 
L 60.42792 121.050425 
L 60.42953 120.867025 
L 60.431141 120.68656 
L 60.432751 120.508936 
L 60.434361 120.334067 
L 60.435971 120.161867 
L 60.437582 119.992257 
L 60.439192 119.82516 
L 60.440802 119.660502 
L 60.442413 119.498214 
L 60.444023 119.338227 
L 60.445633 119.180479 
L 60.447243 119.024906 
L 60.448854 118.87145 
L 60.450464 118.720053 
L 60.452074 118.570662 
L 60.453684 118.423224 
L 60.455295 118.277689 
L 60.456905 118.134007 
L 60.458515 117.992133 
L 60.460126 117.852021 
L 60.461736 117.713629 
L 60.463346 117.576914 
L 60.464956 117.441836 
L 60.466567 117.308357 
L 60.468177 117.176439 
L 60.469787 117.046046 
L 60.471398 116.917144 
L 60.473008 116.789698 
L 60.474618 116.663676 
L 60.476228 116.539046 
L 60.477839 116.415779 
L 60.479449 116.293844 
L 60.481059 116.173213 
L 60.482669 116.053859 
L 60.48428 115.935755 
L 60.48589 115.818875 
L 60.4875 115.703193 
L 60.489111 115.588686 
" clip-path="url(#pb87917c8cd)" style="fill: none; stroke-dasharray: 5.55,2.4; stroke-dashoffset: 0; stroke: #1f77b4; stroke-width: 1.5"/>
   </g>
   <g id="line2d_64">
    <path d="M 60.329693 123.470006 
L 60.669144 105.477932 
L 61.17832 97.156959 
L 61.857222 90.46147 
L 62.366398 87.275454 
L 63.554475 82.374407 
L 64.233377 80.255867 
L 65.59118 76.81675 
L 66.439807 75.161231 
L 67.79761 72.781907 
L 69.494863 70.459473 
L 71.192117 68.452445 
L 73.059096 66.592506 
L 75.265526 64.729227 
L 77.641681 63.01667 
L 80.357287 61.332678 
L 83.412344 59.697619 
L 86.976576 58.048562 
L 91.049985 56.418557 
L 95.63257 54.831355 
L 100.894057 53.244779 
L 106.834445 51.688287 
L 113.793185 50.100355 
L 121.600552 48.550474 
L 130.595997 46.99448 
L 140.949244 45.434731 
L 152.660295 43.898031 
L 166.238324 42.342727 
L 181.853058 40.784709 
L 199.674222 39.235872 
L 220.041267 37.692723 
L 243.463368 36.144724 
L 264.169863 34.943636 
L 264.169863 34.943636 
" clip-path="url(#pb87917c8cd)" style="fill: none; stroke: #ff7f0e; stroke-width: 1.5; stroke-linecap: square"/>
   </g>
   <g id="line2d_65">
    <path d="M 60.329693 125.560247 
L 60.669144 106.035336 
L 61.17832 97.472953 
L 61.857222 90.600789 
L 62.366398 87.40004 
L 63.724201 81.840156 
L 64.403102 79.841064 
L 65.93063 76.156383 
L 66.609532 74.861628 
L 67.627884 73.055635 
L 69.155413 70.908052 
L 70.852666 68.829713 
L 72.889371 66.755194 
L 74.75635 65.136289 
L 76.96278 63.482035 
L 79.848111 61.632171 
L 83.072893 59.86965 
L 86.637126 58.197483 
L 90.540809 56.612714 
L 94.783943 55.10953 
L 100.04543 53.487569 
L 106.155543 51.855882 
L 112.944558 50.282637 
L 120.5822 48.741295 
L 129.238194 47.216455 
L 139.591441 45.628106 
L 151.472217 44.044986 
L 164.541071 42.525809 
L 180.155805 40.944195 
L 197.807243 39.388916 
L 219.701816 37.71681 
L 242.784466 36.18709 
L 264.169863 34.943636 
L 264.169863 34.943636 
" clip-path="url(#pb87917c8cd)" style="fill: none; stroke: #2ca02c; stroke-width: 1.5; stroke-linecap: square"/>
   </g>
   <g id="line2d_66">
    <path d="M 60.329693 125.618536 
L 60.669144 106.169979 
L 61.17832 97.53093 
L 61.857222 90.600789 
L 62.366398 87.40004 
L 63.724201 81.841964 
L 64.403102 79.841064 
L 65.93063 76.157475 
L 66.609532 74.8639 
L 67.627884 73.055635 
L 69.155413 70.908052 
L 70.852666 68.829713 
L 72.889371 66.755194 
L 74.75635 65.136289 
L 76.96278 63.482035 
L 79.848111 61.632171 
L 83.072893 59.86965 
L 86.637126 58.199705 
L 90.371084 56.678679 
L 94.783943 55.110036 
L 101.403233 53.104526 
L 107.343621 51.564246 
L 122.109728 48.45715 
L 131.274898 46.885829 
L 142.476773 45.223214 
L 154.187823 43.712006 
L 167.935578 42.162676 
L 183.380587 40.643775 
L 201.032025 39.126924 
L 221.39907 37.59704 
L 243.972544 36.113853 
L 264.169863 34.943636 
L 264.169863 34.943636 
" clip-path="url(#pb87917c8cd)" style="fill: none; stroke: #d62728; stroke-width: 1.5; stroke-linecap: square"/>
   </g>
   <g id="line2d_67">
    <path d="M 60.329693 126.187842 
L 60.669144 105.978852 
L 61.17832 97.393719 
L 61.857222 90.591622 
L 62.366398 87.373438 
L 63.554475 82.437761 
L 64.233377 80.308347 
L 65.59118 76.855413 
L 66.439807 75.194608 
L 67.79761 72.808929 
L 69.494863 70.481461 
L 71.192117 68.470846 
L 73.059096 66.608107 
L 75.265526 64.742451 
L 77.641681 63.02803 
L 80.357287 61.342463 
L 83.412344 59.706082 
L 86.976576 58.055873 
L 91.049985 56.424885 
L 95.63257 54.836852 
L 100.894057 53.249554 
L 106.834445 51.692446 
L 113.793185 50.103968 
L 121.600552 48.553623 
L 130.595997 46.997223 
L 140.949244 45.43712 
L 152.660295 43.900116 
L 166.238324 42.344543 
L 181.853058 40.786291 
L 199.674222 39.237251 
L 220.041267 37.693926 
L 243.463368 36.145772 
L 264.169863 34.944579 
L 264.169863 34.944579 
" clip-path="url(#pb87917c8cd)" style="fill: none; stroke: #9467bd; stroke-width: 1.5; stroke-linecap: square"/>
   </g>
   <g id="patch_3">
    <path d="M 50.137685 174.04 
L 50.137685 28.32 
" style="fill: none; stroke: #000000; stroke-width: 0.8; stroke-linejoin: miter; stroke-linecap: square"/>
   </g>
   <g id="patch_4">
    <path d="M 274.361872 174.04 
L 274.361872 28.32 
" style="fill: none; stroke: #000000; stroke-width: 0.8; stroke-linejoin: miter; stroke-linecap: square"/>
   </g>
   <g id="patch_5">
    <path d="M 50.137685 174.04 
L 274.361872 174.04 
" style="fill: none; stroke: #000000; stroke-width: 0.8; stroke-linejoin: miter; stroke-linecap: square"/>
   </g>
   <g id="patch_6">
    <path d="M 50.137685 28.32 
L 274.361872 28.32 
" style="fill: none; stroke: #000000; stroke-width: 0.8; stroke-linejoin: miter; stroke-linecap: square"/>
   </g>
   <g id="text_14">
    <!-- $dev=100,f=1,msg/s=100,d=12000$ -->
    <g transform="translate(42.849778 22.32) scale(0.12 -0.12)">
     <defs>
      <path id="DejaVuSans-Oblique-64" d="M 2675 525 
Q 2444 222 2128 65 
Q 1813 -91 1428 -91 
Q 903 -91 598 267 
Q 294 625 294 1247 
Q 294 1766 478 2236 
Q 663 2706 1013 3078 
Q 1244 3325 1534 3454 
Q 1825 3584 2144 3584 
Q 2481 3584 2739 3421 
Q 2997 3259 3138 2956 
L 3513 4863 
L 4091 4863 
L 3144 0 
L 2566 0 
L 2675 525 
z
M 891 1350 
Q 891 897 1095 644 
Q 1300 391 1663 391 
Q 1931 391 2161 520 
Q 2391 650 2566 903 
Q 2750 1166 2856 1509 
Q 2963 1853 2963 2188 
Q 2963 2622 2758 2865 
Q 2553 3109 2194 3109 
Q 1922 3109 1687 2981 
Q 1453 2853 1288 2613 
Q 1106 2353 998 2009 
Q 891 1666 891 1350 
z
" transform="scale(0.015625)"/>
      <path id="DejaVuSans-Oblique-65" d="M 3078 2063 
Q 3088 2113 3092 2166 
Q 3097 2219 3097 2272 
Q 3097 2653 2873 2875 
Q 2650 3097 2266 3097 
Q 1838 3097 1509 2826 
Q 1181 2556 1013 2059 
L 3078 2063 
z
M 3578 1613 
L 903 1613 
Q 884 1494 878 1425 
Q 872 1356 872 1306 
Q 872 872 1139 634 
Q 1406 397 1894 397 
Q 2269 397 2603 481 
Q 2938 566 3225 728 
L 3116 159 
Q 2806 34 2476 -28 
Q 2147 -91 1806 -91 
Q 1078 -91 686 257 
Q 294 606 294 1247 
Q 294 1794 489 2264 
Q 684 2734 1063 3103 
Q 1306 3334 1642 3459 
Q 1978 3584 2356 3584 
Q 2950 3584 3301 3228 
Q 3653 2872 3653 2272 
Q 3653 2128 3634 1964 
Q 3616 1800 3578 1613 
z
" transform="scale(0.015625)"/>
      <path id="DejaVuSans-Oblique-76" d="M 459 3500 
L 1069 3500 
L 1581 525 
L 3256 3500 
L 3866 3500 
L 1875 0 
L 1100 0 
L 459 3500 
z
" transform="scale(0.015625)"/>
      <path id="DejaVuSans-3d" d="M 678 2906 
L 4684 2906 
L 4684 2381 
L 678 2381 
L 678 2906 
z
M 678 1631 
L 4684 1631 
L 4684 1100 
L 678 1100 
L 678 1631 
z
" transform="scale(0.015625)"/>
      <path id="DejaVuSans-2c" d="M 750 794 
L 1409 794 
L 1409 256 
L 897 -744 
L 494 -744 
L 750 256 
L 750 794 
z
" transform="scale(0.015625)"/>
      <path id="DejaVuSans-Oblique-66" d="M 3059 4863 
L 2969 4384 
L 2419 4384 
Q 2106 4384 1964 4261 
Q 1822 4138 1753 3809 
L 1691 3500 
L 2638 3500 
L 2553 3053 
L 1606 3053 
L 1013 0 
L 434 0 
L 1031 3053 
L 481 3053 
L 563 3500 
L 1113 3500 
L 1159 3744 
Q 1278 4363 1576 4613 
Q 1875 4863 2516 4863 
L 3059 4863 
z
" transform="scale(0.015625)"/>
      <path id="DejaVuSans-Oblique-6d" d="M 5747 2113 
L 5338 0 
L 4763 0 
L 5166 2094 
Q 5191 2228 5203 2325 
Q 5216 2422 5216 2491 
Q 5216 2772 5059 2928 
Q 4903 3084 4622 3084 
Q 4203 3084 3875 2770 
Q 3547 2456 3450 1953 
L 3066 0 
L 2491 0 
L 2900 2094 
Q 2925 2209 2937 2307 
Q 2950 2406 2950 2484 
Q 2950 2769 2794 2926 
Q 2638 3084 2363 3084 
Q 1938 3084 1609 2770 
Q 1281 2456 1184 1953 
L 800 0 
L 225 0 
L 909 3500 
L 1484 3500 
L 1375 2956 
Q 1609 3263 1923 3423 
Q 2238 3584 2597 3584 
Q 2978 3584 3223 3384 
Q 3469 3184 3519 2828 
Q 3781 3197 4126 3390 
Q 4472 3584 4856 3584 
Q 5306 3584 5551 3325 
Q 5797 3066 5797 2591 
Q 5797 2488 5784 2364 
Q 5772 2241 5747 2113 
z
" transform="scale(0.015625)"/>
      <path id="DejaVuSans-Oblique-73" d="M 3200 3397 
L 3091 2853 
Q 2863 2978 2609 3040 
Q 2356 3103 2088 3103 
Q 1634 3103 1373 2948 
Q 1113 2794 1113 2528 
Q 1113 2219 1719 2053 
Q 1766 2041 1788 2034 
L 1972 1978 
Q 2547 1819 2739 1644 
Q 2931 1469 2931 1166 
Q 2931 609 2489 259 
Q 2047 -91 1331 -91 
Q 1053 -91 747 -37 
Q 441 16 72 128 
L 184 722 
Q 500 559 806 475 
Q 1113 391 1394 391 
Q 1816 391 2080 572 
Q 2344 753 2344 1031 
Q 2344 1331 1650 1516 
L 1591 1531 
L 1394 1581 
Q 956 1697 753 1886 
Q 550 2075 550 2369 
Q 550 2928 970 3256 
Q 1391 3584 2113 3584 
Q 2397 3584 2667 3537 
Q 2938 3491 3200 3397 
z
" transform="scale(0.015625)"/>
      <path id="DejaVuSans-Oblique-67" d="M 3816 3500 
L 3219 434 
Q 3047 -456 2561 -893 
Q 2075 -1331 1253 -1331 
Q 950 -1331 690 -1286 
Q 431 -1241 206 -1147 
L 313 -588 
Q 525 -725 762 -790 
Q 1000 -856 1269 -856 
Q 1816 -856 2167 -557 
Q 2519 -259 2631 300 
L 2681 563 
Q 2441 288 2122 144 
Q 1803 0 1434 0 
Q 903 0 598 351 
Q 294 703 294 1319 
Q 294 1803 478 2267 
Q 663 2731 997 3091 
Q 1219 3328 1514 3456 
Q 1809 3584 2131 3584 
Q 2484 3584 2746 3420 
Q 3009 3256 3138 2956 
L 3238 3500 
L 3816 3500 
z
M 2950 2216 
Q 2950 2641 2750 2872 
Q 2550 3103 2181 3103 
Q 1953 3103 1747 3012 
Q 1541 2922 1394 2759 
Q 1156 2491 1023 2127 
Q 891 1763 891 1375 
Q 891 944 1092 712 
Q 1294 481 1672 481 
Q 2219 481 2584 976 
Q 2950 1472 2950 2216 
z
" transform="scale(0.015625)"/>
      <path id="DejaVuSans-2f" d="M 1625 4666 
L 2156 4666 
L 531 -594 
L 0 -594 
L 1625 4666 
z
" transform="scale(0.015625)"/>
     </defs>
     <use xlink:href="#DejaVuSans-Oblique-64" transform="translate(0 0.015625)"/>
     <use xlink:href="#DejaVuSans-Oblique-65" transform="translate(63.476562 0.015625)"/>
     <use xlink:href="#DejaVuSans-Oblique-76" transform="translate(125 0.015625)"/>
     <use xlink:href="#DejaVuSans-3d" transform="translate(203.662109 0.015625)"/>
     <use xlink:href="#DejaVuSans-31" transform="translate(306.933594 0.015625)"/>
     <use xlink:href="#DejaVuSans-30" transform="translate(370.556641 0.015625)"/>
     <use xlink:href="#DejaVuSans-30" transform="translate(434.179688 0.015625)"/>
     <use xlink:href="#DejaVuSans-2c" transform="translate(497.802734 0.015625)"/>
     <use xlink:href="#DejaVuSans-Oblique-66" transform="translate(549.072266 0.015625)"/>
     <use xlink:href="#DejaVuSans-3d" transform="translate(603.759766 0.015625)"/>
     <use xlink:href="#DejaVuSans-31" transform="translate(707.03125 0.015625)"/>
     <use xlink:href="#DejaVuSans-2c" transform="translate(770.654297 0.015625)"/>
     <use xlink:href="#DejaVuSans-Oblique-6d" transform="translate(821.923828 0.015625)"/>
     <use xlink:href="#DejaVuSans-Oblique-73" transform="translate(919.335938 0.015625)"/>
     <use xlink:href="#DejaVuSans-Oblique-67" transform="translate(971.435547 0.015625)"/>
     <use xlink:href="#DejaVuSans-2f" transform="translate(1034.912109 0.015625)"/>
     <use xlink:href="#DejaVuSans-Oblique-73" transform="translate(1068.603516 0.015625)"/>
     <use xlink:href="#DejaVuSans-3d" transform="translate(1140.185547 0.015625)"/>
     <use xlink:href="#DejaVuSans-31" transform="translate(1243.457031 0.015625)"/>
     <use xlink:href="#DejaVuSans-30" transform="translate(1307.080078 0.015625)"/>
     <use xlink:href="#DejaVuSans-30" transform="translate(1370.703125 0.015625)"/>
     <use xlink:href="#DejaVuSans-2c" transform="translate(1434.326172 0.015625)"/>
     <use xlink:href="#DejaVuSans-Oblique-64" transform="translate(1485.595703 0.015625)"/>
     <use xlink:href="#DejaVuSans-3d" transform="translate(1568.554688 0.015625)"/>
     <use xlink:href="#DejaVuSans-31" transform="translate(1671.826172 0.015625)"/>
     <use xlink:href="#DejaVuSans-32" transform="translate(1735.449219 0.015625)"/>
     <use xlink:href="#DejaVuSans-30" transform="translate(1799.072266 0.015625)"/>
     <use xlink:href="#DejaVuSans-30" transform="translate(1862.695312 0.015625)"/>
     <use xlink:href="#DejaVuSans-30" transform="translate(1926.318359 0.015625)"/>
    </g>
   </g>
   <g id="legend_1">
    <g id="patch_7">
     <path d="M 191.004059 169.04 
L 267.361872 169.04 
Q 269.361872 169.04 269.361872 167.04 
L 269.361872 94.649375 
Q 269.361872 92.649375 267.361872 92.649375 
L 191.004059 92.649375 
Q 189.004059 92.649375 189.004059 94.649375 
L 189.004059 167.04 
Q 189.004059 169.04 191.004059 169.04 
z
" style="fill: #ffffff; opacity: 0.8; stroke: #cccccc; stroke-linejoin: miter"/>
    </g>
    <g id="line2d_68">
     <path d="M 193.004059 100.747813 
L 203.004059 100.747813 
L 213.004059 100.747813 
" style="fill: none; stroke-dasharray: 5.55,2.4; stroke-dashoffset: 0; stroke: #1f77b4; stroke-width: 1.5"/>
    </g>
    <g id="text_15">
     <!-- Optimal -->
     <g transform="translate(221.004059 104.247813) scale(0.1 -0.1)">
      <defs>
       <path id="DejaVuSans-4f" d="M 2522 4238 
Q 1834 4238 1429 3725 
Q 1025 3213 1025 2328 
Q 1025 1447 1429 934 
Q 1834 422 2522 422 
Q 3209 422 3611 934 
Q 4013 1447 4013 2328 
Q 4013 3213 3611 3725 
Q 3209 4238 2522 4238 
z
M 2522 4750 
Q 3503 4750 4090 4092 
Q 4678 3434 4678 2328 
Q 4678 1225 4090 567 
Q 3503 -91 2522 -91 
Q 1538 -91 948 565 
Q 359 1222 359 2328 
Q 359 3434 948 4092 
Q 1538 4750 2522 4750 
z
" transform="scale(0.015625)"/>
       <path id="DejaVuSans-70" d="M 1159 525 
L 1159 -1331 
L 581 -1331 
L 581 3500 
L 1159 3500 
L 1159 2969 
Q 1341 3281 1617 3432 
Q 1894 3584 2278 3584 
Q 2916 3584 3314 3078 
Q 3713 2572 3713 1747 
Q 3713 922 3314 415 
Q 2916 -91 2278 -91 
Q 1894 -91 1617 61 
Q 1341 213 1159 525 
z
M 3116 1747 
Q 3116 2381 2855 2742 
Q 2594 3103 2138 3103 
Q 1681 3103 1420 2742 
Q 1159 2381 1159 1747 
Q 1159 1113 1420 752 
Q 1681 391 2138 391 
Q 2594 391 2855 752 
Q 3116 1113 3116 1747 
z
" transform="scale(0.015625)"/>
       <path id="DejaVuSans-74" d="M 1172 4494 
L 1172 3500 
L 2356 3500 
L 2356 3053 
L 1172 3053 
L 1172 1153 
Q 1172 725 1289 603 
Q 1406 481 1766 481 
L 2356 481 
L 2356 0 
L 1766 0 
Q 1100 0 847 248 
Q 594 497 594 1153 
L 594 3053 
L 172 3053 
L 172 3500 
L 594 3500 
L 594 4494 
L 1172 4494 
z
" transform="scale(0.015625)"/>
       <path id="DejaVuSans-61" d="M 2194 1759 
Q 1497 1759 1228 1600 
Q 959 1441 959 1056 
Q 959 750 1161 570 
Q 1363 391 1709 391 
Q 2188 391 2477 730 
Q 2766 1069 2766 1631 
L 2766 1759 
L 2194 1759 
z
M 3341 1997 
L 3341 0 
L 2766 0 
L 2766 531 
Q 2569 213 2275 61 
Q 1981 -91 1556 -91 
Q 1019 -91 701 211 
Q 384 513 384 1019 
Q 384 1609 779 1909 
Q 1175 2209 1959 2209 
L 2766 2209 
L 2766 2266 
Q 2766 2663 2505 2880 
Q 2244 3097 1772 3097 
Q 1472 3097 1187 3025 
Q 903 2953 641 2809 
L 641 3341 
Q 956 3463 1253 3523 
Q 1550 3584 1831 3584 
Q 2591 3584 2966 3190 
Q 3341 2797 3341 1997 
z
" transform="scale(0.015625)"/>
       <path id="DejaVuSans-6c" d="M 603 4863 
L 1178 4863 
L 1178 0 
L 603 0 
L 603 4863 
z
" transform="scale(0.015625)"/>
      </defs>
      <use xlink:href="#DejaVuSans-4f"/>
      <use xlink:href="#DejaVuSans-70" x="78.710938"/>
      <use xlink:href="#DejaVuSans-74" x="142.1875"/>
      <use xlink:href="#DejaVuSans-69" x="181.396484"/>
      <use xlink:href="#DejaVuSans-6d" x="209.179688"/>
      <use xlink:href="#DejaVuSans-61" x="306.591797"/>
      <use xlink:href="#DejaVuSans-6c" x="367.871094"/>
     </g>
    </g>
    <g id="line2d_69">
     <path d="M 193.004059 115.425938 
L 203.004059 115.425938 
L 213.004059 115.425938 
" style="fill: none; stroke: #ff7f0e; stroke-width: 1.5; stroke-linecap: square"/>
    </g>
    <g id="text_16">
     <!-- Device -->
     <g transform="translate(221.004059 118.925938) scale(0.1 -0.1)">
      <defs>
       <path id="DejaVuSans-44" d="M 1259 4147 
L 1259 519 
L 2022 519 
Q 2988 519 3436 956 
Q 3884 1394 3884 2338 
Q 3884 3275 3436 3711 
Q 2988 4147 2022 4147 
L 1259 4147 
z
M 628 4666 
L 1925 4666 
Q 3281 4666 3915 4102 
Q 4550 3538 4550 2338 
Q 4550 1131 3912 565 
Q 3275 0 1925 0 
L 628 0 
L 628 4666 
z
" transform="scale(0.015625)"/>
       <path id="DejaVuSans-76" d="M 191 3500 
L 800 3500 
L 1894 563 
L 2988 3500 
L 3597 3500 
L 2284 0 
L 1503 0 
L 191 3500 
z
" transform="scale(0.015625)"/>
      </defs>
      <use xlink:href="#DejaVuSans-44"/>
      <use xlink:href="#DejaVuSans-65" x="77.001953"/>
      <use xlink:href="#DejaVuSans-76" x="138.525391"/>
      <use xlink:href="#DejaVuSans-69" x="197.705078"/>
      <use xlink:href="#DejaVuSans-63" x="225.488281"/>
      <use xlink:href="#DejaVuSans-65" x="280.46875"/>
     </g>
    </g>
    <g id="line2d_70">
     <path d="M 193.004059 130.104062 
L 203.004059 130.104062 
L 213.004059 130.104062 
" style="fill: none; stroke: #2ca02c; stroke-width: 1.5; stroke-linecap: square"/>
    </g>
    <g id="text_17">
     <!-- OCB-Sub -->
     <g transform="translate(221.004059 133.604062) scale(0.1 -0.1)">
      <defs>
       <path id="DejaVuSans-43" d="M 4122 4306 
L 4122 3641 
Q 3803 3938 3442 4084 
Q 3081 4231 2675 4231 
Q 1875 4231 1450 3742 
Q 1025 3253 1025 2328 
Q 1025 1406 1450 917 
Q 1875 428 2675 428 
Q 3081 428 3442 575 
Q 3803 722 4122 1019 
L 4122 359 
Q 3791 134 3420 21 
Q 3050 -91 2638 -91 
Q 1578 -91 968 557 
Q 359 1206 359 2328 
Q 359 3453 968 4101 
Q 1578 4750 2638 4750 
Q 3056 4750 3426 4639 
Q 3797 4528 4122 4306 
z
" transform="scale(0.015625)"/>
       <path id="DejaVuSans-42" d="M 1259 2228 
L 1259 519 
L 2272 519 
Q 2781 519 3026 730 
Q 3272 941 3272 1375 
Q 3272 1813 3026 2020 
Q 2781 2228 2272 2228 
L 1259 2228 
z
M 1259 4147 
L 1259 2741 
L 2194 2741 
Q 2656 2741 2882 2914 
Q 3109 3088 3109 3444 
Q 3109 3797 2882 3972 
Q 2656 4147 2194 4147 
L 1259 4147 
z
M 628 4666 
L 2241 4666 
Q 2963 4666 3353 4366 
Q 3744 4066 3744 3513 
Q 3744 3084 3544 2831 
Q 3344 2578 2956 2516 
Q 3422 2416 3680 2098 
Q 3938 1781 3938 1306 
Q 3938 681 3513 340 
Q 3088 0 2303 0 
L 628 0 
L 628 4666 
z
" transform="scale(0.015625)"/>
       <path id="DejaVuSans-2d" d="M 313 2009 
L 1997 2009 
L 1997 1497 
L 313 1497 
L 313 2009 
z
" transform="scale(0.015625)"/>
       <path id="DejaVuSans-53" d="M 3425 4513 
L 3425 3897 
Q 3066 4069 2747 4153 
Q 2428 4238 2131 4238 
Q 1616 4238 1336 4038 
Q 1056 3838 1056 3469 
Q 1056 3159 1242 3001 
Q 1428 2844 1947 2747 
L 2328 2669 
Q 3034 2534 3370 2195 
Q 3706 1856 3706 1288 
Q 3706 609 3251 259 
Q 2797 -91 1919 -91 
Q 1588 -91 1214 -16 
Q 841 59 441 206 
L 441 856 
Q 825 641 1194 531 
Q 1563 422 1919 422 
Q 2459 422 2753 634 
Q 3047 847 3047 1241 
Q 3047 1584 2836 1778 
Q 2625 1972 2144 2069 
L 1759 2144 
Q 1053 2284 737 2584 
Q 422 2884 422 3419 
Q 422 4038 858 4394 
Q 1294 4750 2059 4750 
Q 2388 4750 2728 4690 
Q 3069 4631 3425 4513 
z
" transform="scale(0.015625)"/>
       <path id="DejaVuSans-62" d="M 3116 1747 
Q 3116 2381 2855 2742 
Q 2594 3103 2138 3103 
Q 1681 3103 1420 2742 
Q 1159 2381 1159 1747 
Q 1159 1113 1420 752 
Q 1681 391 2138 391 
Q 2594 391 2855 752 
Q 3116 1113 3116 1747 
z
M 1159 2969 
Q 1341 3281 1617 3432 
Q 1894 3584 2278 3584 
Q 2916 3584 3314 3078 
Q 3713 2572 3713 1747 
Q 3713 922 3314 415 
Q 2916 -91 2278 -91 
Q 1894 -91 1617 61 
Q 1341 213 1159 525 
L 1159 0 
L 581 0 
L 581 4863 
L 1159 4863 
L 1159 2969 
z
" transform="scale(0.015625)"/>
      </defs>
      <use xlink:href="#DejaVuSans-4f"/>
      <use xlink:href="#DejaVuSans-43" x="78.710938"/>
      <use xlink:href="#DejaVuSans-42" x="148.535156"/>
      <use xlink:href="#DejaVuSans-2d" x="217.138672"/>
      <use xlink:href="#DejaVuSans-53" x="253.222656"/>
      <use xlink:href="#DejaVuSans-75" x="316.699219"/>
      <use xlink:href="#DejaVuSans-62" x="380.078125"/>
     </g>
    </g>
    <g id="line2d_71">
     <path d="M 193.004059 144.782188 
L 203.004059 144.782188 
L 213.004059 144.782188 
" style="fill: none; stroke: #d62728; stroke-width: 1.5; stroke-linecap: square"/>
    </g>
    <g id="text_18">
     <!-- Kafka -->
     <g transform="translate(221.004059 148.282188) scale(0.1 -0.1)">
      <defs>
       <path id="DejaVuSans-4b" d="M 628 4666 
L 1259 4666 
L 1259 2694 
L 3353 4666 
L 4166 4666 
L 1850 2491 
L 4331 0 
L 3500 0 
L 1259 2247 
L 1259 0 
L 628 0 
L 628 4666 
z
" transform="scale(0.015625)"/>
       <path id="DejaVuSans-66" d="M 2375 4863 
L 2375 4384 
L 1825 4384 
Q 1516 4384 1395 4259 
Q 1275 4134 1275 3809 
L 1275 3500 
L 2222 3500 
L 2222 3053 
L 1275 3053 
L 1275 0 
L 697 0 
L 697 3053 
L 147 3053 
L 147 3500 
L 697 3500 
L 697 3744 
Q 697 4328 969 4595 
Q 1241 4863 1831 4863 
L 2375 4863 
z
" transform="scale(0.015625)"/>
       <path id="DejaVuSans-6b" d="M 581 4863 
L 1159 4863 
L 1159 1991 
L 2875 3500 
L 3609 3500 
L 1753 1863 
L 3688 0 
L 2938 0 
L 1159 1709 
L 1159 0 
L 581 0 
L 581 4863 
z
" transform="scale(0.015625)"/>
      </defs>
      <use xlink:href="#DejaVuSans-4b"/>
      <use xlink:href="#DejaVuSans-61" x="63.826172"/>
      <use xlink:href="#DejaVuSans-66" x="125.105469"/>
      <use xlink:href="#DejaVuSans-6b" x="160.310547"/>
      <use xlink:href="#DejaVuSans-61" x="216.470703"/>
     </g>
    </g>
    <g id="line2d_72">
     <path d="M 193.004059 159.460313 
L 203.004059 159.460313 
L 213.004059 159.460313 
" style="fill: none; stroke: #9467bd; stroke-width: 1.5; stroke-linecap: square"/>
    </g>
    <g id="text_19">
     <!-- IoTA -->
     <g transform="translate(221.004059 162.960313) scale(0.1 -0.1)">
      <defs>
       <path id="DejaVuSans-49" d="M 628 4666 
L 1259 4666 
L 1259 0 
L 628 0 
L 628 4666 
z
" transform="scale(0.015625)"/>
       <path id="DejaVuSans-6f" d="M 1959 3097 
Q 1497 3097 1228 2736 
Q 959 2375 959 1747 
Q 959 1119 1226 758 
Q 1494 397 1959 397 
Q 2419 397 2687 759 
Q 2956 1122 2956 1747 
Q 2956 2369 2687 2733 
Q 2419 3097 1959 3097 
z
M 1959 3584 
Q 2709 3584 3137 3096 
Q 3566 2609 3566 1747 
Q 3566 888 3137 398 
Q 2709 -91 1959 -91 
Q 1206 -91 779 398 
Q 353 888 353 1747 
Q 353 2609 779 3096 
Q 1206 3584 1959 3584 
z
" transform="scale(0.015625)"/>
       <path id="DejaVuSans-41" d="M 2188 4044 
L 1331 1722 
L 3047 1722 
L 2188 4044 
z
M 1831 4666 
L 2547 4666 
L 4325 0 
L 3669 0 
L 3244 1197 
L 1141 1197 
L 716 0 
L 50 0 
L 1831 4666 
z
" transform="scale(0.015625)"/>
      </defs>
      <use xlink:href="#DejaVuSans-49"/>
      <use xlink:href="#DejaVuSans-6f" x="29.492188"/>
      <use xlink:href="#DejaVuSans-54" x="90.673828"/>
      <use xlink:href="#DejaVuSans-41" x="144.007812"/>
     </g>
    </g>
   </g>
  </g>
  <g id="axes_2">
   <g id="patch_8">
    <path d="M 334.537685 174.04 
L 558.761872 174.04 
L 558.761872 28.32 
L 334.537685 28.32 
z
" style="fill: #ffffff"/>
   </g>
   <g id="matplotlib.axis_3">
    <g id="xtick_6">
     <g id="line2d_73">
      <g>
       <use xlink:href="#mf244755234" x="344.729693" y="174.04" style="stroke: #000000; stroke-width: 0.8"/>
      </g>
     </g>
     <g id="text_20">
      <!-- 0 -->
      <g transform="translate(341.548443 188.638438) scale(0.1 -0.1)">
       <use xlink:href="#DejaVuSans-30"/>
      </g>
     </g>
    </g>
    <g id="xtick_7">
     <g id="line2d_74">
      <g>
       <use xlink:href="#mf244755234" x="395.689736" y="174.04" style="stroke: #000000; stroke-width: 0.8"/>
      </g>
     </g>
     <g id="text_21">
      <!-- 43230 -->
      <g transform="translate(379.783486 188.638438) scale(0.1 -0.1)">
       <use xlink:href="#DejaVuSans-34"/>
       <use xlink:href="#DejaVuSans-33" x="63.623047"/>
       <use xlink:href="#DejaVuSans-32" x="127.246094"/>
       <use xlink:href="#DejaVuSans-33" x="190.869141"/>
       <use xlink:href="#DejaVuSans-30" x="254.492188"/>
      </g>
     </g>
    </g>
    <g id="xtick_8">
     <g id="line2d_75">
      <g>
       <use xlink:href="#mf244755234" x="446.649778" y="174.04" style="stroke: #000000; stroke-width: 0.8"/>
      </g>
     </g>
     <g id="text_22">
      <!-- 86460 -->
      <g transform="translate(430.743528 188.638438) scale(0.1 -0.1)">
       <use xlink:href="#DejaVuSans-38"/>
       <use xlink:href="#DejaVuSans-36" x="63.623047"/>
       <use xlink:href="#DejaVuSans-34" x="127.246094"/>
       <use xlink:href="#DejaVuSans-36" x="190.869141"/>
       <use xlink:href="#DejaVuSans-30" x="254.492188"/>
      </g>
     </g>
    </g>
    <g id="xtick_9">
     <g id="line2d_76">
      <g>
       <use xlink:href="#mf244755234" x="497.609821" y="174.04" style="stroke: #000000; stroke-width: 0.8"/>
      </g>
     </g>
     <g id="text_23">
      <!-- 129690 -->
      <g transform="translate(478.522321 188.638438) scale(0.1 -0.1)">
       <use xlink:href="#DejaVuSans-31"/>
       <use xlink:href="#DejaVuSans-32" x="63.623047"/>
       <use xlink:href="#DejaVuSans-39" x="127.246094"/>
       <use xlink:href="#DejaVuSans-36" x="190.869141"/>
       <use xlink:href="#DejaVuSans-39" x="254.492188"/>
       <use xlink:href="#DejaVuSans-30" x="318.115234"/>
      </g>
     </g>
    </g>
    <g id="xtick_10">
     <g id="line2d_77">
      <g>
       <use xlink:href="#mf244755234" x="548.569863" y="174.04" style="stroke: #000000; stroke-width: 0.8"/>
      </g>
     </g>
     <g id="text_24">
      <!-- 172920 -->
      <g transform="translate(529.482363 188.638438) scale(0.1 -0.1)">
       <defs>
        <path id="DejaVuSans-37" d="M 525 4666 
L 3525 4666 
L 3525 4397 
L 1831 0 
L 1172 0 
L 2766 4134 
L 525 4134 
L 525 4666 
z
" transform="scale(0.015625)"/>
       </defs>
       <use xlink:href="#DejaVuSans-31"/>
       <use xlink:href="#DejaVuSans-37" x="63.623047"/>
       <use xlink:href="#DejaVuSans-32" x="127.246094"/>
       <use xlink:href="#DejaVuSans-39" x="190.869141"/>
       <use xlink:href="#DejaVuSans-32" x="254.492188"/>
       <use xlink:href="#DejaVuSans-30" x="318.115234"/>
      </g>
     </g>
    </g>
    <g id="text_25">
     <!-- Time (s) -->
     <g transform="translate(426.320872 202.316563) scale(0.1 -0.1)">
      <use xlink:href="#DejaVuSans-54"/>
      <use xlink:href="#DejaVuSans-69" x="57.958984"/>
      <use xlink:href="#DejaVuSans-6d" x="85.742188"/>
      <use xlink:href="#DejaVuSans-65" x="183.154297"/>
      <use xlink:href="#DejaVuSans-20" x="244.677734"/>
      <use xlink:href="#DejaVuSans-28" x="276.464844"/>
      <use xlink:href="#DejaVuSans-73" x="315.478516"/>
      <use xlink:href="#DejaVuSans-29" x="367.578125"/>
     </g>
    </g>
   </g>
   <g id="matplotlib.axis_4">
    <g id="ytick_52">
     <g id="line2d_78">
      <path d="M 334.537685 147.727797 
L 558.761872 147.727797 
" clip-path="url(#p763f91b6ff)" style="fill: none; stroke: #b0b0b0; stroke-width: 0.8; stroke-linecap: square"/>
     </g>
     <g id="line2d_79">
      <g>
       <use xlink:href="#m2c0949700d" x="334.537685" y="147.727797" style="stroke: #000000; stroke-width: 0.8"/>
      </g>
     </g>
     <g id="text_26">
      <!-- $\mathdefault{10^{2}}$ -->
      <g transform="translate(309.937685 151.527016) scale(0.1 -0.1)">
       <use xlink:href="#DejaVuSans-31" transform="translate(0 0.765625)"/>
       <use xlink:href="#DejaVuSans-30" transform="translate(63.623047 0.765625)"/>
       <use xlink:href="#DejaVuSans-32" transform="translate(128.203125 39.046875) scale(0.7)"/>
      </g>
     </g>
    </g>
    <g id="ytick_53">
     <g id="line2d_80">
      <path d="M 334.537685 104.659347 
L 558.761872 104.659347 
" clip-path="url(#p763f91b6ff)" style="fill: none; stroke: #b0b0b0; stroke-width: 0.8; stroke-linecap: square"/>
     </g>
     <g id="line2d_81">
      <g>
       <use xlink:href="#m2c0949700d" x="334.537685" y="104.659347" style="stroke: #000000; stroke-width: 0.8"/>
      </g>
     </g>
     <g id="text_27">
      <!-- $\mathdefault{10^{4}}$ -->
      <g transform="translate(309.937685 108.458566) scale(0.1 -0.1)">
       <use xlink:href="#DejaVuSans-31" transform="translate(0 0.684375)"/>
       <use xlink:href="#DejaVuSans-30" transform="translate(63.623047 0.684375)"/>
       <use xlink:href="#DejaVuSans-34" transform="translate(128.203125 38.965625) scale(0.7)"/>
      </g>
     </g>
    </g>
    <g id="ytick_54">
     <g id="line2d_82">
      <path d="M 334.537685 61.590897 
L 558.761872 61.590897 
" clip-path="url(#p763f91b6ff)" style="fill: none; stroke: #b0b0b0; stroke-width: 0.8; stroke-linecap: square"/>
     </g>
     <g id="line2d_83">
      <g>
       <use xlink:href="#m2c0949700d" x="334.537685" y="61.590897" style="stroke: #000000; stroke-width: 0.8"/>
      </g>
     </g>
     <g id="text_28">
      <!-- $\mathdefault{10^{6}}$ -->
      <g transform="translate(309.937685 65.390116) scale(0.1 -0.1)">
       <use xlink:href="#DejaVuSans-31" transform="translate(0 0.765625)"/>
       <use xlink:href="#DejaVuSans-30" transform="translate(63.623047 0.765625)"/>
       <use xlink:href="#DejaVuSans-36" transform="translate(128.203125 39.046875) scale(0.7)"/>
      </g>
     </g>
    </g>
    <g id="text_29">
     <!-- cum #msg -->
     <g transform="translate(303.857997 128.396406) rotate(-90) scale(0.1 -0.1)">
      <use xlink:href="#DejaVuSans-63"/>
      <use xlink:href="#DejaVuSans-75" x="54.980469"/>
      <use xlink:href="#DejaVuSans-6d" x="118.359375"/>
      <use xlink:href="#DejaVuSans-20" x="215.771484"/>
      <use xlink:href="#DejaVuSans-23" x="247.558594"/>
      <use xlink:href="#DejaVuSans-6d" x="331.347656"/>
      <use xlink:href="#DejaVuSans-73" x="428.759766"/>
      <use xlink:href="#DejaVuSans-67" x="480.859375"/>
     </g>
    </g>
   </g>
   <g id="line2d_84">
    <path d="M 344.729837 217 
L 344.729837 167.416364 
L 344.72998 160.933916 
L 344.730124 157.141927 
L 344.730268 154.451468 
L 344.730411 152.364586 
L 344.730555 150.65948 
L 344.730698 149.217832 
L 344.730842 147.969021 
L 344.730986 146.867491 
L 344.731129 145.882139 
L 344.731273 144.990779 
L 344.731416 144.177032 
L 344.73156 143.428457 
L 344.731704 142.735385 
L 344.731847 142.09015 
L 344.731991 141.486573 
L 344.732134 140.9196 
L 344.732278 140.385043 
L 344.732422 139.879396 
L 344.732565 139.399691 
L 344.732709 138.943396 
L 344.732852 138.508332 
L 344.732996 138.09261 
L 344.73314 137.694584 
L 344.733283 137.312809 
L 344.733427 136.946009 
L 344.73357 136.593054 
L 344.733714 136.252937 
L 344.733858 135.924756 
L 344.734001 135.607702 
L 344.734145 135.301045 
L 344.734288 135.004125 
L 344.734432 134.716343 
L 344.734576 134.437152 
L 344.734719 134.166055 
L 344.734863 133.902595 
L 344.735006 133.646355 
L 344.73515 133.396948 
L 344.735294 133.15402 
L 344.735437 132.917243 
L 344.735581 132.686313 
L 344.735724 132.460948 
L 344.735868 132.240886 
L 344.736012 132.025884 
L 344.736155 131.815713 
L 344.736299 131.610162 
L 344.736442 131.409032 
L 344.736586 131.212137 
L 344.73673 131.019301 
L 344.736873 130.830361 
L 344.737017 130.645163 
L 344.73716 130.463562 
L 344.737304 130.285419 
L 344.737448 130.110607 
L 344.737591 129.939002 
L 344.737735 129.770489 
L 344.737878 129.604959 
L 344.738022 129.442308 
L 344.738166 129.282438 
L 344.738309 129.125255 
L 344.738453 128.970669 
L 344.738596 128.818598 
L 344.73874 128.668959 
L 344.738884 128.521678 
L 344.739027 128.37668 
L 344.739171 128.233895 
L 344.739314 128.093258 
L 344.739458 127.954704 
L 344.739602 127.818174 
L 344.739745 127.683607 
L 344.739889 127.55095 
L 344.740032 127.420148 
L 344.740176 127.29115 
L 344.74032 127.163907 
L 344.740463 127.038373 
L 344.740607 126.914501 
L 344.74075 126.792248 
L 344.740894 126.671573 
L 344.741038 126.552435 
L 344.741181 126.434796 
L 344.741325 126.318618 
L 344.741468 126.203866 
L 344.741612 126.090504 
L 344.741756 125.978501 
L 344.741899 125.867822 
L 344.742043 125.758439 
L 344.742186 125.65032 
L 344.74233 125.543436 
L 344.742474 125.437761 
L 344.742617 125.333266 
L 344.742761 125.229926 
L 344.742904 125.127715 
L 344.743048 125.026609 
L 344.743192 124.926585 
L 344.743335 124.827619 
L 344.743479 124.729689 
L 344.743622 124.632774 
L 344.743766 124.536853 
L 344.74391 124.441906 
" clip-path="url(#p763f91b6ff)" style="fill: none; stroke-dasharray: 5.55,2.4; stroke-dashoffset: 0; stroke: #1f77b4; stroke-width: 1.5"/>
   </g>
   <g id="line2d_85">
    <path d="M 344.729693 134.762902 
L 344.871151 102.647584 
L 345.130489 93.105521 
L 345.507709 86.954877 
L 346.00281 82.373383 
L 346.615792 78.713905 
L 347.346656 75.655396 
L 348.207189 72.999377 
L 349.197391 70.657965 
L 350.470508 68.316244 
L 351.778989 66.396837 
L 353.27608 64.596488 
L 354.973569 62.903188 
L 356.918609 61.277666 
L 359.146564 59.708321 
L 361.704586 58.180937 
L 364.651616 56.684198 
L 368.046594 55.212915 
L 371.972038 53.757998 
L 376.510465 52.317011 
L 381.767966 50.885594 
L 387.862424 49.46118 
L 394.935296 48.041138 
L 403.139828 46.625666 
L 412.664628 45.212922 
L 423.710097 43.804161 
L 436.547359 42.395672 
L 451.447543 40.989303 
L 468.752503 39.583939 
L 488.851248 38.179386 
L 512.710402 36.746711 
L 539.917383 35.342864 
L 548.569863 34.943636 
L 548.569863 34.943636 
" clip-path="url(#p763f91b6ff)" style="fill: none; stroke: #ff7f0e; stroke-width: 1.5; stroke-linecap: square"/>
   </g>
   <g id="line2d_86">
    <path d="M 344.729693 134.762902 
L 344.871151 102.653619 
L 345.130489 93.111504 
L 345.507709 86.961217 
L 346.014598 82.291756 
L 346.627581 78.655733 
L 347.358444 75.613414 
L 348.218977 72.968483 
L 349.185603 70.684659 
L 350.317262 68.569189 
L 351.613955 66.618326 
L 353.08747 64.805097 
L 354.773171 63.087938 
L 356.694635 61.451103 
L 358.887225 59.878063 
L 361.409883 58.344666 
L 364.333337 56.834829 
L 367.681163 55.360664 
L 371.547666 53.904772 
L 376.050728 52.453292 
L 381.272865 51.011473 
L 387.284806 49.587181 
L 394.216221 48.17604 
L 402.302871 46.760628 
L 411.686214 45.348623 
L 422.578437 43.939075 
L 436.464843 42.404083 
L 451.353238 40.997578 
L 468.163097 39.628495 
L 488.167537 38.223861 
L 511.413709 36.819187 
L 538.420292 35.414871 
L 548.569863 34.943636 
L 548.569863 34.943636 
" clip-path="url(#p763f91b6ff)" style="fill: none; stroke: #2ca02c; stroke-width: 1.5; stroke-linecap: square"/>
   </g>
   <g id="line2d_87">
    <path d="M 344.729693 134.762902 
L 344.871151 102.654374 
L 345.130489 93.111504 
L 345.507709 86.961358 
L 346.014598 82.291842 
L 346.627581 78.655733 
L 347.358444 75.613414 
L 348.218977 72.968515 
L 349.185603 70.684683 
L 350.317262 68.569189 
L 351.613955 66.618326 
L 353.08747 64.80511 
L 354.761383 63.09892 
L 356.682847 61.460321 
L 358.875437 59.885853 
L 361.398095 58.351311 
L 364.321549 56.840455 
L 367.669375 55.365469 
L 371.535878 53.908896 
L 375.944635 52.485022 
L 381.143196 51.044723 
L 387.143349 49.618316 
L 394.239797 48.171584 
L 402.326447 46.756798 
L 411.709791 45.34533 
L 422.602014 43.93627 
L 434.731989 42.582425 
L 449.33747 41.176063 
L 466.300574 39.770675 
L 486.010311 38.365536 
L 508.90284 36.961134 
L 535.496838 35.557106 
L 548.569863 34.943636 
L 548.569863 34.943636 
" clip-path="url(#p763f91b6ff)" style="fill: none; stroke: #d62728; stroke-width: 1.5; stroke-linecap: square"/>
   </g>
   <g id="line2d_88">
    <path d="M 344.729693 137.453361 
L 344.859363 103.516344 
L 345.118701 93.409477 
L 345.495921 87.11111 
L 345.991022 82.468796 
L 346.604004 78.778315 
L 347.334868 75.701795 
L 348.195401 73.034283 
L 349.185603 70.685277 
L 350.399779 68.434082 
L 351.696472 66.508508 
L 353.181775 64.701541 
L 354.867476 63.001629 
L 356.800728 61.369461 
L 359.016895 59.793567 
L 361.563129 58.25979 
L 364.486582 56.762558 
L 367.857985 55.289358 
L 371.759852 53.831474 
L 376.557617 52.30349 
L 381.815119 50.873991 
L 387.909577 49.451216 
L 394.982449 48.032576 
L 403.18698 46.618307 
L 412.711781 45.206594 
L 423.769037 43.797322 
L 436.618088 42.388589 
L 451.53006 40.982176 
L 468.846808 39.576918 
L 488.969129 38.171816 
L 512.344971 36.767148 
L 539.493011 35.36328 
L 548.569863 34.94369 
L 548.569863 34.94369 
" clip-path="url(#p763f91b6ff)" style="fill: none; stroke: #9467bd; stroke-width: 1.5; stroke-linecap: square"/>
   </g>
   <g id="patch_9">
    <path d="M 334.537685 174.04 
L 334.537685 28.32 
" style="fill: none; stroke: #000000; stroke-width: 0.8; stroke-linejoin: miter; stroke-linecap: square"/>
   </g>
   <g id="patch_10">
    <path d="M 558.761872 174.04 
L 558.761872 28.32 
" style="fill: none; stroke: #000000; stroke-width: 0.8; stroke-linejoin: miter; stroke-linecap: square"/>
   </g>
   <g id="patch_11">
    <path d="M 334.537685 174.04 
L 558.761872 174.04 
" style="fill: none; stroke: #000000; stroke-width: 0.8; stroke-linejoin: miter; stroke-linecap: square"/>
   </g>
   <g id="patch_12">
    <path d="M 334.537685 28.32 
L 558.761872 28.32 
" style="fill: none; stroke: #000000; stroke-width: 0.8; stroke-linejoin: miter; stroke-linecap: square"/>
   </g>
   <g id="text_30">
    <!-- $dev=100,f=1,msg/s=100,d=172800$ -->
    <g transform="translate(323.409778 22.32) scale(0.12 -0.12)">
     <use xlink:href="#DejaVuSans-Oblique-64" transform="translate(0 0.015625)"/>
     <use xlink:href="#DejaVuSans-Oblique-65" transform="translate(63.476562 0.015625)"/>
     <use xlink:href="#DejaVuSans-Oblique-76" transform="translate(125 0.015625)"/>
     <use xlink:href="#DejaVuSans-3d" transform="translate(203.662109 0.015625)"/>
     <use xlink:href="#DejaVuSans-31" transform="translate(306.933594 0.015625)"/>
     <use xlink:href="#DejaVuSans-30" transform="translate(370.556641 0.015625)"/>
     <use xlink:href="#DejaVuSans-30" transform="translate(434.179688 0.015625)"/>
     <use xlink:href="#DejaVuSans-2c" transform="translate(497.802734 0.015625)"/>
     <use xlink:href="#DejaVuSans-Oblique-66" transform="translate(549.072266 0.015625)"/>
     <use xlink:href="#DejaVuSans-3d" transform="translate(603.759766 0.015625)"/>
     <use xlink:href="#DejaVuSans-31" transform="translate(707.03125 0.015625)"/>
     <use xlink:href="#DejaVuSans-2c" transform="translate(770.654297 0.015625)"/>
     <use xlink:href="#DejaVuSans-Oblique-6d" transform="translate(821.923828 0.015625)"/>
     <use xlink:href="#DejaVuSans-Oblique-73" transform="translate(919.335938 0.015625)"/>
     <use xlink:href="#DejaVuSans-Oblique-67" transform="translate(971.435547 0.015625)"/>
     <use xlink:href="#DejaVuSans-2f" transform="translate(1034.912109 0.015625)"/>
     <use xlink:href="#DejaVuSans-Oblique-73" transform="translate(1068.603516 0.015625)"/>
     <use xlink:href="#DejaVuSans-3d" transform="translate(1140.185547 0.015625)"/>
     <use xlink:href="#DejaVuSans-31" transform="translate(1243.457031 0.015625)"/>
     <use xlink:href="#DejaVuSans-30" transform="translate(1307.080078 0.015625)"/>
     <use xlink:href="#DejaVuSans-30" transform="translate(1370.703125 0.015625)"/>
     <use xlink:href="#DejaVuSans-2c" transform="translate(1434.326172 0.015625)"/>
     <use xlink:href="#DejaVuSans-Oblique-64" transform="translate(1485.595703 0.015625)"/>
     <use xlink:href="#DejaVuSans-3d" transform="translate(1568.554688 0.015625)"/>
     <use xlink:href="#DejaVuSans-31" transform="translate(1671.826172 0.015625)"/>
     <use xlink:href="#DejaVuSans-37" transform="translate(1735.449219 0.015625)"/>
     <use xlink:href="#DejaVuSans-32" transform="translate(1799.072266 0.015625)"/>
     <use xlink:href="#DejaVuSans-38" transform="translate(1862.695312 0.015625)"/>
     <use xlink:href="#DejaVuSans-30" transform="translate(1926.318359 0.015625)"/>
     <use xlink:href="#DejaVuSans-30" transform="translate(1989.941406 0.015625)"/>
    </g>
   </g>
  </g>
  <g id="axes_3">
   <g id="patch_13">
    <path d="M 618.937685 174.04 
L 843.161872 174.04 
L 843.161872 28.32 
L 618.937685 28.32 
z
" style="fill: #ffffff"/>
   </g>
   <g id="matplotlib.axis_5">
    <g id="xtick_11">
     <g id="line2d_89">
      <g>
       <use xlink:href="#mf244755234" x="629.129693" y="174.04" style="stroke: #000000; stroke-width: 0.8"/>
      </g>
     </g>
     <g id="text_31">
      <!-- 0 -->
      <g transform="translate(625.948443 188.638438) scale(0.1 -0.1)">
       <use xlink:href="#DejaVuSans-30"/>
      </g>
     </g>
    </g>
    <g id="xtick_12">
     <g id="line2d_90">
      <g>
       <use xlink:href="#mf244755234" x="680.089736" y="174.04" style="stroke: #000000; stroke-width: 0.8"/>
      </g>
     </g>
     <g id="text_32">
      <!-- 64828 -->
      <g transform="translate(664.183486 188.638438) scale(0.1 -0.1)">
       <use xlink:href="#DejaVuSans-36"/>
       <use xlink:href="#DejaVuSans-34" x="63.623047"/>
       <use xlink:href="#DejaVuSans-38" x="127.246094"/>
       <use xlink:href="#DejaVuSans-32" x="190.869141"/>
       <use xlink:href="#DejaVuSans-38" x="254.492188"/>
      </g>
     </g>
    </g>
    <g id="xtick_13">
     <g id="line2d_91">
      <g>
       <use xlink:href="#mf244755234" x="731.049778" y="174.04" style="stroke: #000000; stroke-width: 0.8"/>
      </g>
     </g>
     <g id="text_33">
      <!-- 129655 -->
      <g transform="translate(711.962278 188.638438) scale(0.1 -0.1)">
       <use xlink:href="#DejaVuSans-31"/>
       <use xlink:href="#DejaVuSans-32" x="63.623047"/>
       <use xlink:href="#DejaVuSans-39" x="127.246094"/>
       <use xlink:href="#DejaVuSans-36" x="190.869141"/>
       <use xlink:href="#DejaVuSans-35" x="254.492188"/>
       <use xlink:href="#DejaVuSans-35" x="318.115234"/>
      </g>
     </g>
    </g>
    <g id="xtick_14">
     <g id="line2d_92">
      <g>
       <use xlink:href="#mf244755234" x="782.009821" y="174.04" style="stroke: #000000; stroke-width: 0.8"/>
      </g>
     </g>
     <g id="text_34">
      <!-- 194482 -->
      <g transform="translate(762.922321 188.638438) scale(0.1 -0.1)">
       <use xlink:href="#DejaVuSans-31"/>
       <use xlink:href="#DejaVuSans-39" x="63.623047"/>
       <use xlink:href="#DejaVuSans-34" x="127.246094"/>
       <use xlink:href="#DejaVuSans-34" x="190.869141"/>
       <use xlink:href="#DejaVuSans-38" x="254.492188"/>
       <use xlink:href="#DejaVuSans-32" x="318.115234"/>
      </g>
     </g>
    </g>
    <g id="xtick_15">
     <g id="line2d_93">
      <g>
       <use xlink:href="#mf244755234" x="832.969863" y="174.04" style="stroke: #000000; stroke-width: 0.8"/>
      </g>
     </g>
     <g id="text_35">
      <!-- 259310 -->
      <g transform="translate(813.882363 188.638438) scale(0.1 -0.1)">
       <use xlink:href="#DejaVuSans-32"/>
       <use xlink:href="#DejaVuSans-35" x="63.623047"/>
       <use xlink:href="#DejaVuSans-39" x="127.246094"/>
       <use xlink:href="#DejaVuSans-33" x="190.869141"/>
       <use xlink:href="#DejaVuSans-31" x="254.492188"/>
       <use xlink:href="#DejaVuSans-30" x="318.115234"/>
      </g>
     </g>
    </g>
    <g id="text_36">
     <!-- Time (s) -->
     <g transform="translate(710.720872 202.316563) scale(0.1 -0.1)">
      <use xlink:href="#DejaVuSans-54"/>
      <use xlink:href="#DejaVuSans-69" x="57.958984"/>
      <use xlink:href="#DejaVuSans-6d" x="85.742188"/>
      <use xlink:href="#DejaVuSans-65" x="183.154297"/>
      <use xlink:href="#DejaVuSans-20" x="244.677734"/>
      <use xlink:href="#DejaVuSans-28" x="276.464844"/>
      <use xlink:href="#DejaVuSans-73" x="315.478516"/>
      <use xlink:href="#DejaVuSans-29" x="367.578125"/>
     </g>
    </g>
   </g>
   <g id="matplotlib.axis_6">
    <g id="ytick_55">
     <g id="line2d_94">
      <path d="M 618.937685 148.53383 
L 843.161872 148.53383 
" clip-path="url(#p6a141b0bcf)" style="fill: none; stroke: #b0b0b0; stroke-width: 0.8; stroke-linecap: square"/>
     </g>
     <g id="line2d_95">
      <g>
       <use xlink:href="#m2c0949700d" x="618.937685" y="148.53383" style="stroke: #000000; stroke-width: 0.8"/>
      </g>
     </g>
     <g id="text_37">
      <!-- $\mathdefault{10^{2}}$ -->
      <g transform="translate(594.337685 152.333049) scale(0.1 -0.1)">
       <use xlink:href="#DejaVuSans-31" transform="translate(0 0.765625)"/>
       <use xlink:href="#DejaVuSans-30" transform="translate(63.623047 0.765625)"/>
       <use xlink:href="#DejaVuSans-32" transform="translate(128.203125 39.046875) scale(0.7)"/>
      </g>
     </g>
    </g>
    <g id="ytick_56">
     <g id="line2d_96">
      <path d="M 618.937685 106.569406 
L 843.161872 106.569406 
" clip-path="url(#p6a141b0bcf)" style="fill: none; stroke: #b0b0b0; stroke-width: 0.8; stroke-linecap: square"/>
     </g>
     <g id="line2d_97">
      <g>
       <use xlink:href="#m2c0949700d" x="618.937685" y="106.569406" style="stroke: #000000; stroke-width: 0.8"/>
      </g>
     </g>
     <g id="text_38">
      <!-- $\mathdefault{10^{4}}$ -->
      <g transform="translate(594.337685 110.368625) scale(0.1 -0.1)">
       <use xlink:href="#DejaVuSans-31" transform="translate(0 0.684375)"/>
       <use xlink:href="#DejaVuSans-30" transform="translate(63.623047 0.684375)"/>
       <use xlink:href="#DejaVuSans-34" transform="translate(128.203125 38.965625) scale(0.7)"/>
      </g>
     </g>
    </g>
    <g id="ytick_57">
     <g id="line2d_98">
      <path d="M 618.937685 64.604982 
L 843.161872 64.604982 
" clip-path="url(#p6a141b0bcf)" style="fill: none; stroke: #b0b0b0; stroke-width: 0.8; stroke-linecap: square"/>
     </g>
     <g id="line2d_99">
      <g>
       <use xlink:href="#m2c0949700d" x="618.937685" y="64.604982" style="stroke: #000000; stroke-width: 0.8"/>
      </g>
     </g>
     <g id="text_39">
      <!-- $\mathdefault{10^{6}}$ -->
      <g transform="translate(594.337685 68.4042) scale(0.1 -0.1)">
       <use xlink:href="#DejaVuSans-31" transform="translate(0 0.765625)"/>
       <use xlink:href="#DejaVuSans-30" transform="translate(63.623047 0.765625)"/>
       <use xlink:href="#DejaVuSans-36" transform="translate(128.203125 39.046875) scale(0.7)"/>
      </g>
     </g>
    </g>
    <g id="text_40">
     <!-- cum #msg -->
     <g transform="translate(588.257997 128.396406) rotate(-90) scale(0.1 -0.1)">
      <use xlink:href="#DejaVuSans-63"/>
      <use xlink:href="#DejaVuSans-75" x="54.980469"/>
      <use xlink:href="#DejaVuSans-6d" x="118.359375"/>
      <use xlink:href="#DejaVuSans-20" x="215.771484"/>
      <use xlink:href="#DejaVuSans-23" x="247.558594"/>
      <use xlink:href="#DejaVuSans-6d" x="331.347656"/>
      <use xlink:href="#DejaVuSans-73" x="428.759766"/>
      <use xlink:href="#DejaVuSans-67" x="480.859375"/>
     </g>
    </g>
   </g>
   <g id="line2d_100">
    <path d="M 629.129792 217 
L 629.129792 167.416364 
L 629.129891 161.100088 
L 629.12999 157.405304 
L 629.130089 154.783813 
L 629.130188 152.750427 
L 629.130287 151.089029 
L 629.130386 149.684337 
L 629.130485 148.467538 
L 629.130584 147.394245 
L 629.130683 146.434151 
L 629.130782 145.565641 
L 629.130881 144.772754 
L 629.13098 144.043368 
L 629.131079 143.368062 
L 629.131178 142.739367 
L 629.131277 142.151263 
L 629.131376 141.598823 
L 629.131475 141.07797 
L 629.131574 140.585284 
L 629.131673 140.117876 
L 629.131772 139.673278 
L 629.131871 139.249366 
L 629.13197 138.844301 
L 629.132069 138.456479 
L 629.132168 138.08449 
L 629.132267 137.727093 
L 629.132366 137.383185 
L 629.132465 137.051787 
L 629.132564 136.732019 
L 629.132663 136.423092 
L 629.132762 136.124296 
L 629.132861 135.834987 
L 629.13296 135.554582 
L 629.133059 135.282548 
L 629.133158 135.0184 
L 629.133256 134.761694 
L 629.133355 134.512022 
L 629.133454 134.269009 
L 629.133553 134.032308 
L 629.133652 133.801601 
L 629.133751 133.576591 
L 629.13385 133.357003 
L 629.133949 133.142582 
L 629.134048 132.933091 
L 629.134147 132.728308 
L 629.134246 132.528026 
L 629.134345 132.332052 
L 629.134444 132.140203 
L 629.134543 131.952311 
L 629.134642 131.768215 
L 629.134741 131.587764 
L 629.13484 131.410817 
L 629.134939 131.237242 
L 629.135038 131.06691 
L 629.135137 130.899704 
L 629.135236 130.735512 
L 629.135335 130.574225 
L 629.135434 130.415743 
L 629.135533 130.259971 
L 629.135632 130.106817 
L 629.135731 129.956194 
L 629.13583 129.808021 
L 629.135929 129.662218 
L 629.136028 129.518712 
L 629.136127 129.377431 
L 629.136226 129.238307 
L 629.136325 129.101275 
L 629.136424 128.966273 
L 629.136523 128.833242 
L 629.136622 128.702125 
L 629.136721 128.572868 
L 629.13682 128.445419 
L 629.136919 128.319728 
L 629.137018 128.195747 
L 629.137117 128.07343 
L 629.137216 127.952734 
L 629.137315 127.833615 
L 629.137414 127.716033 
L 629.137513 127.599949 
L 629.137612 127.485326 
L 629.137711 127.372126 
L 629.137809 127.260315 
L 629.137908 127.14986 
L 629.138007 127.040727 
L 629.138106 126.932886 
L 629.138205 126.826307 
L 629.138304 126.720959 
L 629.138403 126.616816 
L 629.138502 126.513849 
L 629.138601 126.412033 
L 629.1387 126.311341 
L 629.138799 126.211751 
L 629.138898 126.113237 
L 629.138997 126.015776 
L 629.139096 125.919347 
L 629.139195 125.823928 
L 629.139294 125.729498 
L 629.139393 125.636036 
L 629.139492 125.543523 
" clip-path="url(#p6a141b0bcf)" style="fill: none; stroke-dasharray: 5.55,2.4; stroke-dashoffset: 0; stroke: #1f77b4; stroke-width: 1.5"/>
   </g>
   <g id="line2d_101">
    <path d="M 629.129693 148.53383 
L 629.255467 102.259788 
L 629.507015 92.277546 
L 629.876476 86.055657 
L 630.36385 81.477424 
L 630.969136 77.840812 
L 631.692336 74.821213 
L 632.549171 72.192791 
L 633.531779 69.890702 
L 634.655884 67.81949 
L 635.945066 65.908379 
L 637.422909 64.117966 
L 639.097274 62.442799 
L 641.015326 60.839794 
L 643.216369 59.291785 
L 645.747568 57.786203 
L 648.66395 56.313075 
L 652.036263 54.862094 
L 655.943114 53.427044 
L 660.470974 52.005263 
L 665.722034 50.593662 
L 671.814207 49.190456 
L 678.896849 47.791495 
L 687.135039 46.395617 
L 696.709576 45.003473 
L 707.848426 43.613144 
L 720.795276 42.225716 
L 735.86456 40.838802 
L 753.394296 39.453188 
L 774.540031 38.021169 
L 798.743644 36.618235 
L 826.571117 35.233915 
L 832.969863 34.943636 
L 832.969863 34.943636 
" clip-path="url(#p6a141b0bcf)" style="fill: none; stroke: #ff7f0e; stroke-width: 1.5; stroke-linecap: square"/>
   </g>
   <g id="line2d_102">
    <path d="M 629.137554 127.344405 
L 629.27905 100.713347 
L 629.546319 91.374387 
L 629.931502 85.407726 
L 630.434597 80.969443 
L 631.063467 77.385548 
L 631.81811 74.385343 
L 632.690666 71.823236 
L 633.688997 69.57108 
L 634.836683 67.526028 
L 636.141588 65.650166 
L 637.682318 63.837691 
L 639.403848 62.166936 
L 641.376926 60.566971 
L 643.648717 59.016571 
L 645.983394 57.657759 
L 648.939081 56.185596 
L 652.37428 54.728567 
L 656.336158 53.294433 
L 660.926905 51.873613 
L 666.288017 50.453801 
L 672.47452 49.050564 
L 679.667214 47.651507 
L 688.086204 46.247432 
L 697.817958 44.855206 
L 709.137608 43.465102 
L 722.296702 42.077623 
L 737.609673 40.691022 
L 755.430261 39.305094 
L 776.16723 37.919783 
L 802.446112 36.421454 
L 830.886733 35.03688 
L 832.969863 34.943636 
L 832.969863 34.943636 
" clip-path="url(#p6a141b0bcf)" style="fill: none; stroke: #2ca02c; stroke-width: 1.5; stroke-linecap: square"/>
   </g>
   <g id="line2d_103">
    <path d="M 629.137554 127.344405 
L 629.27905 100.713827 
L 629.546319 91.374387 
L 629.931502 85.407726 
L 630.434597 80.969443 
L 631.071328 77.348834 
L 631.810249 74.412036 
L 632.674945 71.863548 
L 633.673275 69.602564 
L 634.813101 67.563774 
L 636.118005 65.680211 
L 637.548683 63.981081 
L 639.451013 62.125254 
L 641.463395 60.502929 
L 643.758769 58.947687 
L 646.407881 57.431366 
L 649.434315 55.9606 
L 652.971706 54.49734 
L 657.853305 52.799968 
L 662.687739 51.382517 
L 668.292538 49.975092 
L 674.809198 48.572473 
L 682.379214 47.175172 
L 691.497821 45.734795 
L 701.787697 44.343224 
L 713.751938 42.954202 
L 727.767866 41.55764 
L 743.976976 40.171269 
L 763.102468 38.767722 
L 785.097177 37.382507 
L 810.149763 36.025185 
L 832.969863 34.943636 
L 832.969863 34.943636 
" clip-path="url(#p6a141b0bcf)" style="fill: none; stroke: #d62728; stroke-width: 1.5; stroke-linecap: square"/>
   </g>
   <g id="line2d_104">
    <path d="M 629.137554 127.551618 
L 629.27905 100.750323 
L 629.546319 91.391601 
L 629.931502 85.416665 
L 630.434597 80.974934 
L 631.055606 77.425907 
L 631.794528 74.468212 
L 632.667084 71.885806 
L 633.665414 69.619927 
L 634.80524 67.577653 
L 636.110144 65.691282 
L 637.61157 63.913842 
L 639.482457 62.098188 
L 641.455534 60.509212 
L 643.837377 58.899384 
L 646.462907 57.402796 
L 649.497202 55.932774 
L 653.00315 54.485626 
L 657.059358 53.055647 
L 662.208226 51.513919 
L 667.734416 50.106122 
L 674.156746 48.703748 
L 681.616709 47.306746 
L 690.664569 45.857479 
L 701.033053 44.438459 
L 712.879382 43.048695 
L 726.651623 41.661407 
L 742.679933 40.274818 
L 761.325912 38.889397 
L 783.029768 37.504159 
L 808.278877 36.119889 
L 832.969863 34.943672 
L 832.969863 34.943672 
" clip-path="url(#p6a141b0bcf)" style="fill: none; stroke: #9467bd; stroke-width: 1.5; stroke-linecap: square"/>
   </g>
   <g id="patch_14">
    <path d="M 618.937685 174.04 
L 618.937685 28.32 
" style="fill: none; stroke: #000000; stroke-width: 0.8; stroke-linejoin: miter; stroke-linecap: square"/>
   </g>
   <g id="patch_15">
    <path d="M 843.161872 174.04 
L 843.161872 28.32 
" style="fill: none; stroke: #000000; stroke-width: 0.8; stroke-linejoin: miter; stroke-linecap: square"/>
   </g>
   <g id="patch_16">
    <path d="M 618.937685 174.04 
L 843.161872 174.04 
" style="fill: none; stroke: #000000; stroke-width: 0.8; stroke-linejoin: miter; stroke-linecap: square"/>
   </g>
   <g id="patch_17">
    <path d="M 618.937685 28.32 
L 843.161872 28.32 
" style="fill: none; stroke: #000000; stroke-width: 0.8; stroke-linejoin: miter; stroke-linecap: square"/>
   </g>
   <g id="text_41">
    <!-- $dev=100,f=1,msg/s=100,d=259200$ -->
    <g transform="translate(608.229778 22.32) scale(0.12 -0.12)">
     <use xlink:href="#DejaVuSans-Oblique-64" transform="translate(0 0.015625)"/>
     <use xlink:href="#DejaVuSans-Oblique-65" transform="translate(63.476562 0.015625)"/>
     <use xlink:href="#DejaVuSans-Oblique-76" transform="translate(125 0.015625)"/>
     <use xlink:href="#DejaVuSans-3d" transform="translate(203.662109 0.015625)"/>
     <use xlink:href="#DejaVuSans-31" transform="translate(306.933594 0.015625)"/>
     <use xlink:href="#DejaVuSans-30" transform="translate(370.556641 0.015625)"/>
     <use xlink:href="#DejaVuSans-30" transform="translate(434.179688 0.015625)"/>
     <use xlink:href="#DejaVuSans-2c" transform="translate(497.802734 0.015625)"/>
     <use xlink:href="#DejaVuSans-Oblique-66" transform="translate(549.072266 0.015625)"/>
     <use xlink:href="#DejaVuSans-3d" transform="translate(603.759766 0.015625)"/>
     <use xlink:href="#DejaVuSans-31" transform="translate(707.03125 0.015625)"/>
     <use xlink:href="#DejaVuSans-2c" transform="translate(770.654297 0.015625)"/>
     <use xlink:href="#DejaVuSans-Oblique-6d" transform="translate(821.923828 0.015625)"/>
     <use xlink:href="#DejaVuSans-Oblique-73" transform="translate(919.335938 0.015625)"/>
     <use xlink:href="#DejaVuSans-Oblique-67" transform="translate(971.435547 0.015625)"/>
     <use xlink:href="#DejaVuSans-2f" transform="translate(1034.912109 0.015625)"/>
     <use xlink:href="#DejaVuSans-Oblique-73" transform="translate(1068.603516 0.015625)"/>
     <use xlink:href="#DejaVuSans-3d" transform="translate(1140.185547 0.015625)"/>
     <use xlink:href="#DejaVuSans-31" transform="translate(1243.457031 0.015625)"/>
     <use xlink:href="#DejaVuSans-30" transform="translate(1307.080078 0.015625)"/>
     <use xlink:href="#DejaVuSans-30" transform="translate(1370.703125 0.015625)"/>
     <use xlink:href="#DejaVuSans-2c" transform="translate(1434.326172 0.015625)"/>
     <use xlink:href="#DejaVuSans-Oblique-64" transform="translate(1485.595703 0.015625)"/>
     <use xlink:href="#DejaVuSans-3d" transform="translate(1568.554688 0.015625)"/>
     <use xlink:href="#DejaVuSans-32" transform="translate(1671.826172 0.015625)"/>
     <use xlink:href="#DejaVuSans-35" transform="translate(1735.449219 0.015625)"/>
     <use xlink:href="#DejaVuSans-39" transform="translate(1793.572266 0.015625)"/>
     <use xlink:href="#DejaVuSans-32" transform="translate(1855.445312 0.015625)"/>
     <use xlink:href="#DejaVuSans-30" transform="translate(1919.068359 0.015625)"/>
     <use xlink:href="#DejaVuSans-30" transform="translate(1982.691406 0.015625)"/>
    </g>
   </g>
  </g>
 </g>
 <defs>
  <clipPath id="pb87917c8cd">
   <rect x="50.137685" y="28.32" width="224.224187" height="145.72"/>
  </clipPath>
  <clipPath id="p763f91b6ff">
   <rect x="334.537685" y="28.32" width="224.224187" height="145.72"/>
  </clipPath>
  <clipPath id="p6a141b0bcf">
   <rect x="618.937685" y="28.32" width="224.224187" height="145.72"/>
  </clipPath>
 </defs>
</svg>
