<?xml version="1.0" encoding="utf-8" standalone="no"?>
<!DOCTYPE svg PUBLIC "-//W3C//DTD SVG 1.1//EN"
  "http://www.w3.org/Graphics/SVG/1.1/DTD/svg11.dtd">
<svg xmlns:xlink="http://www.w3.org/1999/xlink" width="576pt" height="216pt" viewBox="0 0 576 216" xmlns="http://www.w3.org/2000/svg" version="1.1">
 <metadata>
  <rdf:RDF xmlns:dc="http://purl.org/dc/elements/1.1/" xmlns:cc="http://creativecommons.org/ns#" xmlns:rdf="http://www.w3.org/1999/02/22-rdf-syntax-ns#">
   <cc:Work>
    <dc:type rdf:resource="http://purl.org/dc/dcmitype/StillImage"/>
    <dc:date>2022-09-21T10:18:33.193048</dc:date>
    <dc:format>image/svg+xml</dc:format>
    <dc:creator>
     <cc:Agent>
      <dc:title>Matplotlib v3.5.3, https://matplotlib.org/</dc:title>
     </cc:Agent>
    </dc:creator>
   </cc:Work>
  </rdf:RDF>
 </metadata>
 <defs>
  <style type="text/css">*{stroke-linejoin: round; stroke-linecap: butt}</style>
 </defs>
 <g id="figure_1">
  <g id="patch_1">
   <path d="M 0 216 
L 576 216 
L 576 0 
L 0 0 
z
" style="fill: #ffffff"/>
  </g>
  <g id="axes_1">
   <g id="patch_2">
    <path d="M 50.137685 174.04 
L 274.40814 174.04 
L 274.40814 28.32 
L 50.137685 28.32 
z
" style="fill: #ffffff"/>
   </g>
   <g id="matplotlib.axis_1">
    <g id="xtick_1">
     <g id="line2d_1">
      <defs>
       <path id="ma449396bc7" d="M 0 0 
L 0 3.5 
" style="stroke: #000000; stroke-width: 0.8"/>
      </defs>
      <g>
       <use xlink:href="#ma449396bc7" x="60.331796" y="174.04" style="stroke: #000000; stroke-width: 0.8"/>
      </g>
     </g>
     <g id="text_1">
      <!-- 0 -->
      <g transform="translate(57.150546 188.638438)scale(0.1 -0.1)">
       <defs>
        <path id="DejaVuSans-30" d="M 2034 4250 
Q 1547 4250 1301 3770 
Q 1056 3291 1056 2328 
Q 1056 1369 1301 889 
Q 1547 409 2034 409 
Q 2525 409 2770 889 
Q 3016 1369 3016 2328 
Q 3016 3291 2770 3770 
Q 2525 4250 2034 4250 
z
M 2034 4750 
Q 2819 4750 3233 4129 
Q 3647 3509 3647 2328 
Q 3647 1150 3233 529 
Q 2819 -91 2034 -91 
Q 1250 -91 836 529 
Q 422 1150 422 2328 
Q 422 3509 836 4129 
Q 1250 4750 2034 4750 
z
" transform="scale(0.015625)"/>
       </defs>
       <use xlink:href="#DejaVuSans-30"/>
      </g>
     </g>
    </g>
    <g id="xtick_2">
     <g id="line2d_2">
      <g>
       <use xlink:href="#ma449396bc7" x="111.302355" y="174.04" style="stroke: #000000; stroke-width: 0.8"/>
      </g>
     </g>
     <g id="text_2">
      <!-- 3002 -->
      <g transform="translate(98.577355 188.638438)scale(0.1 -0.1)">
       <defs>
        <path id="DejaVuSans-33" d="M 2597 2516 
Q 3050 2419 3304 2112 
Q 3559 1806 3559 1356 
Q 3559 666 3084 287 
Q 2609 -91 1734 -91 
Q 1441 -91 1130 -33 
Q 819 25 488 141 
L 488 750 
Q 750 597 1062 519 
Q 1375 441 1716 441 
Q 2309 441 2620 675 
Q 2931 909 2931 1356 
Q 2931 1769 2642 2001 
Q 2353 2234 1838 2234 
L 1294 2234 
L 1294 2753 
L 1863 2753 
Q 2328 2753 2575 2939 
Q 2822 3125 2822 3475 
Q 2822 3834 2567 4026 
Q 2313 4219 1838 4219 
Q 1578 4219 1281 4162 
Q 984 4106 628 3988 
L 628 4550 
Q 988 4650 1302 4700 
Q 1616 4750 1894 4750 
Q 2613 4750 3031 4423 
Q 3450 4097 3450 3541 
Q 3450 3153 3228 2886 
Q 3006 2619 2597 2516 
z
" transform="scale(0.015625)"/>
        <path id="DejaVuSans-32" d="M 1228 531 
L 3431 531 
L 3431 0 
L 469 0 
L 469 531 
Q 828 903 1448 1529 
Q 2069 2156 2228 2338 
Q 2531 2678 2651 2914 
Q 2772 3150 2772 3378 
Q 2772 3750 2511 3984 
Q 2250 4219 1831 4219 
Q 1534 4219 1204 4116 
Q 875 4013 500 3803 
L 500 4441 
Q 881 4594 1212 4672 
Q 1544 4750 1819 4750 
Q 2544 4750 2975 4387 
Q 3406 4025 3406 3419 
Q 3406 3131 3298 2873 
Q 3191 2616 2906 2266 
Q 2828 2175 2409 1742 
Q 1991 1309 1228 531 
z
" transform="scale(0.015625)"/>
       </defs>
       <use xlink:href="#DejaVuSans-33"/>
       <use xlink:href="#DejaVuSans-30" x="63.623047"/>
       <use xlink:href="#DejaVuSans-30" x="127.246094"/>
       <use xlink:href="#DejaVuSans-32" x="190.869141"/>
      </g>
     </g>
    </g>
    <g id="xtick_3">
     <g id="line2d_3">
      <g>
       <use xlink:href="#ma449396bc7" x="162.272913" y="174.04" style="stroke: #000000; stroke-width: 0.8"/>
      </g>
     </g>
     <g id="text_3">
      <!-- 6005 -->
      <g transform="translate(149.547913 188.638438)scale(0.1 -0.1)">
       <defs>
        <path id="DejaVuSans-36" d="M 2113 2584 
Q 1688 2584 1439 2293 
Q 1191 2003 1191 1497 
Q 1191 994 1439 701 
Q 1688 409 2113 409 
Q 2538 409 2786 701 
Q 3034 994 3034 1497 
Q 3034 2003 2786 2293 
Q 2538 2584 2113 2584 
z
M 3366 4563 
L 3366 3988 
Q 3128 4100 2886 4159 
Q 2644 4219 2406 4219 
Q 1781 4219 1451 3797 
Q 1122 3375 1075 2522 
Q 1259 2794 1537 2939 
Q 1816 3084 2150 3084 
Q 2853 3084 3261 2657 
Q 3669 2231 3669 1497 
Q 3669 778 3244 343 
Q 2819 -91 2113 -91 
Q 1303 -91 875 529 
Q 447 1150 447 2328 
Q 447 3434 972 4092 
Q 1497 4750 2381 4750 
Q 2619 4750 2861 4703 
Q 3103 4656 3366 4563 
z
" transform="scale(0.015625)"/>
        <path id="DejaVuSans-35" d="M 691 4666 
L 3169 4666 
L 3169 4134 
L 1269 4134 
L 1269 2991 
Q 1406 3038 1543 3061 
Q 1681 3084 1819 3084 
Q 2600 3084 3056 2656 
Q 3513 2228 3513 1497 
Q 3513 744 3044 326 
Q 2575 -91 1722 -91 
Q 1428 -91 1123 -41 
Q 819 9 494 109 
L 494 744 
Q 775 591 1075 516 
Q 1375 441 1709 441 
Q 2250 441 2565 725 
Q 2881 1009 2881 1497 
Q 2881 1984 2565 2268 
Q 2250 2553 1709 2553 
Q 1456 2553 1204 2497 
Q 953 2441 691 2322 
L 691 4666 
z
" transform="scale(0.015625)"/>
       </defs>
       <use xlink:href="#DejaVuSans-36"/>
       <use xlink:href="#DejaVuSans-30" x="63.623047"/>
       <use xlink:href="#DejaVuSans-30" x="127.246094"/>
       <use xlink:href="#DejaVuSans-35" x="190.869141"/>
      </g>
     </g>
    </g>
    <g id="xtick_4">
     <g id="line2d_4">
      <g>
       <use xlink:href="#ma449396bc7" x="213.243471" y="174.04" style="stroke: #000000; stroke-width: 0.8"/>
      </g>
     </g>
     <g id="text_4">
      <!-- 9008 -->
      <g transform="translate(200.518471 188.638438)scale(0.1 -0.1)">
       <defs>
        <path id="DejaVuSans-39" d="M 703 97 
L 703 672 
Q 941 559 1184 500 
Q 1428 441 1663 441 
Q 2288 441 2617 861 
Q 2947 1281 2994 2138 
Q 2813 1869 2534 1725 
Q 2256 1581 1919 1581 
Q 1219 1581 811 2004 
Q 403 2428 403 3163 
Q 403 3881 828 4315 
Q 1253 4750 1959 4750 
Q 2769 4750 3195 4129 
Q 3622 3509 3622 2328 
Q 3622 1225 3098 567 
Q 2575 -91 1691 -91 
Q 1453 -91 1209 -44 
Q 966 3 703 97 
z
M 1959 2075 
Q 2384 2075 2632 2365 
Q 2881 2656 2881 3163 
Q 2881 3666 2632 3958 
Q 2384 4250 1959 4250 
Q 1534 4250 1286 3958 
Q 1038 3666 1038 3163 
Q 1038 2656 1286 2365 
Q 1534 2075 1959 2075 
z
" transform="scale(0.015625)"/>
        <path id="DejaVuSans-38" d="M 2034 2216 
Q 1584 2216 1326 1975 
Q 1069 1734 1069 1313 
Q 1069 891 1326 650 
Q 1584 409 2034 409 
Q 2484 409 2743 651 
Q 3003 894 3003 1313 
Q 3003 1734 2745 1975 
Q 2488 2216 2034 2216 
z
M 1403 2484 
Q 997 2584 770 2862 
Q 544 3141 544 3541 
Q 544 4100 942 4425 
Q 1341 4750 2034 4750 
Q 2731 4750 3128 4425 
Q 3525 4100 3525 3541 
Q 3525 3141 3298 2862 
Q 3072 2584 2669 2484 
Q 3125 2378 3379 2068 
Q 3634 1759 3634 1313 
Q 3634 634 3220 271 
Q 2806 -91 2034 -91 
Q 1263 -91 848 271 
Q 434 634 434 1313 
Q 434 1759 690 2068 
Q 947 2378 1403 2484 
z
M 1172 3481 
Q 1172 3119 1398 2916 
Q 1625 2713 2034 2713 
Q 2441 2713 2670 2916 
Q 2900 3119 2900 3481 
Q 2900 3844 2670 4047 
Q 2441 4250 2034 4250 
Q 1625 4250 1398 4047 
Q 1172 3844 1172 3481 
z
" transform="scale(0.015625)"/>
       </defs>
       <use xlink:href="#DejaVuSans-39"/>
       <use xlink:href="#DejaVuSans-30" x="63.623047"/>
       <use xlink:href="#DejaVuSans-30" x="127.246094"/>
       <use xlink:href="#DejaVuSans-38" x="190.869141"/>
      </g>
     </g>
    </g>
    <g id="xtick_5">
     <g id="line2d_5">
      <g>
       <use xlink:href="#ma449396bc7" x="264.214029" y="174.04" style="stroke: #000000; stroke-width: 0.8"/>
      </g>
     </g>
     <g id="text_5">
      <!-- 12010 -->
      <g transform="translate(248.307779 188.638438)scale(0.1 -0.1)">
       <defs>
        <path id="DejaVuSans-31" d="M 794 531 
L 1825 531 
L 1825 4091 
L 703 3866 
L 703 4441 
L 1819 4666 
L 2450 4666 
L 2450 531 
L 3481 531 
L 3481 0 
L 794 0 
L 794 531 
z
" transform="scale(0.015625)"/>
       </defs>
       <use xlink:href="#DejaVuSans-31"/>
       <use xlink:href="#DejaVuSans-32" x="63.623047"/>
       <use xlink:href="#DejaVuSans-30" x="127.246094"/>
       <use xlink:href="#DejaVuSans-31" x="190.869141"/>
       <use xlink:href="#DejaVuSans-30" x="254.492188"/>
      </g>
     </g>
    </g>
    <g id="text_6">
     <!-- Time (s) -->
     <g transform="translate(141.944006 202.316563)scale(0.1 -0.1)">
      <defs>
       <path id="DejaVuSans-54" d="M -19 4666 
L 3928 4666 
L 3928 4134 
L 2272 4134 
L 2272 0 
L 1638 0 
L 1638 4134 
L -19 4134 
L -19 4666 
z
" transform="scale(0.015625)"/>
       <path id="DejaVuSans-69" d="M 603 3500 
L 1178 3500 
L 1178 0 
L 603 0 
L 603 3500 
z
M 603 4863 
L 1178 4863 
L 1178 4134 
L 603 4134 
L 603 4863 
z
" transform="scale(0.015625)"/>
       <path id="DejaVuSans-6d" d="M 3328 2828 
Q 3544 3216 3844 3400 
Q 4144 3584 4550 3584 
Q 5097 3584 5394 3201 
Q 5691 2819 5691 2113 
L 5691 0 
L 5113 0 
L 5113 2094 
Q 5113 2597 4934 2840 
Q 4756 3084 4391 3084 
Q 3944 3084 3684 2787 
Q 3425 2491 3425 1978 
L 3425 0 
L 2847 0 
L 2847 2094 
Q 2847 2600 2669 2842 
Q 2491 3084 2119 3084 
Q 1678 3084 1418 2786 
Q 1159 2488 1159 1978 
L 1159 0 
L 581 0 
L 581 3500 
L 1159 3500 
L 1159 2956 
Q 1356 3278 1631 3431 
Q 1906 3584 2284 3584 
Q 2666 3584 2933 3390 
Q 3200 3197 3328 2828 
z
" transform="scale(0.015625)"/>
       <path id="DejaVuSans-65" d="M 3597 1894 
L 3597 1613 
L 953 1613 
Q 991 1019 1311 708 
Q 1631 397 2203 397 
Q 2534 397 2845 478 
Q 3156 559 3463 722 
L 3463 178 
Q 3153 47 2828 -22 
Q 2503 -91 2169 -91 
Q 1331 -91 842 396 
Q 353 884 353 1716 
Q 353 2575 817 3079 
Q 1281 3584 2069 3584 
Q 2775 3584 3186 3129 
Q 3597 2675 3597 1894 
z
M 3022 2063 
Q 3016 2534 2758 2815 
Q 2500 3097 2075 3097 
Q 1594 3097 1305 2825 
Q 1016 2553 972 2059 
L 3022 2063 
z
" transform="scale(0.015625)"/>
       <path id="DejaVuSans-20" transform="scale(0.015625)"/>
       <path id="DejaVuSans-28" d="M 1984 4856 
Q 1566 4138 1362 3434 
Q 1159 2731 1159 2009 
Q 1159 1288 1364 580 
Q 1569 -128 1984 -844 
L 1484 -844 
Q 1016 -109 783 600 
Q 550 1309 550 2009 
Q 550 2706 781 3412 
Q 1013 4119 1484 4856 
L 1984 4856 
z
" transform="scale(0.015625)"/>
       <path id="DejaVuSans-73" d="M 2834 3397 
L 2834 2853 
Q 2591 2978 2328 3040 
Q 2066 3103 1784 3103 
Q 1356 3103 1142 2972 
Q 928 2841 928 2578 
Q 928 2378 1081 2264 
Q 1234 2150 1697 2047 
L 1894 2003 
Q 2506 1872 2764 1633 
Q 3022 1394 3022 966 
Q 3022 478 2636 193 
Q 2250 -91 1575 -91 
Q 1294 -91 989 -36 
Q 684 19 347 128 
L 347 722 
Q 666 556 975 473 
Q 1284 391 1588 391 
Q 1994 391 2212 530 
Q 2431 669 2431 922 
Q 2431 1156 2273 1281 
Q 2116 1406 1581 1522 
L 1381 1569 
Q 847 1681 609 1914 
Q 372 2147 372 2553 
Q 372 3047 722 3315 
Q 1072 3584 1716 3584 
Q 2034 3584 2315 3537 
Q 2597 3491 2834 3397 
z
" transform="scale(0.015625)"/>
       <path id="DejaVuSans-29" d="M 513 4856 
L 1013 4856 
Q 1481 4119 1714 3412 
Q 1947 2706 1947 2009 
Q 1947 1309 1714 600 
Q 1481 -109 1013 -844 
L 513 -844 
Q 928 -128 1133 580 
Q 1338 1288 1338 2009 
Q 1338 2731 1133 3434 
Q 928 4138 513 4856 
z
" transform="scale(0.015625)"/>
      </defs>
      <use xlink:href="#DejaVuSans-54"/>
      <use xlink:href="#DejaVuSans-69" x="57.958984"/>
      <use xlink:href="#DejaVuSans-6d" x="85.742188"/>
      <use xlink:href="#DejaVuSans-65" x="183.154297"/>
      <use xlink:href="#DejaVuSans-20" x="244.677734"/>
      <use xlink:href="#DejaVuSans-28" x="276.464844"/>
      <use xlink:href="#DejaVuSans-73" x="315.478516"/>
      <use xlink:href="#DejaVuSans-29" x="367.578125"/>
     </g>
    </g>
   </g>
   <g id="matplotlib.axis_2">
    <g id="ytick_1">
     <g id="line2d_6">
      <path d="M 50.137685 166.823028 
L 274.40814 166.823028 
" clip-path="url(#p3c26526658)" style="fill: none; stroke: #b0b0b0; stroke-width: 0.8; stroke-linecap: square"/>
     </g>
     <g id="line2d_7">
      <defs>
       <path id="m0a8a64a444" d="M 0 0 
L -3.5 0 
" style="stroke: #000000; stroke-width: 0.8"/>
      </defs>
      <g>
       <use xlink:href="#m0a8a64a444" x="50.137685" y="166.823028" style="stroke: #000000; stroke-width: 0.8"/>
      </g>
     </g>
     <g id="text_7">
      <!-- $\mathdefault{10^{1}}$ -->
      <g transform="translate(25.537685 170.622247)scale(0.1 -0.1)">
       <use xlink:href="#DejaVuSans-31" transform="translate(0 0.684375)"/>
       <use xlink:href="#DejaVuSans-30" transform="translate(63.623047 0.684375)"/>
       <use xlink:href="#DejaVuSans-31" transform="translate(128.203125 38.965625)scale(0.7)"/>
      </g>
     </g>
    </g>
    <g id="ytick_2">
     <g id="line2d_8">
      <path d="M 50.137685 140.852511 
L 274.40814 140.852511 
" clip-path="url(#p3c26526658)" style="fill: none; stroke: #b0b0b0; stroke-width: 0.8; stroke-linecap: square"/>
     </g>
     <g id="line2d_9">
      <g>
       <use xlink:href="#m0a8a64a444" x="50.137685" y="140.852511" style="stroke: #000000; stroke-width: 0.8"/>
      </g>
     </g>
     <g id="text_8">
      <!-- $\mathdefault{10^{2}}$ -->
      <g transform="translate(25.537685 144.65173)scale(0.1 -0.1)">
       <use xlink:href="#DejaVuSans-31" transform="translate(0 0.765625)"/>
       <use xlink:href="#DejaVuSans-30" transform="translate(63.623047 0.765625)"/>
       <use xlink:href="#DejaVuSans-32" transform="translate(128.203125 39.046875)scale(0.7)"/>
      </g>
     </g>
    </g>
    <g id="ytick_3">
     <g id="line2d_10">
      <path d="M 50.137685 114.881994 
L 274.40814 114.881994 
" clip-path="url(#p3c26526658)" style="fill: none; stroke: #b0b0b0; stroke-width: 0.8; stroke-linecap: square"/>
     </g>
     <g id="line2d_11">
      <g>
       <use xlink:href="#m0a8a64a444" x="50.137685" y="114.881994" style="stroke: #000000; stroke-width: 0.8"/>
      </g>
     </g>
     <g id="text_9">
      <!-- $\mathdefault{10^{3}}$ -->
      <g transform="translate(25.537685 118.681213)scale(0.1 -0.1)">
       <use xlink:href="#DejaVuSans-31" transform="translate(0 0.765625)"/>
       <use xlink:href="#DejaVuSans-30" transform="translate(63.623047 0.765625)"/>
       <use xlink:href="#DejaVuSans-33" transform="translate(128.203125 39.046875)scale(0.7)"/>
      </g>
     </g>
    </g>
    <g id="ytick_4">
     <g id="line2d_12">
      <path d="M 50.137685 88.911477 
L 274.40814 88.911477 
" clip-path="url(#p3c26526658)" style="fill: none; stroke: #b0b0b0; stroke-width: 0.8; stroke-linecap: square"/>
     </g>
     <g id="line2d_13">
      <g>
       <use xlink:href="#m0a8a64a444" x="50.137685" y="88.911477" style="stroke: #000000; stroke-width: 0.8"/>
      </g>
     </g>
     <g id="text_10">
      <!-- $\mathdefault{10^{4}}$ -->
      <g transform="translate(25.537685 92.710696)scale(0.1 -0.1)">
       <defs>
        <path id="DejaVuSans-34" d="M 2419 4116 
L 825 1625 
L 2419 1625 
L 2419 4116 
z
M 2253 4666 
L 3047 4666 
L 3047 1625 
L 3713 1625 
L 3713 1100 
L 3047 1100 
L 3047 0 
L 2419 0 
L 2419 1100 
L 313 1100 
L 313 1709 
L 2253 4666 
z
" transform="scale(0.015625)"/>
       </defs>
       <use xlink:href="#DejaVuSans-31" transform="translate(0 0.684375)"/>
       <use xlink:href="#DejaVuSans-30" transform="translate(63.623047 0.684375)"/>
       <use xlink:href="#DejaVuSans-34" transform="translate(128.203125 38.965625)scale(0.7)"/>
      </g>
     </g>
    </g>
    <g id="ytick_5">
     <g id="line2d_14">
      <path d="M 50.137685 62.940961 
L 274.40814 62.940961 
" clip-path="url(#p3c26526658)" style="fill: none; stroke: #b0b0b0; stroke-width: 0.8; stroke-linecap: square"/>
     </g>
     <g id="line2d_15">
      <g>
       <use xlink:href="#m0a8a64a444" x="50.137685" y="62.940961" style="stroke: #000000; stroke-width: 0.8"/>
      </g>
     </g>
     <g id="text_11">
      <!-- $\mathdefault{10^{5}}$ -->
      <g transform="translate(25.537685 66.740179)scale(0.1 -0.1)">
       <use xlink:href="#DejaVuSans-31" transform="translate(0 0.684375)"/>
       <use xlink:href="#DejaVuSans-30" transform="translate(63.623047 0.684375)"/>
       <use xlink:href="#DejaVuSans-35" transform="translate(128.203125 38.965625)scale(0.7)"/>
      </g>
     </g>
    </g>
    <g id="ytick_6">
     <g id="line2d_16">
      <path d="M 50.137685 36.970444 
L 274.40814 36.970444 
" clip-path="url(#p3c26526658)" style="fill: none; stroke: #b0b0b0; stroke-width: 0.8; stroke-linecap: square"/>
     </g>
     <g id="line2d_17">
      <g>
       <use xlink:href="#m0a8a64a444" x="50.137685" y="36.970444" style="stroke: #000000; stroke-width: 0.8"/>
      </g>
     </g>
     <g id="text_12">
      <!-- $\mathdefault{10^{6}}$ -->
      <g transform="translate(25.537685 40.769662)scale(0.1 -0.1)">
       <use xlink:href="#DejaVuSans-31" transform="translate(0 0.765625)"/>
       <use xlink:href="#DejaVuSans-30" transform="translate(63.623047 0.765625)"/>
       <use xlink:href="#DejaVuSans-36" transform="translate(128.203125 39.046875)scale(0.7)"/>
      </g>
     </g>
    </g>
    <g id="ytick_7">
     <g id="line2d_18">
      <defs>
       <path id="ma171f6f901" d="M 0 0 
L -2 0 
" style="stroke: #000000; stroke-width: 0.6"/>
      </defs>
      <g>
       <use xlink:href="#ma171f6f901" x="50.137685" y="172.584555" style="stroke: #000000; stroke-width: 0.6"/>
      </g>
     </g>
    </g>
    <g id="ytick_8">
     <g id="line2d_19">
      <g>
       <use xlink:href="#ma171f6f901" x="50.137685" y="170.845912" style="stroke: #000000; stroke-width: 0.6"/>
      </g>
     </g>
    </g>
    <g id="ytick_9">
     <g id="line2d_20">
      <g>
       <use xlink:href="#ma171f6f901" x="50.137685" y="169.339831" style="stroke: #000000; stroke-width: 0.6"/>
      </g>
     </g>
    </g>
    <g id="ytick_10">
     <g id="line2d_21">
      <g>
       <use xlink:href="#ma171f6f901" x="50.137685" y="168.011374" style="stroke: #000000; stroke-width: 0.6"/>
      </g>
     </g>
    </g>
    <g id="ytick_11">
     <g id="line2d_22">
      <g>
       <use xlink:href="#ma171f6f901" x="50.137685" y="159.005124" style="stroke: #000000; stroke-width: 0.6"/>
      </g>
     </g>
    </g>
    <g id="ytick_12">
     <g id="line2d_23">
      <g>
       <use xlink:href="#ma171f6f901" x="50.137685" y="154.431943" style="stroke: #000000; stroke-width: 0.6"/>
      </g>
     </g>
    </g>
    <g id="ytick_13">
     <g id="line2d_24">
      <g>
       <use xlink:href="#ma171f6f901" x="50.137685" y="151.187219" style="stroke: #000000; stroke-width: 0.6"/>
      </g>
     </g>
    </g>
    <g id="ytick_14">
     <g id="line2d_25">
      <g>
       <use xlink:href="#ma171f6f901" x="50.137685" y="148.670416" style="stroke: #000000; stroke-width: 0.6"/>
      </g>
     </g>
    </g>
    <g id="ytick_15">
     <g id="line2d_26">
      <g>
       <use xlink:href="#ma171f6f901" x="50.137685" y="146.614038" style="stroke: #000000; stroke-width: 0.6"/>
      </g>
     </g>
    </g>
    <g id="ytick_16">
     <g id="line2d_27">
      <g>
       <use xlink:href="#ma171f6f901" x="50.137685" y="144.875395" style="stroke: #000000; stroke-width: 0.6"/>
      </g>
     </g>
    </g>
    <g id="ytick_17">
     <g id="line2d_28">
      <g>
       <use xlink:href="#ma171f6f901" x="50.137685" y="143.369314" style="stroke: #000000; stroke-width: 0.6"/>
      </g>
     </g>
    </g>
    <g id="ytick_18">
     <g id="line2d_29">
      <g>
       <use xlink:href="#ma171f6f901" x="50.137685" y="142.040857" style="stroke: #000000; stroke-width: 0.6"/>
      </g>
     </g>
    </g>
    <g id="ytick_19">
     <g id="line2d_30">
      <g>
       <use xlink:href="#ma171f6f901" x="50.137685" y="133.034607" style="stroke: #000000; stroke-width: 0.6"/>
      </g>
     </g>
    </g>
    <g id="ytick_20">
     <g id="line2d_31">
      <g>
       <use xlink:href="#ma171f6f901" x="50.137685" y="128.461426" style="stroke: #000000; stroke-width: 0.6"/>
      </g>
     </g>
    </g>
    <g id="ytick_21">
     <g id="line2d_32">
      <g>
       <use xlink:href="#ma171f6f901" x="50.137685" y="125.216702" style="stroke: #000000; stroke-width: 0.6"/>
      </g>
     </g>
    </g>
    <g id="ytick_22">
     <g id="line2d_33">
      <g>
       <use xlink:href="#ma171f6f901" x="50.137685" y="122.699899" style="stroke: #000000; stroke-width: 0.6"/>
      </g>
     </g>
    </g>
    <g id="ytick_23">
     <g id="line2d_34">
      <g>
       <use xlink:href="#ma171f6f901" x="50.137685" y="120.643521" style="stroke: #000000; stroke-width: 0.6"/>
      </g>
     </g>
    </g>
    <g id="ytick_24">
     <g id="line2d_35">
      <g>
       <use xlink:href="#ma171f6f901" x="50.137685" y="118.904878" style="stroke: #000000; stroke-width: 0.6"/>
      </g>
     </g>
    </g>
    <g id="ytick_25">
     <g id="line2d_36">
      <g>
       <use xlink:href="#ma171f6f901" x="50.137685" y="117.398797" style="stroke: #000000; stroke-width: 0.6"/>
      </g>
     </g>
    </g>
    <g id="ytick_26">
     <g id="line2d_37">
      <g>
       <use xlink:href="#ma171f6f901" x="50.137685" y="116.07034" style="stroke: #000000; stroke-width: 0.6"/>
      </g>
     </g>
    </g>
    <g id="ytick_27">
     <g id="line2d_38">
      <g>
       <use xlink:href="#ma171f6f901" x="50.137685" y="107.06409" style="stroke: #000000; stroke-width: 0.6"/>
      </g>
     </g>
    </g>
    <g id="ytick_28">
     <g id="line2d_39">
      <g>
       <use xlink:href="#ma171f6f901" x="50.137685" y="102.490909" style="stroke: #000000; stroke-width: 0.6"/>
      </g>
     </g>
    </g>
    <g id="ytick_29">
     <g id="line2d_40">
      <g>
       <use xlink:href="#ma171f6f901" x="50.137685" y="99.246185" style="stroke: #000000; stroke-width: 0.6"/>
      </g>
     </g>
    </g>
    <g id="ytick_30">
     <g id="line2d_41">
      <g>
       <use xlink:href="#ma171f6f901" x="50.137685" y="96.729382" style="stroke: #000000; stroke-width: 0.6"/>
      </g>
     </g>
    </g>
    <g id="ytick_31">
     <g id="line2d_42">
      <g>
       <use xlink:href="#ma171f6f901" x="50.137685" y="94.673004" style="stroke: #000000; stroke-width: 0.6"/>
      </g>
     </g>
    </g>
    <g id="ytick_32">
     <g id="line2d_43">
      <g>
       <use xlink:href="#ma171f6f901" x="50.137685" y="92.934361" style="stroke: #000000; stroke-width: 0.6"/>
      </g>
     </g>
    </g>
    <g id="ytick_33">
     <g id="line2d_44">
      <g>
       <use xlink:href="#ma171f6f901" x="50.137685" y="91.428281" style="stroke: #000000; stroke-width: 0.6"/>
      </g>
     </g>
    </g>
    <g id="ytick_34">
     <g id="line2d_45">
      <g>
       <use xlink:href="#ma171f6f901" x="50.137685" y="90.099823" style="stroke: #000000; stroke-width: 0.6"/>
      </g>
     </g>
    </g>
    <g id="ytick_35">
     <g id="line2d_46">
      <g>
       <use xlink:href="#ma171f6f901" x="50.137685" y="81.093573" style="stroke: #000000; stroke-width: 0.6"/>
      </g>
     </g>
    </g>
    <g id="ytick_36">
     <g id="line2d_47">
      <g>
       <use xlink:href="#ma171f6f901" x="50.137685" y="76.520392" style="stroke: #000000; stroke-width: 0.6"/>
      </g>
     </g>
    </g>
    <g id="ytick_37">
     <g id="line2d_48">
      <g>
       <use xlink:href="#ma171f6f901" x="50.137685" y="73.275668" style="stroke: #000000; stroke-width: 0.6"/>
      </g>
     </g>
    </g>
    <g id="ytick_38">
     <g id="line2d_49">
      <g>
       <use xlink:href="#ma171f6f901" x="50.137685" y="70.758865" style="stroke: #000000; stroke-width: 0.6"/>
      </g>
     </g>
    </g>
    <g id="ytick_39">
     <g id="line2d_50">
      <g>
       <use xlink:href="#ma171f6f901" x="50.137685" y="68.702487" style="stroke: #000000; stroke-width: 0.6"/>
      </g>
     </g>
    </g>
    <g id="ytick_40">
     <g id="line2d_51">
      <g>
       <use xlink:href="#ma171f6f901" x="50.137685" y="66.963845" style="stroke: #000000; stroke-width: 0.6"/>
      </g>
     </g>
    </g>
    <g id="ytick_41">
     <g id="line2d_52">
      <g>
       <use xlink:href="#ma171f6f901" x="50.137685" y="65.457764" style="stroke: #000000; stroke-width: 0.6"/>
      </g>
     </g>
    </g>
    <g id="ytick_42">
     <g id="line2d_53">
      <g>
       <use xlink:href="#ma171f6f901" x="50.137685" y="64.129306" style="stroke: #000000; stroke-width: 0.6"/>
      </g>
     </g>
    </g>
    <g id="ytick_43">
     <g id="line2d_54">
      <g>
       <use xlink:href="#ma171f6f901" x="50.137685" y="55.123056" style="stroke: #000000; stroke-width: 0.6"/>
      </g>
     </g>
    </g>
    <g id="ytick_44">
     <g id="line2d_55">
      <g>
       <use xlink:href="#ma171f6f901" x="50.137685" y="50.549875" style="stroke: #000000; stroke-width: 0.6"/>
      </g>
     </g>
    </g>
    <g id="ytick_45">
     <g id="line2d_56">
      <g>
       <use xlink:href="#ma171f6f901" x="50.137685" y="47.305151" style="stroke: #000000; stroke-width: 0.6"/>
      </g>
     </g>
    </g>
    <g id="ytick_46">
     <g id="line2d_57">
      <g>
       <use xlink:href="#ma171f6f901" x="50.137685" y="44.788348" style="stroke: #000000; stroke-width: 0.6"/>
      </g>
     </g>
    </g>
    <g id="ytick_47">
     <g id="line2d_58">
      <g>
       <use xlink:href="#ma171f6f901" x="50.137685" y="42.73197" style="stroke: #000000; stroke-width: 0.6"/>
      </g>
     </g>
    </g>
    <g id="ytick_48">
     <g id="line2d_59">
      <g>
       <use xlink:href="#ma171f6f901" x="50.137685" y="40.993328" style="stroke: #000000; stroke-width: 0.6"/>
      </g>
     </g>
    </g>
    <g id="ytick_49">
     <g id="line2d_60">
      <g>
       <use xlink:href="#ma171f6f901" x="50.137685" y="39.487247" style="stroke: #000000; stroke-width: 0.6"/>
      </g>
     </g>
    </g>
    <g id="ytick_50">
     <g id="line2d_61">
      <g>
       <use xlink:href="#ma171f6f901" x="50.137685" y="38.158789" style="stroke: #000000; stroke-width: 0.6"/>
      </g>
     </g>
    </g>
    <g id="ytick_51">
     <g id="line2d_62">
      <g>
       <use xlink:href="#ma171f6f901" x="50.137685" y="29.152539" style="stroke: #000000; stroke-width: 0.6"/>
      </g>
     </g>
    </g>
    <g id="text_13">
     <!-- cum #msg -->
     <g transform="translate(19.457997 128.396406)rotate(-90)scale(0.1 -0.1)">
      <defs>
       <path id="DejaVuSans-63" d="M 3122 3366 
L 3122 2828 
Q 2878 2963 2633 3030 
Q 2388 3097 2138 3097 
Q 1578 3097 1268 2742 
Q 959 2388 959 1747 
Q 959 1106 1268 751 
Q 1578 397 2138 397 
Q 2388 397 2633 464 
Q 2878 531 3122 666 
L 3122 134 
Q 2881 22 2623 -34 
Q 2366 -91 2075 -91 
Q 1284 -91 818 406 
Q 353 903 353 1747 
Q 353 2603 823 3093 
Q 1294 3584 2113 3584 
Q 2378 3584 2631 3529 
Q 2884 3475 3122 3366 
z
" transform="scale(0.015625)"/>
       <path id="DejaVuSans-75" d="M 544 1381 
L 544 3500 
L 1119 3500 
L 1119 1403 
Q 1119 906 1312 657 
Q 1506 409 1894 409 
Q 2359 409 2629 706 
Q 2900 1003 2900 1516 
L 2900 3500 
L 3475 3500 
L 3475 0 
L 2900 0 
L 2900 538 
Q 2691 219 2414 64 
Q 2138 -91 1772 -91 
Q 1169 -91 856 284 
Q 544 659 544 1381 
z
M 1991 3584 
L 1991 3584 
z
" transform="scale(0.015625)"/>
       <path id="DejaVuSans-23" d="M 3272 2816 
L 2363 2816 
L 2100 1772 
L 3016 1772 
L 3272 2816 
z
M 2803 4594 
L 2478 3297 
L 3391 3297 
L 3719 4594 
L 4219 4594 
L 3897 3297 
L 4872 3297 
L 4872 2816 
L 3775 2816 
L 3519 1772 
L 4513 1772 
L 4513 1294 
L 3397 1294 
L 3072 0 
L 2572 0 
L 2894 1294 
L 1978 1294 
L 1656 0 
L 1153 0 
L 1478 1294 
L 494 1294 
L 494 1772 
L 1594 1772 
L 1856 2816 
L 850 2816 
L 850 3297 
L 1978 3297 
L 2297 4594 
L 2803 4594 
z
" transform="scale(0.015625)"/>
       <path id="DejaVuSans-67" d="M 2906 1791 
Q 2906 2416 2648 2759 
Q 2391 3103 1925 3103 
Q 1463 3103 1205 2759 
Q 947 2416 947 1791 
Q 947 1169 1205 825 
Q 1463 481 1925 481 
Q 2391 481 2648 825 
Q 2906 1169 2906 1791 
z
M 3481 434 
Q 3481 -459 3084 -895 
Q 2688 -1331 1869 -1331 
Q 1566 -1331 1297 -1286 
Q 1028 -1241 775 -1147 
L 775 -588 
Q 1028 -725 1275 -790 
Q 1522 -856 1778 -856 
Q 2344 -856 2625 -561 
Q 2906 -266 2906 331 
L 2906 616 
Q 2728 306 2450 153 
Q 2172 0 1784 0 
Q 1141 0 747 490 
Q 353 981 353 1791 
Q 353 2603 747 3093 
Q 1141 3584 1784 3584 
Q 2172 3584 2450 3431 
Q 2728 3278 2906 2969 
L 2906 3500 
L 3481 3500 
L 3481 434 
z
" transform="scale(0.015625)"/>
      </defs>
      <use xlink:href="#DejaVuSans-63"/>
      <use xlink:href="#DejaVuSans-75" x="54.980469"/>
      <use xlink:href="#DejaVuSans-6d" x="118.359375"/>
      <use xlink:href="#DejaVuSans-20" x="215.771484"/>
      <use xlink:href="#DejaVuSans-23" x="247.558594"/>
      <use xlink:href="#DejaVuSans-6d" x="331.347656"/>
      <use xlink:href="#DejaVuSans-73" x="428.759766"/>
      <use xlink:href="#DejaVuSans-67" x="480.859375"/>
     </g>
    </g>
   </g>
   <g id="line2d_63">
    <path d="M 60.333404 217 
L 60.333407 167.416364 
L 60.335018 159.598459 
L 60.336628 155.025278 
L 60.338239 151.780554 
L 60.339849 149.263751 
L 60.34146 147.207373 
L 60.343071 145.468731 
L 60.344681 143.96265 
L 60.346292 142.634192 
L 60.347902 141.445847 
L 60.349513 140.370857 
L 60.351124 139.389469 
L 60.352734 138.486679 
L 60.354345 137.650826 
L 60.355956 136.872666 
L 60.357566 136.144745 
L 60.359177 135.460969 
L 60.360787 134.816288 
L 60.362398 134.206472 
L 60.364009 133.627942 
L 60.365619 133.077645 
L 60.36723 132.552953 
L 60.36884 132.051588 
L 60.370451 131.571564 
L 60.372062 131.111139 
L 60.373672 130.668774 
L 60.375283 130.243107 
L 60.376893 129.832922 
L 60.378504 129.437132 
L 60.380115 129.054761 
L 60.381725 128.68493 
L 60.383336 128.326841 
L 60.384946 127.979772 
L 60.386557 127.643065 
L 60.388168 127.316118 
L 60.389778 126.998383 
L 60.391389 126.689354 
L 60.392999 126.388567 
L 60.39461 126.095593 
L 60.396221 125.810038 
L 60.397831 125.531533 
L 60.399442 125.259741 
L 60.401053 124.994344 
L 60.402663 124.735048 
L 60.404274 124.48158 
L 60.405884 124.233683 
L 60.407495 123.991118 
L 60.409106 123.75366 
L 60.410716 123.521098 
L 60.412327 123.293234 
L 60.413937 123.069884 
L 60.415548 122.85087 
L 60.417159 122.636028 
L 60.418769 122.425202 
L 60.42038 122.218245 
L 60.42199 122.015017 
L 60.423601 121.815386 
L 60.425212 121.619227 
L 60.426822 121.426422 
L 60.428433 121.236857 
L 60.430043 121.050425 
L 60.431654 120.867025 
L 60.433265 120.68656 
L 60.434875 120.508936 
L 60.436486 120.334067 
L 60.438097 120.161867 
L 60.439707 119.992257 
L 60.441318 119.82516 
L 60.442928 119.660502 
L 60.444539 119.498214 
L 60.44615 119.338227 
L 60.44776 119.180479 
L 60.449371 119.024906 
L 60.450981 118.87145 
L 60.452592 118.720053 
L 60.454203 118.570662 
L 60.455813 118.423224 
L 60.457424 118.277689 
L 60.459034 118.134007 
L 60.460645 117.992133 
L 60.462256 117.852021 
L 60.463866 117.713629 
L 60.465477 117.576914 
L 60.467087 117.441836 
L 60.468698 117.308357 
L 60.470309 117.176439 
L 60.471919 117.046046 
L 60.47353 116.917144 
L 60.475141 116.789698 
L 60.476751 116.663676 
L 60.478362 116.539046 
L 60.479972 116.415779 
L 60.481583 116.293844 
L 60.483194 116.173213 
L 60.484804 116.053859 
L 60.486415 115.935755 
L 60.488025 115.818875 
L 60.489636 115.703193 
L 60.491247 115.588686 
" clip-path="url(#p3c26526658)" style="fill: none; stroke-dasharray: 5.55,2.4; stroke-dashoffset: 0; stroke: #1f77b4; stroke-width: 1.5"/>
   </g>
   <g id="line2d_64">
    <path d="M 60.331796 123.470006 
L 60.671317 105.477932 
L 61.180598 97.156959 
L 61.85964 90.46147 
L 62.368921 87.275454 
L 63.557244 82.374407 
L 64.236285 80.255867 
L 65.594369 76.81675 
L 66.443171 75.161231 
L 67.801254 72.781907 
L 69.498858 70.459473 
L 71.196462 68.452445 
L 73.063826 66.592506 
L 75.270711 64.729227 
L 77.647357 63.01667 
L 80.363523 61.332678 
L 83.41921 59.697619 
L 86.984178 58.048562 
L 91.058428 56.418557 
L 95.641958 54.831355 
L 100.90453 53.244779 
L 106.846144 51.688287 
L 113.80632 50.100355 
L 121.615298 48.550474 
L 130.612599 46.99448 
L 140.967983 45.434731 
L 152.68145 43.898031 
L 166.262282 42.342727 
L 181.880238 40.784709 
L 199.705079 39.235872 
L 220.076327 37.692723 
L 243.503261 36.144724 
L 264.214029 34.943636 
L 264.214029 34.943636 
" clip-path="url(#p3c26526658)" style="fill: none; stroke: #ff7f0e; stroke-width: 1.5; stroke-linecap: square"/>
   </g>
   <g id="line2d_65">
    <path d="M 60.331796 125.560247 
L 60.671317 106.035336 
L 61.180598 97.472953 
L 61.85964 90.600789 
L 62.368921 87.40004 
L 63.727004 81.840156 
L 64.406046 79.841064 
L 65.933889 76.156383 
L 66.612931 74.861628 
L 67.631493 73.055635 
L 69.159337 70.908052 
L 70.856941 68.829713 
L 72.894066 66.755194 
L 74.76143 65.136289 
L 76.968315 63.482035 
L 79.854242 61.632171 
L 83.079689 59.86965 
L 86.644657 58.197483 
L 90.549146 56.612714 
L 94.793156 55.10953 
L 100.055728 53.487569 
L 106.167103 51.855882 
L 112.957518 50.282637 
L 120.596736 48.741295 
L 129.254516 47.216455 
L 139.6099 45.628106 
L 151.493128 44.044986 
L 164.564678 42.525809 
L 180.182634 40.944195 
L 197.837715 39.388916 
L 219.736806 37.71681 
L 242.824219 36.18709 
L 264.214029 34.943636 
L 264.214029 34.943636 
" clip-path="url(#p3c26526658)" style="fill: none; stroke: #2ca02c; stroke-width: 1.5; stroke-linecap: square"/>
   </g>
   <g id="line2d_66">
    <path d="M 60.331796 125.618536 
L 60.671317 106.169979 
L 61.180598 97.53093 
L 61.85964 90.600789 
L 62.368921 87.40004 
L 63.727004 81.841964 
L 64.406046 79.841064 
L 65.933889 76.157475 
L 66.612931 74.8639 
L 67.631493 73.055635 
L 69.159337 70.908052 
L 70.856941 68.829713 
L 72.894066 66.755194 
L 74.76143 65.136289 
L 76.968315 63.482035 
L 79.854242 61.632171 
L 83.079689 59.86965 
L 86.644657 58.199705 
L 90.379386 56.678679 
L 94.793156 55.110036 
L 101.413812 53.104526 
L 107.355425 51.564246 
L 122.12458 48.45715 
L 131.291641 46.885829 
L 142.495827 45.223214 
L 154.209294 43.712006 
L 167.959886 42.162676 
L 183.408082 40.643775 
L 201.063163 39.126924 
L 221.43441 37.59704 
L 244.012542 36.113853 
L 264.214029 34.943636 
L 264.214029 34.943636 
" clip-path="url(#p3c26526658)" style="fill: none; stroke: #d62728; stroke-width: 1.5; stroke-linecap: square"/>
   </g>
   <g id="line2d_67">
    <path d="M 60.331796 126.187842 
L 60.671317 105.978852 
L 61.180598 97.393719 
L 61.85964 90.591622 
L 62.368921 87.373438 
L 63.557244 82.437761 
L 64.236285 80.308347 
L 65.594369 76.855413 
L 66.443171 75.194608 
L 67.801254 72.808929 
L 69.498858 70.481461 
L 71.196462 68.470846 
L 73.063826 66.608107 
L 75.270711 64.742451 
L 77.647357 63.02803 
L 80.363523 61.342463 
L 83.41921 59.706082 
L 86.984178 58.055873 
L 91.058428 56.424885 
L 95.641958 54.836852 
L 100.90453 53.249554 
L 106.846144 51.692446 
L 113.80632 50.103968 
L 121.615298 48.553623 
L 130.612599 46.997223 
L 140.967983 45.43712 
L 152.68145 43.900116 
L 166.262282 42.344543 
L 181.880238 40.786291 
L 199.705079 39.237251 
L 220.076327 37.693926 
L 243.503261 36.145772 
L 264.214029 34.944579 
L 264.214029 34.944579 
" clip-path="url(#p3c26526658)" style="fill: none; stroke: #9467bd; stroke-width: 1.5; stroke-linecap: square"/>
   </g>
   <g id="patch_3">
    <path d="M 50.137685 174.04 
L 50.137685 28.32 
" style="fill: none; stroke: #000000; stroke-width: 0.8; stroke-linejoin: miter; stroke-linecap: square"/>
   </g>
   <g id="patch_4">
    <path d="M 274.40814 174.04 
L 274.40814 28.32 
" style="fill: none; stroke: #000000; stroke-width: 0.8; stroke-linejoin: miter; stroke-linecap: square"/>
   </g>
   <g id="patch_5">
    <path d="M 50.137685 174.04 
L 274.40814 174.04 
" style="fill: none; stroke: #000000; stroke-width: 0.8; stroke-linejoin: miter; stroke-linecap: square"/>
   </g>
   <g id="patch_6">
    <path d="M 50.137685 28.32 
L 274.40814 28.32 
" style="fill: none; stroke: #000000; stroke-width: 0.8; stroke-linejoin: miter; stroke-linecap: square"/>
   </g>
   <g id="text_14">
    <!-- $dev=100,f=1,msg/s=100,d=12000$ -->
    <g transform="translate(42.872913 22.32)scale(0.12 -0.12)">
     <defs>
      <path id="DejaVuSans-Oblique-64" d="M 2675 525 
Q 2444 222 2128 65 
Q 1813 -91 1428 -91 
Q 903 -91 598 267 
Q 294 625 294 1247 
Q 294 1766 478 2236 
Q 663 2706 1013 3078 
Q 1244 3325 1534 3454 
Q 1825 3584 2144 3584 
Q 2481 3584 2739 3421 
Q 2997 3259 3138 2956 
L 3513 4863 
L 4091 4863 
L 3144 0 
L 2566 0 
L 2675 525 
z
M 891 1350 
Q 891 897 1095 644 
Q 1300 391 1663 391 
Q 1931 391 2161 520 
Q 2391 650 2566 903 
Q 2750 1166 2856 1509 
Q 2963 1853 2963 2188 
Q 2963 2622 2758 2865 
Q 2553 3109 2194 3109 
Q 1922 3109 1687 2981 
Q 1453 2853 1288 2613 
Q 1106 2353 998 2009 
Q 891 1666 891 1350 
z
" transform="scale(0.015625)"/>
      <path id="DejaVuSans-Oblique-65" d="M 3078 2063 
Q 3088 2113 3092 2166 
Q 3097 2219 3097 2272 
Q 3097 2653 2873 2875 
Q 2650 3097 2266 3097 
Q 1838 3097 1509 2826 
Q 1181 2556 1013 2059 
L 3078 2063 
z
M 3578 1613 
L 903 1613 
Q 884 1494 878 1425 
Q 872 1356 872 1306 
Q 872 872 1139 634 
Q 1406 397 1894 397 
Q 2269 397 2603 481 
Q 2938 566 3225 728 
L 3116 159 
Q 2806 34 2476 -28 
Q 2147 -91 1806 -91 
Q 1078 -91 686 257 
Q 294 606 294 1247 
Q 294 1794 489 2264 
Q 684 2734 1063 3103 
Q 1306 3334 1642 3459 
Q 1978 3584 2356 3584 
Q 2950 3584 3301 3228 
Q 3653 2872 3653 2272 
Q 3653 2128 3634 1964 
Q 3616 1800 3578 1613 
z
" transform="scale(0.015625)"/>
      <path id="DejaVuSans-Oblique-76" d="M 459 3500 
L 1069 3500 
L 1581 525 
L 3256 3500 
L 3866 3500 
L 1875 0 
L 1100 0 
L 459 3500 
z
" transform="scale(0.015625)"/>
      <path id="DejaVuSans-3d" d="M 678 2906 
L 4684 2906 
L 4684 2381 
L 678 2381 
L 678 2906 
z
M 678 1631 
L 4684 1631 
L 4684 1100 
L 678 1100 
L 678 1631 
z
" transform="scale(0.015625)"/>
      <path id="DejaVuSans-2c" d="M 750 794 
L 1409 794 
L 1409 256 
L 897 -744 
L 494 -744 
L 750 256 
L 750 794 
z
" transform="scale(0.015625)"/>
      <path id="DejaVuSans-Oblique-66" d="M 3059 4863 
L 2969 4384 
L 2419 4384 
Q 2106 4384 1964 4261 
Q 1822 4138 1753 3809 
L 1691 3500 
L 2638 3500 
L 2553 3053 
L 1606 3053 
L 1013 0 
L 434 0 
L 1031 3053 
L 481 3053 
L 563 3500 
L 1113 3500 
L 1159 3744 
Q 1278 4363 1576 4613 
Q 1875 4863 2516 4863 
L 3059 4863 
z
" transform="scale(0.015625)"/>
      <path id="DejaVuSans-Oblique-6d" d="M 5747 2113 
L 5338 0 
L 4763 0 
L 5166 2094 
Q 5191 2228 5203 2325 
Q 5216 2422 5216 2491 
Q 5216 2772 5059 2928 
Q 4903 3084 4622 3084 
Q 4203 3084 3875 2770 
Q 3547 2456 3450 1953 
L 3066 0 
L 2491 0 
L 2900 2094 
Q 2925 2209 2937 2307 
Q 2950 2406 2950 2484 
Q 2950 2769 2794 2926 
Q 2638 3084 2363 3084 
Q 1938 3084 1609 2770 
Q 1281 2456 1184 1953 
L 800 0 
L 225 0 
L 909 3500 
L 1484 3500 
L 1375 2956 
Q 1609 3263 1923 3423 
Q 2238 3584 2597 3584 
Q 2978 3584 3223 3384 
Q 3469 3184 3519 2828 
Q 3781 3197 4126 3390 
Q 4472 3584 4856 3584 
Q 5306 3584 5551 3325 
Q 5797 3066 5797 2591 
Q 5797 2488 5784 2364 
Q 5772 2241 5747 2113 
z
" transform="scale(0.015625)"/>
      <path id="DejaVuSans-Oblique-73" d="M 3200 3397 
L 3091 2853 
Q 2863 2978 2609 3040 
Q 2356 3103 2088 3103 
Q 1634 3103 1373 2948 
Q 1113 2794 1113 2528 
Q 1113 2219 1719 2053 
Q 1766 2041 1788 2034 
L 1972 1978 
Q 2547 1819 2739 1644 
Q 2931 1469 2931 1166 
Q 2931 609 2489 259 
Q 2047 -91 1331 -91 
Q 1053 -91 747 -37 
Q 441 16 72 128 
L 184 722 
Q 500 559 806 475 
Q 1113 391 1394 391 
Q 1816 391 2080 572 
Q 2344 753 2344 1031 
Q 2344 1331 1650 1516 
L 1591 1531 
L 1394 1581 
Q 956 1697 753 1886 
Q 550 2075 550 2369 
Q 550 2928 970 3256 
Q 1391 3584 2113 3584 
Q 2397 3584 2667 3537 
Q 2938 3491 3200 3397 
z
" transform="scale(0.015625)"/>
      <path id="DejaVuSans-Oblique-67" d="M 3816 3500 
L 3219 434 
Q 3047 -456 2561 -893 
Q 2075 -1331 1253 -1331 
Q 950 -1331 690 -1286 
Q 431 -1241 206 -1147 
L 313 -588 
Q 525 -725 762 -790 
Q 1000 -856 1269 -856 
Q 1816 -856 2167 -557 
Q 2519 -259 2631 300 
L 2681 563 
Q 2441 288 2122 144 
Q 1803 0 1434 0 
Q 903 0 598 351 
Q 294 703 294 1319 
Q 294 1803 478 2267 
Q 663 2731 997 3091 
Q 1219 3328 1514 3456 
Q 1809 3584 2131 3584 
Q 2484 3584 2746 3420 
Q 3009 3256 3138 2956 
L 3238 3500 
L 3816 3500 
z
M 2950 2216 
Q 2950 2641 2750 2872 
Q 2550 3103 2181 3103 
Q 1953 3103 1747 3012 
Q 1541 2922 1394 2759 
Q 1156 2491 1023 2127 
Q 891 1763 891 1375 
Q 891 944 1092 712 
Q 1294 481 1672 481 
Q 2219 481 2584 976 
Q 2950 1472 2950 2216 
z
" transform="scale(0.015625)"/>
      <path id="DejaVuSans-2f" d="M 1625 4666 
L 2156 4666 
L 531 -594 
L 0 -594 
L 1625 4666 
z
" transform="scale(0.015625)"/>
     </defs>
     <use xlink:href="#DejaVuSans-Oblique-64" transform="translate(0 0.015625)"/>
     <use xlink:href="#DejaVuSans-Oblique-65" transform="translate(63.476562 0.015625)"/>
     <use xlink:href="#DejaVuSans-Oblique-76" transform="translate(125 0.015625)"/>
     <use xlink:href="#DejaVuSans-3d" transform="translate(203.662109 0.015625)"/>
     <use xlink:href="#DejaVuSans-31" transform="translate(306.933594 0.015625)"/>
     <use xlink:href="#DejaVuSans-30" transform="translate(370.556641 0.015625)"/>
     <use xlink:href="#DejaVuSans-30" transform="translate(434.179688 0.015625)"/>
     <use xlink:href="#DejaVuSans-2c" transform="translate(497.802734 0.015625)"/>
     <use xlink:href="#DejaVuSans-Oblique-66" transform="translate(549.072266 0.015625)"/>
     <use xlink:href="#DejaVuSans-3d" transform="translate(603.759766 0.015625)"/>
     <use xlink:href="#DejaVuSans-31" transform="translate(707.03125 0.015625)"/>
     <use xlink:href="#DejaVuSans-2c" transform="translate(770.654297 0.015625)"/>
     <use xlink:href="#DejaVuSans-Oblique-6d" transform="translate(821.923828 0.015625)"/>
     <use xlink:href="#DejaVuSans-Oblique-73" transform="translate(919.335938 0.015625)"/>
     <use xlink:href="#DejaVuSans-Oblique-67" transform="translate(971.435547 0.015625)"/>
     <use xlink:href="#DejaVuSans-2f" transform="translate(1034.912109 0.015625)"/>
     <use xlink:href="#DejaVuSans-Oblique-73" transform="translate(1068.603516 0.015625)"/>
     <use xlink:href="#DejaVuSans-3d" transform="translate(1140.185547 0.015625)"/>
     <use xlink:href="#DejaVuSans-31" transform="translate(1243.457031 0.015625)"/>
     <use xlink:href="#DejaVuSans-30" transform="translate(1307.080078 0.015625)"/>
     <use xlink:href="#DejaVuSans-30" transform="translate(1370.703125 0.015625)"/>
     <use xlink:href="#DejaVuSans-2c" transform="translate(1434.326172 0.015625)"/>
     <use xlink:href="#DejaVuSans-Oblique-64" transform="translate(1485.595703 0.015625)"/>
     <use xlink:href="#DejaVuSans-3d" transform="translate(1568.554688 0.015625)"/>
     <use xlink:href="#DejaVuSans-31" transform="translate(1671.826172 0.015625)"/>
     <use xlink:href="#DejaVuSans-32" transform="translate(1735.449219 0.015625)"/>
     <use xlink:href="#DejaVuSans-30" transform="translate(1799.072266 0.015625)"/>
     <use xlink:href="#DejaVuSans-30" transform="translate(1862.695312 0.015625)"/>
     <use xlink:href="#DejaVuSans-30" transform="translate(1926.318359 0.015625)"/>
    </g>
   </g>
   <g id="legend_1">
    <g id="patch_7">
     <path d="M 191.050328 169.04 
L 267.40814 169.04 
Q 269.40814 169.04 269.40814 167.04 
L 269.40814 94.649375 
Q 269.40814 92.649375 267.40814 92.649375 
L 191.050328 92.649375 
Q 189.050328 92.649375 189.050328 94.649375 
L 189.050328 167.04 
Q 189.050328 169.04 191.050328 169.04 
z
" style="fill: #ffffff; opacity: 0.8; stroke: #cccccc; stroke-linejoin: miter"/>
    </g>
    <g id="line2d_68">
     <path d="M 193.050328 100.747813 
L 203.050328 100.747813 
L 213.050328 100.747813 
" style="fill: none; stroke-dasharray: 5.55,2.4; stroke-dashoffset: 0; stroke: #1f77b4; stroke-width: 1.5"/>
    </g>
    <g id="text_15">
     <!-- Optimal -->
     <g transform="translate(221.050328 104.247813)scale(0.1 -0.1)">
      <defs>
       <path id="DejaVuSans-4f" d="M 2522 4238 
Q 1834 4238 1429 3725 
Q 1025 3213 1025 2328 
Q 1025 1447 1429 934 
Q 1834 422 2522 422 
Q 3209 422 3611 934 
Q 4013 1447 4013 2328 
Q 4013 3213 3611 3725 
Q 3209 4238 2522 4238 
z
M 2522 4750 
Q 3503 4750 4090 4092 
Q 4678 3434 4678 2328 
Q 4678 1225 4090 567 
Q 3503 -91 2522 -91 
Q 1538 -91 948 565 
Q 359 1222 359 2328 
Q 359 3434 948 4092 
Q 1538 4750 2522 4750 
z
" transform="scale(0.015625)"/>
       <path id="DejaVuSans-70" d="M 1159 525 
L 1159 -1331 
L 581 -1331 
L 581 3500 
L 1159 3500 
L 1159 2969 
Q 1341 3281 1617 3432 
Q 1894 3584 2278 3584 
Q 2916 3584 3314 3078 
Q 3713 2572 3713 1747 
Q 3713 922 3314 415 
Q 2916 -91 2278 -91 
Q 1894 -91 1617 61 
Q 1341 213 1159 525 
z
M 3116 1747 
Q 3116 2381 2855 2742 
Q 2594 3103 2138 3103 
Q 1681 3103 1420 2742 
Q 1159 2381 1159 1747 
Q 1159 1113 1420 752 
Q 1681 391 2138 391 
Q 2594 391 2855 752 
Q 3116 1113 3116 1747 
z
" transform="scale(0.015625)"/>
       <path id="DejaVuSans-74" d="M 1172 4494 
L 1172 3500 
L 2356 3500 
L 2356 3053 
L 1172 3053 
L 1172 1153 
Q 1172 725 1289 603 
Q 1406 481 1766 481 
L 2356 481 
L 2356 0 
L 1766 0 
Q 1100 0 847 248 
Q 594 497 594 1153 
L 594 3053 
L 172 3053 
L 172 3500 
L 594 3500 
L 594 4494 
L 1172 4494 
z
" transform="scale(0.015625)"/>
       <path id="DejaVuSans-61" d="M 2194 1759 
Q 1497 1759 1228 1600 
Q 959 1441 959 1056 
Q 959 750 1161 570 
Q 1363 391 1709 391 
Q 2188 391 2477 730 
Q 2766 1069 2766 1631 
L 2766 1759 
L 2194 1759 
z
M 3341 1997 
L 3341 0 
L 2766 0 
L 2766 531 
Q 2569 213 2275 61 
Q 1981 -91 1556 -91 
Q 1019 -91 701 211 
Q 384 513 384 1019 
Q 384 1609 779 1909 
Q 1175 2209 1959 2209 
L 2766 2209 
L 2766 2266 
Q 2766 2663 2505 2880 
Q 2244 3097 1772 3097 
Q 1472 3097 1187 3025 
Q 903 2953 641 2809 
L 641 3341 
Q 956 3463 1253 3523 
Q 1550 3584 1831 3584 
Q 2591 3584 2966 3190 
Q 3341 2797 3341 1997 
z
" transform="scale(0.015625)"/>
       <path id="DejaVuSans-6c" d="M 603 4863 
L 1178 4863 
L 1178 0 
L 603 0 
L 603 4863 
z
" transform="scale(0.015625)"/>
      </defs>
      <use xlink:href="#DejaVuSans-4f"/>
      <use xlink:href="#DejaVuSans-70" x="78.710938"/>
      <use xlink:href="#DejaVuSans-74" x="142.1875"/>
      <use xlink:href="#DejaVuSans-69" x="181.396484"/>
      <use xlink:href="#DejaVuSans-6d" x="209.179688"/>
      <use xlink:href="#DejaVuSans-61" x="306.591797"/>
      <use xlink:href="#DejaVuSans-6c" x="367.871094"/>
     </g>
    </g>
    <g id="line2d_69">
     <path d="M 193.050328 115.425938 
L 203.050328 115.425938 
L 213.050328 115.425938 
" style="fill: none; stroke: #ff7f0e; stroke-width: 1.5; stroke-linecap: square"/>
    </g>
    <g id="text_16">
     <!-- Device -->
     <g transform="translate(221.050328 118.925938)scale(0.1 -0.1)">
      <defs>
       <path id="DejaVuSans-44" d="M 1259 4147 
L 1259 519 
L 2022 519 
Q 2988 519 3436 956 
Q 3884 1394 3884 2338 
Q 3884 3275 3436 3711 
Q 2988 4147 2022 4147 
L 1259 4147 
z
M 628 4666 
L 1925 4666 
Q 3281 4666 3915 4102 
Q 4550 3538 4550 2338 
Q 4550 1131 3912 565 
Q 3275 0 1925 0 
L 628 0 
L 628 4666 
z
" transform="scale(0.015625)"/>
       <path id="DejaVuSans-76" d="M 191 3500 
L 800 3500 
L 1894 563 
L 2988 3500 
L 3597 3500 
L 2284 0 
L 1503 0 
L 191 3500 
z
" transform="scale(0.015625)"/>
      </defs>
      <use xlink:href="#DejaVuSans-44"/>
      <use xlink:href="#DejaVuSans-65" x="77.001953"/>
      <use xlink:href="#DejaVuSans-76" x="138.525391"/>
      <use xlink:href="#DejaVuSans-69" x="197.705078"/>
      <use xlink:href="#DejaVuSans-63" x="225.488281"/>
      <use xlink:href="#DejaVuSans-65" x="280.46875"/>
     </g>
    </g>
    <g id="line2d_70">
     <path d="M 193.050328 130.104062 
L 203.050328 130.104062 
L 213.050328 130.104062 
" style="fill: none; stroke: #2ca02c; stroke-width: 1.5; stroke-linecap: square"/>
    </g>
    <g id="text_17">
     <!-- OCB-Sub -->
     <g transform="translate(221.050328 133.604062)scale(0.1 -0.1)">
      <defs>
       <path id="DejaVuSans-43" d="M 4122 4306 
L 4122 3641 
Q 3803 3938 3442 4084 
Q 3081 4231 2675 4231 
Q 1875 4231 1450 3742 
Q 1025 3253 1025 2328 
Q 1025 1406 1450 917 
Q 1875 428 2675 428 
Q 3081 428 3442 575 
Q 3803 722 4122 1019 
L 4122 359 
Q 3791 134 3420 21 
Q 3050 -91 2638 -91 
Q 1578 -91 968 557 
Q 359 1206 359 2328 
Q 359 3453 968 4101 
Q 1578 4750 2638 4750 
Q 3056 4750 3426 4639 
Q 3797 4528 4122 4306 
z
" transform="scale(0.015625)"/>
       <path id="DejaVuSans-42" d="M 1259 2228 
L 1259 519 
L 2272 519 
Q 2781 519 3026 730 
Q 3272 941 3272 1375 
Q 3272 1813 3026 2020 
Q 2781 2228 2272 2228 
L 1259 2228 
z
M 1259 4147 
L 1259 2741 
L 2194 2741 
Q 2656 2741 2882 2914 
Q 3109 3088 3109 3444 
Q 3109 3797 2882 3972 
Q 2656 4147 2194 4147 
L 1259 4147 
z
M 628 4666 
L 2241 4666 
Q 2963 4666 3353 4366 
Q 3744 4066 3744 3513 
Q 3744 3084 3544 2831 
Q 3344 2578 2956 2516 
Q 3422 2416 3680 2098 
Q 3938 1781 3938 1306 
Q 3938 681 3513 340 
Q 3088 0 2303 0 
L 628 0 
L 628 4666 
z
" transform="scale(0.015625)"/>
       <path id="DejaVuSans-2d" d="M 313 2009 
L 1997 2009 
L 1997 1497 
L 313 1497 
L 313 2009 
z
" transform="scale(0.015625)"/>
       <path id="DejaVuSans-53" d="M 3425 4513 
L 3425 3897 
Q 3066 4069 2747 4153 
Q 2428 4238 2131 4238 
Q 1616 4238 1336 4038 
Q 1056 3838 1056 3469 
Q 1056 3159 1242 3001 
Q 1428 2844 1947 2747 
L 2328 2669 
Q 3034 2534 3370 2195 
Q 3706 1856 3706 1288 
Q 3706 609 3251 259 
Q 2797 -91 1919 -91 
Q 1588 -91 1214 -16 
Q 841 59 441 206 
L 441 856 
Q 825 641 1194 531 
Q 1563 422 1919 422 
Q 2459 422 2753 634 
Q 3047 847 3047 1241 
Q 3047 1584 2836 1778 
Q 2625 1972 2144 2069 
L 1759 2144 
Q 1053 2284 737 2584 
Q 422 2884 422 3419 
Q 422 4038 858 4394 
Q 1294 4750 2059 4750 
Q 2388 4750 2728 4690 
Q 3069 4631 3425 4513 
z
" transform="scale(0.015625)"/>
       <path id="DejaVuSans-62" d="M 3116 1747 
Q 3116 2381 2855 2742 
Q 2594 3103 2138 3103 
Q 1681 3103 1420 2742 
Q 1159 2381 1159 1747 
Q 1159 1113 1420 752 
Q 1681 391 2138 391 
Q 2594 391 2855 752 
Q 3116 1113 3116 1747 
z
M 1159 2969 
Q 1341 3281 1617 3432 
Q 1894 3584 2278 3584 
Q 2916 3584 3314 3078 
Q 3713 2572 3713 1747 
Q 3713 922 3314 415 
Q 2916 -91 2278 -91 
Q 1894 -91 1617 61 
Q 1341 213 1159 525 
L 1159 0 
L 581 0 
L 581 4863 
L 1159 4863 
L 1159 2969 
z
" transform="scale(0.015625)"/>
      </defs>
      <use xlink:href="#DejaVuSans-4f"/>
      <use xlink:href="#DejaVuSans-43" x="78.710938"/>
      <use xlink:href="#DejaVuSans-42" x="148.535156"/>
      <use xlink:href="#DejaVuSans-2d" x="217.138672"/>
      <use xlink:href="#DejaVuSans-53" x="253.222656"/>
      <use xlink:href="#DejaVuSans-75" x="316.699219"/>
      <use xlink:href="#DejaVuSans-62" x="380.078125"/>
     </g>
    </g>
    <g id="line2d_71">
     <path d="M 193.050328 144.782188 
L 203.050328 144.782188 
L 213.050328 144.782188 
" style="fill: none; stroke: #d62728; stroke-width: 1.5; stroke-linecap: square"/>
    </g>
    <g id="text_18">
     <!-- Kafka -->
     <g transform="translate(221.050328 148.282188)scale(0.1 -0.1)">
      <defs>
       <path id="DejaVuSans-4b" d="M 628 4666 
L 1259 4666 
L 1259 2694 
L 3353 4666 
L 4166 4666 
L 1850 2491 
L 4331 0 
L 3500 0 
L 1259 2247 
L 1259 0 
L 628 0 
L 628 4666 
z
" transform="scale(0.015625)"/>
       <path id="DejaVuSans-66" d="M 2375 4863 
L 2375 4384 
L 1825 4384 
Q 1516 4384 1395 4259 
Q 1275 4134 1275 3809 
L 1275 3500 
L 2222 3500 
L 2222 3053 
L 1275 3053 
L 1275 0 
L 697 0 
L 697 3053 
L 147 3053 
L 147 3500 
L 697 3500 
L 697 3744 
Q 697 4328 969 4595 
Q 1241 4863 1831 4863 
L 2375 4863 
z
" transform="scale(0.015625)"/>
       <path id="DejaVuSans-6b" d="M 581 4863 
L 1159 4863 
L 1159 1991 
L 2875 3500 
L 3609 3500 
L 1753 1863 
L 3688 0 
L 2938 0 
L 1159 1709 
L 1159 0 
L 581 0 
L 581 4863 
z
" transform="scale(0.015625)"/>
      </defs>
      <use xlink:href="#DejaVuSans-4b"/>
      <use xlink:href="#DejaVuSans-61" x="63.826172"/>
      <use xlink:href="#DejaVuSans-66" x="125.105469"/>
      <use xlink:href="#DejaVuSans-6b" x="160.310547"/>
      <use xlink:href="#DejaVuSans-61" x="216.470703"/>
     </g>
    </g>
    <g id="line2d_72">
     <path d="M 193.050328 159.460313 
L 203.050328 159.460313 
L 213.050328 159.460313 
" style="fill: none; stroke: #9467bd; stroke-width: 1.5; stroke-linecap: square"/>
    </g>
    <g id="text_19">
     <!-- IoTA -->
     <g transform="translate(221.050328 162.960313)scale(0.1 -0.1)">
      <defs>
       <path id="DejaVuSans-49" d="M 628 4666 
L 1259 4666 
L 1259 0 
L 628 0 
L 628 4666 
z
" transform="scale(0.015625)"/>
       <path id="DejaVuSans-6f" d="M 1959 3097 
Q 1497 3097 1228 2736 
Q 959 2375 959 1747 
Q 959 1119 1226 758 
Q 1494 397 1959 397 
Q 2419 397 2687 759 
Q 2956 1122 2956 1747 
Q 2956 2369 2687 2733 
Q 2419 3097 1959 3097 
z
M 1959 3584 
Q 2709 3584 3137 3096 
Q 3566 2609 3566 1747 
Q 3566 888 3137 398 
Q 2709 -91 1959 -91 
Q 1206 -91 779 398 
Q 353 888 353 1747 
Q 353 2609 779 3096 
Q 1206 3584 1959 3584 
z
" transform="scale(0.015625)"/>
       <path id="DejaVuSans-41" d="M 2188 4044 
L 1331 1722 
L 3047 1722 
L 2188 4044 
z
M 1831 4666 
L 2547 4666 
L 4325 0 
L 3669 0 
L 3244 1197 
L 1141 1197 
L 716 0 
L 50 0 
L 1831 4666 
z
" transform="scale(0.015625)"/>
      </defs>
      <use xlink:href="#DejaVuSans-49"/>
      <use xlink:href="#DejaVuSans-6f" x="29.492188"/>
      <use xlink:href="#DejaVuSans-54" x="90.673828"/>
      <use xlink:href="#DejaVuSans-41" x="144.007812"/>
     </g>
    </g>
   </g>
  </g>
  <g id="axes_2">
   <g id="patch_8">
    <path d="M 331.162685 174.04 
L 555.43314 174.04 
L 555.43314 28.32 
L 331.162685 28.32 
z
" style="fill: #ffffff"/>
   </g>
   <g id="matplotlib.axis_3">
    <g id="xtick_6">
     <g id="line2d_73">
      <g>
       <use xlink:href="#ma449396bc7" x="341.356796" y="174.04" style="stroke: #000000; stroke-width: 0.8"/>
      </g>
     </g>
     <g id="text_20">
      <!-- 0 -->
      <g transform="translate(338.175546 188.638438)scale(0.1 -0.1)">
       <use xlink:href="#DejaVuSans-30"/>
      </g>
     </g>
    </g>
    <g id="xtick_7">
     <g id="line2d_74">
      <g>
       <use xlink:href="#ma449396bc7" x="392.327355" y="174.04" style="stroke: #000000; stroke-width: 0.8"/>
      </g>
     </g>
     <g id="text_21">
      <!-- 43230 -->
      <g transform="translate(376.421105 188.638438)scale(0.1 -0.1)">
       <use xlink:href="#DejaVuSans-34"/>
       <use xlink:href="#DejaVuSans-33" x="63.623047"/>
       <use xlink:href="#DejaVuSans-32" x="127.246094"/>
       <use xlink:href="#DejaVuSans-33" x="190.869141"/>
       <use xlink:href="#DejaVuSans-30" x="254.492188"/>
      </g>
     </g>
    </g>
    <g id="xtick_8">
     <g id="line2d_75">
      <g>
       <use xlink:href="#ma449396bc7" x="443.297913" y="174.04" style="stroke: #000000; stroke-width: 0.8"/>
      </g>
     </g>
     <g id="text_22">
      <!-- 86460 -->
      <g transform="translate(427.391663 188.638438)scale(0.1 -0.1)">
       <use xlink:href="#DejaVuSans-38"/>
       <use xlink:href="#DejaVuSans-36" x="63.623047"/>
       <use xlink:href="#DejaVuSans-34" x="127.246094"/>
       <use xlink:href="#DejaVuSans-36" x="190.869141"/>
       <use xlink:href="#DejaVuSans-30" x="254.492188"/>
      </g>
     </g>
    </g>
    <g id="xtick_9">
     <g id="line2d_76">
      <g>
       <use xlink:href="#ma449396bc7" x="494.268471" y="174.04" style="stroke: #000000; stroke-width: 0.8"/>
      </g>
     </g>
     <g id="text_23">
      <!-- 129690 -->
      <g transform="translate(475.180971 188.638438)scale(0.1 -0.1)">
       <use xlink:href="#DejaVuSans-31"/>
       <use xlink:href="#DejaVuSans-32" x="63.623047"/>
       <use xlink:href="#DejaVuSans-39" x="127.246094"/>
       <use xlink:href="#DejaVuSans-36" x="190.869141"/>
       <use xlink:href="#DejaVuSans-39" x="254.492188"/>
       <use xlink:href="#DejaVuSans-30" x="318.115234"/>
      </g>
     </g>
    </g>
    <g id="xtick_10">
     <g id="line2d_77">
      <g>
       <use xlink:href="#ma449396bc7" x="545.239029" y="174.04" style="stroke: #000000; stroke-width: 0.8"/>
      </g>
     </g>
     <g id="text_24">
      <!-- 172920 -->
      <g transform="translate(526.151529 188.638438)scale(0.1 -0.1)">
       <defs>
        <path id="DejaVuSans-37" d="M 525 4666 
L 3525 4666 
L 3525 4397 
L 1831 0 
L 1172 0 
L 2766 4134 
L 525 4134 
L 525 4666 
z
" transform="scale(0.015625)"/>
       </defs>
       <use xlink:href="#DejaVuSans-31"/>
       <use xlink:href="#DejaVuSans-37" x="63.623047"/>
       <use xlink:href="#DejaVuSans-32" x="127.246094"/>
       <use xlink:href="#DejaVuSans-39" x="190.869141"/>
       <use xlink:href="#DejaVuSans-32" x="254.492188"/>
       <use xlink:href="#DejaVuSans-30" x="318.115234"/>
      </g>
     </g>
    </g>
    <g id="text_25">
     <!-- Time (s) -->
     <g transform="translate(422.969006 202.316563)scale(0.1 -0.1)">
      <use xlink:href="#DejaVuSans-54"/>
      <use xlink:href="#DejaVuSans-69" x="57.958984"/>
      <use xlink:href="#DejaVuSans-6d" x="85.742188"/>
      <use xlink:href="#DejaVuSans-65" x="183.154297"/>
      <use xlink:href="#DejaVuSans-20" x="244.677734"/>
      <use xlink:href="#DejaVuSans-28" x="276.464844"/>
      <use xlink:href="#DejaVuSans-73" x="315.478516"/>
      <use xlink:href="#DejaVuSans-29" x="367.578125"/>
     </g>
    </g>
   </g>
   <g id="matplotlib.axis_4">
    <g id="ytick_52">
     <g id="line2d_78">
      <path d="M 331.162685 147.727797 
L 555.43314 147.727797 
" clip-path="url(#p5a93b513b0)" style="fill: none; stroke: #b0b0b0; stroke-width: 0.8; stroke-linecap: square"/>
     </g>
     <g id="line2d_79">
      <g>
       <use xlink:href="#m0a8a64a444" x="331.162685" y="147.727797" style="stroke: #000000; stroke-width: 0.8"/>
      </g>
     </g>
     <g id="text_26">
      <!-- $\mathdefault{10^{2}}$ -->
      <g transform="translate(306.562685 151.527016)scale(0.1 -0.1)">
       <use xlink:href="#DejaVuSans-31" transform="translate(0 0.765625)"/>
       <use xlink:href="#DejaVuSans-30" transform="translate(63.623047 0.765625)"/>
       <use xlink:href="#DejaVuSans-32" transform="translate(128.203125 39.046875)scale(0.7)"/>
      </g>
     </g>
    </g>
    <g id="ytick_53">
     <g id="line2d_80">
      <path d="M 331.162685 104.659347 
L 555.43314 104.659347 
" clip-path="url(#p5a93b513b0)" style="fill: none; stroke: #b0b0b0; stroke-width: 0.8; stroke-linecap: square"/>
     </g>
     <g id="line2d_81">
      <g>
       <use xlink:href="#m0a8a64a444" x="331.162685" y="104.659347" style="stroke: #000000; stroke-width: 0.8"/>
      </g>
     </g>
     <g id="text_27">
      <!-- $\mathdefault{10^{4}}$ -->
      <g transform="translate(306.562685 108.458566)scale(0.1 -0.1)">
       <use xlink:href="#DejaVuSans-31" transform="translate(0 0.684375)"/>
       <use xlink:href="#DejaVuSans-30" transform="translate(63.623047 0.684375)"/>
       <use xlink:href="#DejaVuSans-34" transform="translate(128.203125 38.965625)scale(0.7)"/>
      </g>
     </g>
    </g>
    <g id="ytick_54">
     <g id="line2d_82">
      <path d="M 331.162685 61.590897 
L 555.43314 61.590897 
" clip-path="url(#p5a93b513b0)" style="fill: none; stroke: #b0b0b0; stroke-width: 0.8; stroke-linecap: square"/>
     </g>
     <g id="line2d_83">
      <g>
       <use xlink:href="#m0a8a64a444" x="331.162685" y="61.590897" style="stroke: #000000; stroke-width: 0.8"/>
      </g>
     </g>
     <g id="text_28">
      <!-- $\mathdefault{10^{6}}$ -->
      <g transform="translate(306.562685 65.390116)scale(0.1 -0.1)">
       <use xlink:href="#DejaVuSans-31" transform="translate(0 0.765625)"/>
       <use xlink:href="#DejaVuSans-30" transform="translate(63.623047 0.765625)"/>
       <use xlink:href="#DejaVuSans-36" transform="translate(128.203125 39.046875)scale(0.7)"/>
      </g>
     </g>
    </g>
    <g id="text_29">
     <!-- cum #msg -->
     <g transform="translate(300.482997 128.396406)rotate(-90)scale(0.1 -0.1)">
      <use xlink:href="#DejaVuSans-63"/>
      <use xlink:href="#DejaVuSans-75" x="54.980469"/>
      <use xlink:href="#DejaVuSans-6d" x="118.359375"/>
      <use xlink:href="#DejaVuSans-20" x="215.771484"/>
      <use xlink:href="#DejaVuSans-23" x="247.558594"/>
      <use xlink:href="#DejaVuSans-6d" x="331.347656"/>
      <use xlink:href="#DejaVuSans-73" x="428.759766"/>
      <use xlink:href="#DejaVuSans-67" x="480.859375"/>
     </g>
    </g>
   </g>
   <g id="line2d_84">
    <path d="M 341.35694 217 
L 341.35694 167.416364 
L 341.357084 160.933916 
L 341.357227 157.141927 
L 341.357371 154.451468 
L 341.357515 152.364586 
L 341.357658 150.65948 
L 341.357802 149.217832 
L 341.357945 147.969021 
L 341.358089 146.867491 
L 341.358233 145.882139 
L 341.358376 144.990779 
L 341.35852 144.177032 
L 341.358664 143.428457 
L 341.358807 142.735385 
L 341.358951 142.09015 
L 341.359094 141.486573 
L 341.359238 140.9196 
L 341.359382 140.385043 
L 341.359525 139.879396 
L 341.359669 139.399691 
L 341.359813 138.943396 
L 341.359956 138.508332 
L 341.3601 138.09261 
L 341.360243 137.694584 
L 341.360387 137.312809 
L 341.360531 136.946009 
L 341.360674 136.593054 
L 341.360818 136.252937 
L 341.360962 135.924756 
L 341.361105 135.607702 
L 341.361249 135.301045 
L 341.361393 135.004125 
L 341.361536 134.716343 
L 341.36168 134.437152 
L 341.361823 134.166055 
L 341.361967 133.902595 
L 341.362111 133.646355 
L 341.362254 133.396948 
L 341.362398 133.15402 
L 341.362542 132.917243 
L 341.362685 132.686313 
L 341.362829 132.460948 
L 341.362972 132.240886 
L 341.363116 132.025884 
L 341.36326 131.815713 
L 341.363403 131.610162 
L 341.363547 131.409032 
L 341.363691 131.212137 
L 341.363834 131.019301 
L 341.363978 130.830361 
L 341.364121 130.645163 
L 341.364265 130.463562 
L 341.364409 130.285419 
L 341.364552 130.110607 
L 341.364696 129.939002 
L 341.36484 129.770489 
L 341.364983 129.604959 
L 341.365127 129.442308 
L 341.365271 129.282438 
L 341.365414 129.125255 
L 341.365558 128.970669 
L 341.365701 128.818598 
L 341.365845 128.668959 
L 341.365989 128.521678 
L 341.366132 128.37668 
L 341.366276 128.233895 
L 341.36642 128.093258 
L 341.366563 127.954704 
L 341.366707 127.818174 
L 341.36685 127.683607 
L 341.366994 127.55095 
L 341.367138 127.420148 
L 341.367281 127.29115 
L 341.367425 127.163907 
L 341.367569 127.038373 
L 341.367712 126.914501 
L 341.367856 126.792248 
L 341.367999 126.671573 
L 341.368143 126.552435 
L 341.368287 126.434796 
L 341.36843 126.318618 
L 341.368574 126.203866 
L 341.368718 126.090504 
L 341.368861 125.978501 
L 341.369005 125.867822 
L 341.369148 125.758439 
L 341.369292 125.65032 
L 341.369436 125.543436 
L 341.369579 125.437761 
L 341.369723 125.333266 
L 341.369867 125.229926 
L 341.37001 125.127715 
L 341.370154 125.026609 
L 341.370298 124.926585 
L 341.370441 124.827619 
L 341.370585 124.729689 
L 341.370728 124.632774 
L 341.370872 124.536853 
L 341.371016 124.441906 
" clip-path="url(#p5a93b513b0)" style="fill: none; stroke-dasharray: 5.55,2.4; stroke-dashoffset: 0; stroke: #1f77b4; stroke-width: 1.5"/>
   </g>
   <g id="line2d_85">
    <path d="M 341.356796 134.762902 
L 341.498283 102.647584 
L 341.757675 93.105521 
L 342.134973 86.954877 
L 342.630176 82.373383 
L 343.243285 78.713905 
L 343.974299 75.655396 
L 344.835009 72.999377 
L 345.825416 70.657965 
L 347.098795 68.316244 
L 348.407547 66.396837 
L 349.904947 64.596488 
L 351.602786 62.903188 
L 353.548228 61.277666 
L 355.776642 59.708321 
L 358.335192 58.180937 
L 361.28283 56.684198 
L 364.678509 55.212915 
L 368.604763 53.757998 
L 373.144126 52.317011 
L 378.402712 50.885594 
L 384.498428 49.46118 
L 391.572759 48.041138 
L 399.778984 46.625666 
L 409.30575 45.212922 
L 420.353498 43.804161 
L 433.193409 42.395672 
L 448.096667 40.989303 
L 465.405198 39.583939 
L 485.50809 38.179386 
L 509.372168 36.746711 
L 536.584763 35.342864 
L 545.239029 34.943636 
L 545.239029 34.943636 
" clip-path="url(#p5a93b513b0)" style="fill: none; stroke: #ff7f0e; stroke-width: 1.5; stroke-linecap: square"/>
   </g>
   <g id="line2d_86">
    <path d="M 341.356796 134.762902 
L 341.498283 102.653619 
L 341.757675 93.111504 
L 342.134973 86.961217 
L 342.641967 82.291756 
L 343.255075 78.655733 
L 343.98609 75.613414 
L 344.8468 72.968483 
L 345.813625 70.684659 
L 346.945518 68.569189 
L 348.242479 66.618326 
L 349.716298 64.805097 
L 351.402347 63.087938 
L 353.324207 61.451103 
L 355.51725 59.878063 
L 358.040428 58.344666 
L 360.964485 56.834829 
L 364.313002 55.360664 
L 368.180303 53.904772 
L 372.684294 52.453292 
L 377.907509 51.011473 
L 383.920691 49.587181 
L 390.853535 48.17604 
L 398.941854 46.760628 
L 408.327134 45.348623 
L 419.221605 43.939075 
L 433.110875 42.404083 
L 448.002343 40.997578 
L 464.815671 39.628495 
L 484.824238 38.223861 
L 508.075208 36.819187 
L 535.087363 35.414871 
L 545.239029 34.943636 
L 545.239029 34.943636 
" clip-path="url(#p5a93b513b0)" style="fill: none; stroke: #2ca02c; stroke-width: 1.5; stroke-linecap: square"/>
   </g>
   <g id="line2d_87">
    <path d="M 341.356796 134.762902 
L 341.498283 102.654374 
L 341.757675 93.111504 
L 342.134973 86.961358 
L 342.641967 82.291842 
L 343.255075 78.655733 
L 343.98609 75.613414 
L 344.8468 72.968515 
L 345.813625 70.684683 
L 346.945518 68.569189 
L 348.242479 66.618326 
L 349.716298 64.80511 
L 351.390557 63.09892 
L 353.312417 61.460321 
L 355.505459 59.885853 
L 358.028638 58.351311 
L 360.952695 56.840455 
L 364.301211 55.365469 
L 368.168513 53.908896 
L 372.578179 52.485022 
L 377.777813 51.044723 
L 383.779204 49.618316 
L 390.877117 48.171584 
L 398.965436 46.756798 
L 408.350715 45.34533 
L 419.245186 43.93627 
L 431.377664 42.582425 
L 445.986159 41.176063 
L 462.952764 39.770675 
L 482.666567 38.365536 
L 505.56382 36.961134 
L 532.163306 35.557106 
L 545.239029 34.943636 
L 545.239029 34.943636 
" clip-path="url(#p5a93b513b0)" style="fill: none; stroke: #d62728; stroke-width: 1.5; stroke-linecap: square"/>
   </g>
   <g id="line2d_88">
    <path d="M 341.356796 137.453361 
L 341.486492 103.516344 
L 341.745885 93.409477 
L 342.123182 87.11111 
L 342.618385 82.468796 
L 343.231494 78.778315 
L 343.962508 75.701795 
L 344.823219 73.034283 
L 345.813625 70.685277 
L 347.028052 68.434082 
L 348.325013 66.508508 
L 349.810622 64.701541 
L 351.496671 63.001629 
L 353.430322 61.369461 
L 355.646946 59.793567 
L 358.193705 58.25979 
L 361.117762 56.762558 
L 364.48986 55.289358 
L 368.392533 53.831474 
L 373.191288 52.30349 
L 378.449874 50.873991 
L 384.54559 49.451216 
L 391.619921 48.032576 
L 399.826146 46.618307 
L 409.352912 45.206594 
L 420.41245 43.797322 
L 433.264153 42.388589 
L 448.179201 40.982176 
L 465.499523 39.576918 
L 485.625996 38.171816 
L 509.006661 36.767148 
L 536.160304 35.36328 
L 545.239029 34.94369 
L 545.239029 34.94369 
" clip-path="url(#p5a93b513b0)" style="fill: none; stroke: #9467bd; stroke-width: 1.5; stroke-linecap: square"/>
   </g>
   <g id="patch_9">
    <path d="M 331.162685 174.04 
L 331.162685 28.32 
" style="fill: none; stroke: #000000; stroke-width: 0.8; stroke-linejoin: miter; stroke-linecap: square"/>
   </g>
   <g id="patch_10">
    <path d="M 555.43314 174.04 
L 555.43314 28.32 
" style="fill: none; stroke: #000000; stroke-width: 0.8; stroke-linejoin: miter; stroke-linecap: square"/>
   </g>
   <g id="patch_11">
    <path d="M 331.162685 174.04 
L 555.43314 174.04 
" style="fill: none; stroke: #000000; stroke-width: 0.8; stroke-linejoin: miter; stroke-linecap: square"/>
   </g>
   <g id="patch_12">
    <path d="M 331.162685 28.32 
L 555.43314 28.32 
" style="fill: none; stroke: #000000; stroke-width: 0.8; stroke-linejoin: miter; stroke-linecap: square"/>
   </g>
   <g id="text_30">
    <!-- $dev=100,f=1,msg/s=100,d=172800$ -->
    <g transform="translate(320.057913 22.32)scale(0.12 -0.12)">
     <use xlink:href="#DejaVuSans-Oblique-64" transform="translate(0 0.015625)"/>
     <use xlink:href="#DejaVuSans-Oblique-65" transform="translate(63.476562 0.015625)"/>
     <use xlink:href="#DejaVuSans-Oblique-76" transform="translate(125 0.015625)"/>
     <use xlink:href="#DejaVuSans-3d" transform="translate(203.662109 0.015625)"/>
     <use xlink:href="#DejaVuSans-31" transform="translate(306.933594 0.015625)"/>
     <use xlink:href="#DejaVuSans-30" transform="translate(370.556641 0.015625)"/>
     <use xlink:href="#DejaVuSans-30" transform="translate(434.179688 0.015625)"/>
     <use xlink:href="#DejaVuSans-2c" transform="translate(497.802734 0.015625)"/>
     <use xlink:href="#DejaVuSans-Oblique-66" transform="translate(549.072266 0.015625)"/>
     <use xlink:href="#DejaVuSans-3d" transform="translate(603.759766 0.015625)"/>
     <use xlink:href="#DejaVuSans-31" transform="translate(707.03125 0.015625)"/>
     <use xlink:href="#DejaVuSans-2c" transform="translate(770.654297 0.015625)"/>
     <use xlink:href="#DejaVuSans-Oblique-6d" transform="translate(821.923828 0.015625)"/>
     <use xlink:href="#DejaVuSans-Oblique-73" transform="translate(919.335938 0.015625)"/>
     <use xlink:href="#DejaVuSans-Oblique-67" transform="translate(971.435547 0.015625)"/>
     <use xlink:href="#DejaVuSans-2f" transform="translate(1034.912109 0.015625)"/>
     <use xlink:href="#DejaVuSans-Oblique-73" transform="translate(1068.603516 0.015625)"/>
     <use xlink:href="#DejaVuSans-3d" transform="translate(1140.185547 0.015625)"/>
     <use xlink:href="#DejaVuSans-31" transform="translate(1243.457031 0.015625)"/>
     <use xlink:href="#DejaVuSans-30" transform="translate(1307.080078 0.015625)"/>
     <use xlink:href="#DejaVuSans-30" transform="translate(1370.703125 0.015625)"/>
     <use xlink:href="#DejaVuSans-2c" transform="translate(1434.326172 0.015625)"/>
     <use xlink:href="#DejaVuSans-Oblique-64" transform="translate(1485.595703 0.015625)"/>
     <use xlink:href="#DejaVuSans-3d" transform="translate(1568.554688 0.015625)"/>
     <use xlink:href="#DejaVuSans-31" transform="translate(1671.826172 0.015625)"/>
     <use xlink:href="#DejaVuSans-37" transform="translate(1735.449219 0.015625)"/>
     <use xlink:href="#DejaVuSans-32" transform="translate(1799.072266 0.015625)"/>
     <use xlink:href="#DejaVuSans-38" transform="translate(1862.695312 0.015625)"/>
     <use xlink:href="#DejaVuSans-30" transform="translate(1926.318359 0.015625)"/>
     <use xlink:href="#DejaVuSans-30" transform="translate(1989.941406 0.015625)"/>
    </g>
   </g>
  </g>
 </g>
 <defs>
  <clipPath id="p3c26526658">
   <rect x="50.137685" y="28.32" width="224.270456" height="145.72"/>
  </clipPath>
  <clipPath id="p5a93b513b0">
   <rect x="331.162685" y="28.32" width="224.270456" height="145.72"/>
  </clipPath>
 </defs>
</svg>
